<svg xmlns="http://www.w3.org/2000/svg" xmlns:xlink="http://www.w3.org/1999/xlink" width="500" zoomAndPan="magnify" viewBox="0 0 375 374.999991" height="500" preserveAspectRatio="xMidYMid meet" version="1.0"><defs><clipPath id="1da37501d6"><path d="M 308 53 L 362.113281 53 L 362.113281 106 L 308 106 Z M 308 53 " clip-rule="nonzero"/></clipPath><clipPath id="1297dc6c02"><path d="M 12.613281 0 L 362 0 L 362 375 L 12.613281 375 Z M 12.613281 0 " clip-rule="nonzero"/></clipPath></defs><g clip-path="url(#1da37501d6)"><path fill="#ffffff" d="M 360.15625 84.859375 L 328.726562 55.8125 C 325.933594 53.242188 321.582031 53.398438 319.011719 56.191406 L 310.695312 65.175781 C 308.121094 67.972656 308.28125 72.320312 311.074219 74.890625 L 342.472656 103.941406 C 345.265625 106.511719 349.617188 106.355469 352.1875 103.558594 L 360.503906 94.574219 C 363.078125 91.78125 362.917969 87.433594 360.125 84.859375 Z M 360.15625 84.859375 " fill-opacity="1" fill-rule="evenodd"/></g><g clip-path="url(#1297dc6c02)"><path fill="#00c2cb" d="M 361.078125 230.707031 C 365.871094 182.484375 349.203125 135.371094 314.980469 101.050781 C 290.089844 76.097656 257.804688 59.9375 222.847656 55.242188 L 219.769531 54.828125 L 219.769531 24.222656 L 241.738281 24.222656 C 245.515625 24.222656 248.597656 21.144531 248.597656 17.367188 L 248.597656 6.859375 C 248.597656 3.078125 245.515625 0 241.738281 0 L 164.179688 0 C 160.402344 0 157.324219 3.078125 157.324219 6.859375 L 157.324219 17.367188 C 157.324219 21.144531 160.402344 24.222656 164.179688 24.222656 L 184.464844 24.222656 L 184.464844 54.605469 L 181.355469 54.988281 C 156.273438 58.097656 132.402344 67.019531 111.449219 81.179688 C 103.160156 86.765625 101.351562 98.195312 107.480469 106.101562 C 113.257812 113.558594 124.144531 114.226562 131.734375 109.210938 C 152.433594 95.496094 176.464844 88.320312 201.261719 88.320312 C 234.785156 88.320312 266.660156 101.589844 290.34375 125.273438 C 319.679688 154.609375 332.378906 195.59375 325.425781 236.421875 C 316.375 289.378906 273.296875 331.253906 220.183594 339.0625 C 200.085938 342.015625 179.769531 340.300781 160.5625 333.695312 C 142.402344 327.472656 125.894531 317.15625 112.304688 303.601562 C 92.875 284.203125 80.238281 259.089844 76.429688 231.882812 L 75.859375 227.851562 L 93.988281 227.851562 C 101.035156 227.851562 105.480469 220.167969 101.953125 214.074219 L 65.859375 151.5625 C 62.300781 145.433594 53.476562 145.433594 49.921875 151.5625 L 13.824219 214.074219 C 10.300781 220.167969 14.746094 227.851562 21.792969 227.851562 L 41.128906 227.851562 L 41.445312 231.027344 C 45.253906 267.726562 61.636719 301.855469 87.699219 327.917969 C 121.734375 361.921875 168.402344 378.683594 216.308594 374.300781 C 292.089844 367.347656 353.488281 306.457031 360.980469 230.707031 Z M 361.078125 230.707031 " fill-opacity="1" fill-rule="evenodd"/></g><path fill="#ffffff" d="M 205.132812 238.929688 C 204.65625 238.960938 204.179688 238.996094 203.707031 238.996094 C 198.976562 238.996094 194.433594 237.121094 191.101562 233.789062 C 187.417969 230.105469 185.515625 224.960938 185.925781 219.753906 C 186.339844 214.546875 188.976562 209.753906 193.230469 206.675781 L 246.46875 168.164062 C 249.359375 166.070312 253.390625 166.417969 255.898438 168.929688 C 258.4375 171.46875 258.785156 175.46875 256.691406 178.386719 L 218.183594 231.597656 C 215.101562 235.851562 210.371094 238.519531 205.132812 238.929688 Z M 299.933594 158.707031 C 309.804688 175.945312 314.949219 195.339844 314.949219 215.214844 C 314.949219 235.121094 309.804688 254.519531 299.898438 271.789062 C 299.835938 271.980469 299.742188 272.203125 299.613281 272.359375 C 299.519531 272.519531 299.390625 272.679688 299.265625 272.835938 C 289.359375 289.726562 275.230469 303.824219 258.34375 313.726562 C 258.152344 313.886719 257.929688 314.046875 257.707031 314.140625 C 257.550781 314.234375 257.390625 314.300781 257.199219 314.363281 C 240.277344 324.046875 221.261719 329.1875 201.769531 329.347656 C 201.640625 329.347656 201.515625 329.378906 201.386719 329.378906 C 201.292969 329.378906 201.199219 329.378906 201.101562 329.378906 C 200.976562 329.378906 200.847656 329.378906 200.722656 329.378906 C 192.117188 329.378906 183.480469 328.363281 175.101562 326.457031 C 171.164062 325.570312 168.6875 321.601562 169.609375 317.664062 C 170.53125 313.757812 174.464844 311.28125 178.402344 312.171875 C 183.546875 313.378906 188.816406 314.109375 194.085938 314.457031 L 194.085938 309.726562 C 194.085938 305.664062 197.355469 302.394531 201.417969 302.394531 C 205.484375 302.394531 208.722656 305.695312 208.722656 309.726562 L 208.722656 314.394531 C 221.007812 313.410156 232.945312 310.171875 244.023438 304.773438 L 241.675781 300.710938 C 239.644531 297.21875 240.851562 292.710938 244.34375 290.710938 C 247.835938 288.679688 252.34375 289.886719 254.375 293.410156 L 256.691406 297.441406 C 267.007812 290.394531 275.960938 281.441406 283.011719 271.121094 L 278.945312 268.804688 C 275.453125 266.773438 274.25 262.296875 276.25 258.804688 C 278.25 255.28125 282.757812 254.074219 286.28125 256.105469 L 290.34375 258.457031 C 295.804688 247.183594 299.074219 234.992188 299.996094 222.484375 L 295.265625 222.484375 C 291.234375 222.484375 287.929688 219.183594 287.929688 215.152344 C 287.929688 211.121094 291.234375 207.816406 295.265625 207.816406 L 299.996094 207.816406 C 299.074219 195.308594 295.804688 183.152344 290.34375 171.878906 L 286.25 174.261719 L 286.21875 174.292969 C 285.105469 174.894531 283.867188 175.214844 282.628906 175.214844 C 280.027344 175.214844 277.613281 173.816406 276.3125 171.5625 C 274.28125 168.070312 275.484375 163.5625 278.980469 161.53125 L 283.042969 159.214844 C 275.996094 148.894531 267.042969 139.941406 256.722656 132.894531 L 254.40625 136.957031 C 253.105469 139.210938 250.691406 140.609375 248.054688 140.609375 C 246.785156 140.609375 245.546875 140.292969 244.46875 139.6875 L 244.40625 139.625 C 240.945312 137.59375 239.738281 133.117188 241.738281 129.625 L 244.089844 125.527344 C 233.007812 120.164062 221.070312 116.894531 208.816406 115.941406 L 208.816406 120.609375 C 208.816406 124.640625 205.515625 127.941406 201.484375 127.941406 C 197.453125 127.941406 194.148438 124.640625 194.148438 120.609375 L 194.148438 115.910156 C 194.054688 115.910156 193.925781 115.941406 193.832031 115.941406 L 189.484375 116.289062 C 185.800781 116.734375 182.117188 117.339844 178.464844 118.164062 C 174.53125 119.085938 170.59375 116.609375 169.703125 112.671875 C 168.785156 108.734375 171.257812 104.796875 175.195312 103.878906 C 179.703125 102.828125 184.277344 102.066406 188.847656 101.625 C 197.292969 100.796875 205.769531 100.796875 214.214844 101.78125 C 229.453125 103.527344 244.089844 108.417969 257.390625 116.035156 C 257.582031 116.101562 257.769531 116.195312 257.960938 116.324219 C 258.152344 116.417969 258.3125 116.542969 258.46875 116.671875 C 263.230469 119.464844 267.804688 122.578125 272.089844 126.035156 L 272.121094 126.070312 C 282.058594 134.101562 290.4375 143.6875 297.421875 154.355469 L 297.457031 154.417969 C 298.121094 155.5 298.789062 156.578125 299.425781 157.6875 C 299.488281 157.753906 299.550781 157.847656 299.582031 157.910156 L 299.710938 158.070312 L 299.804688 158.261719 C 299.898438 158.417969 299.964844 158.578125 299.996094 158.738281 Z M 203.992188 224.359375 C 204.945312 224.261719 205.800781 223.789062 206.339844 223.058594 L 218.085938 206.800781 L 201.832031 218.550781 C 201.070312 219.089844 200.59375 219.976562 200.53125 220.898438 C 200.46875 221.820312 200.816406 222.738281 201.484375 223.40625 C 202.148438 224.074219 203.070312 224.390625 204.023438 224.328125 Z M 203.992188 224.359375 " fill-opacity="1" fill-rule="evenodd"/></svg>