<svg xmlns="http://www.w3.org/2000/svg" xmlns:xlink="http://www.w3.org/1999/xlink" width="2000" zoomAndPan="magnify" viewBox="0 0 1500 1499.999933" height="2000" preserveAspectRatio="xMidYMid meet" version="1.0"><path fill="#000000" d="M 1459.527344 1091.21875 L 1315.34375 1091.21875 C 1297.640625 982.480469 1201.519531 901.558594 1090.21875 901.558594 C 978.921875 901.558594 885.328125 982.480469 865.09375 1091.21875 L 40.472656 1091.21875 C 20.234375 1091.21875 2.53125 1108.917969 2.53125 1129.148438 C 2.53125 1149.378906 20.234375 1167.082031 40.472656 1167.082031 L 867.621094 1167.082031 C 885.328125 1275.820312 981.449219 1356.742188 1092.75 1356.742188 C 1204.046875 1356.742188 1297.640625 1275.820312 1317.875 1167.082031 L 1462.058594 1167.082031 C 1482.292969 1167.082031 1500 1149.378906 1500 1129.148438 C 1500 1108.917969 1479.765625 1091.21875 1459.527344 1091.21875 Z M 1090.21875 1280.878906 C 1006.746094 1280.878906 938.449219 1212.601562 938.449219 1129.148438 C 938.449219 1045.699219 1006.746094 977.421875 1090.21875 977.421875 C 1173.691406 977.421875 1241.988281 1045.699219 1241.988281 1129.148438 C 1241.988281 1212.601562 1173.691406 1280.878906 1090.21875 1280.878906 Z M 1090.21875 1280.878906 " fill-opacity="1" fill-rule="nonzero"/><path fill="#000000" d="M 37.941406 408.441406 L 182.125 408.441406 C 199.832031 517.179688 295.953125 598.101562 407.25 598.101562 C 518.550781 598.101562 612.140625 517.179688 632.378906 408.441406 L 1457 408.441406 C 1477.234375 408.441406 1494.941406 390.738281 1494.941406 370.507812 C 1494.941406 350.277344 1477.234375 332.578125 1457 332.578125 L 629.847656 332.578125 C 614.671875 223.835938 518.550781 142.917969 407.25 142.917969 C 295.953125 142.917969 202.359375 223.835938 182.125 332.578125 L 37.941406 332.578125 C 17.707031 332.578125 0 350.277344 0 370.507812 C 0 390.738281 17.707031 408.441406 37.941406 408.441406 Z M 407.25 218.78125 C 490.726562 218.78125 559.023438 287.058594 559.023438 370.507812 C 559.023438 453.960938 490.726562 522.238281 407.25 522.238281 C 323.777344 522.238281 255.480469 453.960938 255.480469 370.507812 C 255.480469 287.058594 323.777344 218.78125 407.25 218.78125 Z M 407.25 218.78125 " fill-opacity="1" fill-rule="nonzero"/></svg>