<svg xmlns="http://www.w3.org/2000/svg" xmlns:xlink="http://www.w3.org/1999/xlink" width="2000" zoomAndPan="magnify" viewBox="0 0 1500 1499.999933" height="2000" preserveAspectRatio="xMidYMid meet" version="1.0"><path fill="#000000" d="M 750 308.5 C 608.503906 308.5 493 423.5 493 565 C 493 707 608.503906 822 750 822 C 891.5 822 1007 707 1007 565 C 1007 423.5 891.5 308.5 750 308.5 Z M 750 308.5 " fill-opacity="1" fill-rule="nonzero"/><path fill="#000000" d="M 749.5 0.5 C 336.503906 0.5 0 336.5 0 750 C 0 980 104.5 1186 268 1323.5 C 268 1323.5 268 1323.5 268 1324 C 398.503906 1433.5 566.5 1499.5 749.5 1499.5 C 1010.5 1499.5 1248.5 1367.5 1386.503906 1146 C 1461 1027 1500 890.5 1500 750 C 1500 609.5 1461 472.5 1386.5 353.996094 C 1248.5 132.496094 1010.5 0.5 749.5 0.5 Z M 1302 1093 C 1278 1131.5 1250 1165.5 1219.5 1197.5 C 1143.5 1041.496094 982 937.5 803.5 937.5 L 696.5 937.5 C 572.5 937.5 456 986 368.5 1073.5 C 332 1109.5 303 1152 280.5 1197.996094 C 169 1081.5 100 924 100 750 C 100 392 391.5 100.5 749.5 100.5 C 976 100.5 1182 215 1302 407 C 1366 510 1400 628.5 1400 750 C 1400 871.5 1366 990 1302 1093 Z M 1302 1093 " fill-opacity="1" fill-rule="nonzero"/></svg>