<svg xmlns="http://www.w3.org/2000/svg" xmlns:xlink="http://www.w3.org/1999/xlink" width="2000" zoomAndPan="magnify" viewBox="0 0 1500 1499.999933" height="2000" preserveAspectRatio="xMidYMid meet" version="1.0"><path fill="#000000" d="M 1232.144531 107.144531 L 267.855469 107.144531 C 263.472656 107.144531 259.09375 107.25 254.714844 107.464844 C 250.335938 107.679688 245.964844 108.003906 241.601562 108.433594 C 237.238281 108.863281 232.890625 109.398438 228.554688 110.042969 C 224.21875 110.683594 219.898438 111.433594 215.601562 112.289062 C 211.300781 113.144531 207.027344 114.105469 202.773438 115.171875 C 198.519531 116.234375 194.296875 117.402344 190.101562 118.675781 C 185.90625 119.949219 181.746094 121.324219 177.617188 122.800781 C 173.492188 124.277344 169.402344 125.855469 165.351562 127.53125 C 161.300781 129.210938 157.296875 130.984375 153.332031 132.859375 C 149.371094 134.734375 145.457031 136.703125 141.589844 138.769531 C 137.722656 140.835938 133.910156 142.996094 130.152344 145.25 C 126.390625 147.503906 122.6875 149.847656 119.042969 152.285156 C 115.398438 154.71875 111.816406 157.242188 108.292969 159.855469 C 104.773438 162.464844 101.320312 165.164062 97.929688 167.945312 C 94.542969 170.722656 91.222656 173.585938 87.976562 176.53125 C 84.726562 179.476562 81.554688 182.496094 78.453125 185.597656 C 75.355469 188.695312 72.332031 191.871094 69.386719 195.117188 C 66.445312 198.367188 63.582031 201.683594 60.800781 205.074219 C 58.019531 208.460938 55.324219 211.917969 52.710938 215.4375 C 50.101562 218.957031 47.578125 222.542969 45.140625 226.1875 C 42.707031 229.832031 40.363281 233.535156 38.109375 237.292969 C 35.855469 241.054688 33.695312 244.867188 31.628906 248.734375 C 29.5625 252.597656 27.589844 256.511719 25.71875 260.476562 C 23.84375 264.4375 22.066406 268.445312 20.390625 272.496094 C 18.710938 276.546875 17.132812 280.632812 15.65625 284.761719 C 14.179688 288.890625 12.804688 293.050781 11.535156 297.246094 C 10.261719 301.441406 9.09375 305.664062 8.027344 309.917969 C 6.960938 314.167969 6.003906 318.445312 5.148438 322.742188 C 4.292969 327.042969 3.542969 331.359375 2.898438 335.695312 C 2.257812 340.035156 1.71875 344.382812 1.289062 348.746094 C 0.859375 353.109375 0.539062 357.476562 0.324219 361.855469 C 0.109375 366.234375 0 370.617188 0 375 C 0 376.753906 0.0859375 378.503906 0.257812 380.25 C 0.429688 381.996094 0.6875 383.730469 1.03125 385.453125 C 1.371094 387.171875 1.796875 388.871094 2.308594 390.550781 C 2.816406 392.230469 3.40625 393.878906 4.078125 395.5 C 4.75 397.121094 5.5 398.707031 6.324219 400.253906 C 7.152344 401.800781 8.054688 403.304688 9.027344 404.761719 C 10.003906 406.222656 11.046875 407.628906 12.160156 408.984375 C 13.273438 410.339844 14.449219 411.640625 15.691406 412.878906 C 16.929688 414.121094 18.230469 415.296875 19.585938 416.410156 C 20.941406 417.523438 22.351562 418.566406 23.808594 419.542969 C 25.269531 420.519531 26.769531 421.417969 28.316406 422.246094 C 29.867188 423.074219 31.449219 423.820312 33.070312 424.492188 C 34.691406 425.164062 36.339844 425.753906 38.019531 426.265625 C 39.699219 426.773438 41.398438 427.199219 43.121094 427.542969 C 44.839844 427.882812 46.574219 428.140625 48.320312 428.3125 C 50.066406 428.484375 51.816406 428.570312 53.570312 428.570312 L 107.144531 428.570312 L 107.144531 1285.714844 C 105.386719 1285.714844 103.636719 1285.800781 101.890625 1285.972656 C 100.144531 1286.144531 98.414062 1286.402344 96.691406 1286.742188 C 94.972656 1287.085938 93.269531 1287.511719 91.59375 1288.019531 C 89.914062 1288.53125 88.261719 1289.121094 86.640625 1289.792969 C 85.019531 1290.464844 83.4375 1291.210938 81.890625 1292.039062 C 80.34375 1292.867188 78.839844 1293.769531 77.378906 1294.742188 C 75.921875 1295.71875 74.515625 1296.761719 73.15625 1297.875 C 71.800781 1298.988281 70.503906 1300.164062 69.261719 1301.40625 C 68.023438 1302.644531 66.84375 1303.945312 65.730469 1305.300781 C 64.617188 1306.65625 63.574219 1308.0625 62.601562 1309.523438 C 61.625 1310.980469 60.722656 1312.484375 59.898438 1314.03125 C 59.070312 1315.578125 58.320312 1317.164062 57.648438 1318.785156 C 56.976562 1320.40625 56.386719 1322.054688 55.878906 1323.734375 C 55.367188 1325.414062 54.941406 1327.113281 54.601562 1328.835938 C 54.257812 1330.554688 54 1332.289062 53.828125 1334.035156 C 53.65625 1335.78125 53.570312 1337.53125 53.570312 1339.285156 C 53.570312 1341.039062 53.65625 1342.789062 53.828125 1344.535156 C 54 1346.28125 54.257812 1348.015625 54.601562 1349.738281 C 54.941406 1351.457031 55.367188 1353.15625 55.878906 1354.835938 C 56.386719 1356.515625 56.976562 1358.164062 57.648438 1359.785156 C 58.320312 1361.40625 59.070312 1362.992188 59.898438 1364.539062 C 60.722656 1366.085938 61.625 1367.589844 62.601562 1369.046875 C 63.574219 1370.507812 64.617188 1371.914062 65.730469 1373.269531 C 66.84375 1374.628906 68.023438 1375.925781 69.261719 1377.167969 C 70.503906 1378.40625 71.800781 1379.582031 73.15625 1380.695312 C 74.515625 1381.808594 75.921875 1382.855469 77.378906 1383.828125 C 78.839844 1384.804688 80.34375 1385.703125 81.890625 1386.53125 C 83.4375 1387.359375 85.019531 1388.109375 86.640625 1388.777344 C 88.261719 1389.449219 89.914062 1390.039062 91.59375 1390.550781 C 93.269531 1391.058594 94.972656 1391.484375 96.691406 1391.828125 C 98.414062 1392.167969 100.144531 1392.425781 101.890625 1392.597656 C 103.636719 1392.769531 105.386719 1392.855469 107.144531 1392.855469 L 214.285156 1392.855469 C 216.039062 1392.855469 217.789062 1392.769531 219.535156 1392.597656 C 221.28125 1392.425781 223.015625 1392.167969 224.738281 1391.828125 C 226.457031 1391.484375 228.15625 1391.058594 229.835938 1390.550781 C 231.515625 1390.039062 233.164062 1389.449219 234.785156 1388.777344 C 236.40625 1388.109375 237.992188 1387.359375 239.539062 1386.53125 C 241.085938 1385.703125 242.589844 1384.804688 244.046875 1383.828125 C 245.507812 1382.855469 246.914062 1381.808594 248.269531 1380.695312 C 249.628906 1379.582031 250.925781 1378.40625 252.167969 1377.167969 C 253.40625 1375.925781 254.582031 1374.628906 255.695312 1373.269531 C 256.808594 1371.914062 257.855469 1370.507812 258.828125 1369.046875 C 259.804688 1367.589844 260.703125 1366.085938 261.53125 1364.539062 C 262.359375 1362.992188 263.109375 1361.40625 263.777344 1359.785156 C 264.449219 1358.164062 265.042969 1356.515625 265.550781 1354.835938 C 266.058594 1353.15625 266.484375 1351.457031 266.828125 1349.738281 C 267.171875 1348.015625 267.425781 1346.28125 267.597656 1344.535156 C 267.769531 1342.789062 267.855469 1341.039062 267.855469 1339.285156 C 267.855469 1337.53125 267.769531 1335.78125 267.597656 1334.035156 C 267.425781 1332.289062 267.171875 1330.554688 266.828125 1328.835938 C 266.484375 1327.113281 266.058594 1325.414062 265.550781 1323.734375 C 265.042969 1322.054688 264.449219 1320.40625 263.777344 1318.785156 C 263.109375 1317.164062 262.359375 1315.578125 261.53125 1314.03125 C 260.703125 1312.484375 259.804688 1310.980469 258.828125 1309.523438 C 257.855469 1308.0625 256.808594 1306.65625 255.695312 1305.300781 C 254.582031 1303.945312 253.40625 1302.644531 252.167969 1301.40625 C 250.925781 1300.164062 249.628906 1298.988281 248.269531 1297.875 C 246.914062 1296.761719 245.507812 1295.71875 244.046875 1294.742188 C 242.589844 1293.769531 241.085938 1292.867188 239.539062 1292.039062 C 237.992188 1291.210938 236.40625 1290.464844 234.785156 1289.792969 C 233.164062 1289.121094 231.515625 1288.53125 229.835938 1288.019531 C 228.15625 1287.511719 226.457031 1287.085938 224.738281 1286.742188 C 223.015625 1286.402344 221.28125 1286.144531 219.535156 1285.972656 C 217.789062 1285.800781 216.039062 1285.714844 214.285156 1285.714844 L 214.285156 428.570312 L 1285.714844 428.570312 L 1285.714844 1285.714844 C 1283.960938 1285.714844 1282.210938 1285.800781 1280.464844 1285.972656 C 1278.71875 1286.144531 1276.984375 1286.402344 1275.261719 1286.742188 C 1273.542969 1287.085938 1271.84375 1287.511719 1270.164062 1288.019531 C 1268.484375 1288.53125 1266.835938 1289.121094 1265.214844 1289.792969 C 1263.59375 1290.464844 1262.007812 1291.210938 1260.460938 1292.039062 C 1258.914062 1292.867188 1257.410156 1293.769531 1255.953125 1294.742188 C 1254.492188 1295.71875 1253.085938 1296.761719 1251.730469 1297.875 C 1250.371094 1298.988281 1249.074219 1300.164062 1247.832031 1301.40625 C 1246.59375 1302.644531 1245.414062 1303.945312 1244.304688 1305.300781 C 1243.191406 1306.65625 1242.144531 1308.0625 1241.171875 1309.523438 C 1240.195312 1310.980469 1239.296875 1312.484375 1238.46875 1314.03125 C 1237.640625 1315.578125 1236.890625 1317.164062 1236.21875 1318.785156 C 1235.550781 1320.40625 1234.957031 1322.054688 1234.449219 1323.734375 C 1233.941406 1325.414062 1233.515625 1327.113281 1233.171875 1328.835938 C 1232.828125 1330.554688 1232.574219 1332.289062 1232.402344 1334.035156 C 1232.230469 1335.78125 1232.144531 1337.53125 1232.144531 1339.285156 C 1232.144531 1341.039062 1232.230469 1342.789062 1232.402344 1344.535156 C 1232.574219 1346.28125 1232.828125 1348.015625 1233.171875 1349.738281 C 1233.515625 1351.457031 1233.941406 1353.15625 1234.449219 1354.835938 C 1234.957031 1356.515625 1235.550781 1358.164062 1236.21875 1359.785156 C 1236.890625 1361.40625 1237.640625 1362.992188 1238.46875 1364.539062 C 1239.296875 1366.085938 1240.195312 1367.589844 1241.171875 1369.046875 C 1242.144531 1370.507812 1243.191406 1371.914062 1244.304688 1373.269531 C 1245.414062 1374.628906 1246.59375 1375.925781 1247.832031 1377.167969 C 1249.074219 1378.40625 1250.371094 1379.582031 1251.730469 1380.695312 C 1253.085938 1381.808594 1254.492188 1382.855469 1255.953125 1383.828125 C 1257.410156 1384.804688 1258.914062 1385.703125 1260.460938 1386.53125 C 1262.007812 1387.359375 1263.59375 1388.109375 1265.214844 1388.777344 C 1266.835938 1389.449219 1268.484375 1390.039062 1270.164062 1390.550781 C 1271.84375 1391.058594 1273.542969 1391.484375 1275.261719 1391.828125 C 1276.984375 1392.167969 1278.71875 1392.425781 1280.464844 1392.597656 C 1282.210938 1392.769531 1283.960938 1392.855469 1285.714844 1392.855469 L 1392.855469 1392.855469 C 1394.613281 1392.855469 1396.363281 1392.769531 1398.109375 1392.597656 C 1399.855469 1392.425781 1401.585938 1392.167969 1403.308594 1391.828125 C 1405.027344 1391.484375 1406.730469 1391.058594 1408.40625 1390.550781 C 1410.085938 1390.039062 1411.738281 1389.449219 1413.359375 1388.777344 C 1414.980469 1388.109375 1416.5625 1387.359375 1418.109375 1386.53125 C 1419.65625 1385.703125 1421.160156 1384.804688 1422.621094 1383.828125 C 1424.078125 1382.855469 1425.484375 1381.808594 1426.84375 1380.695312 C 1428.199219 1379.582031 1429.496094 1378.40625 1430.738281 1377.167969 C 1431.976562 1375.925781 1433.15625 1374.628906 1434.269531 1373.269531 C 1435.382812 1371.914062 1436.425781 1370.507812 1437.398438 1369.046875 C 1438.375 1367.589844 1439.277344 1366.085938 1440.101562 1364.539062 C 1440.929688 1362.992188 1441.679688 1361.40625 1442.351562 1359.785156 C 1443.023438 1358.164062 1443.613281 1356.515625 1444.121094 1354.835938 C 1444.632812 1353.15625 1445.058594 1351.457031 1445.398438 1349.738281 C 1445.742188 1348.015625 1446 1346.28125 1446.171875 1344.535156 C 1446.34375 1342.789062 1446.429688 1341.039062 1446.429688 1339.285156 C 1446.429688 1337.53125 1446.34375 1335.78125 1446.171875 1334.035156 C 1446 1332.289062 1445.742188 1330.554688 1445.398438 1328.835938 C 1445.058594 1327.113281 1444.632812 1325.414062 1444.121094 1323.734375 C 1443.613281 1322.054688 1443.023438 1320.40625 1442.351562 1318.785156 C 1441.679688 1317.164062 1440.929688 1315.578125 1440.101562 1314.03125 C 1439.277344 1312.484375 1438.375 1310.980469 1437.398438 1309.523438 C 1436.425781 1308.0625 1435.382812 1306.65625 1434.269531 1305.300781 C 1433.15625 1303.945312 1431.976562 1302.644531 1430.738281 1301.40625 C 1429.496094 1300.164062 1428.199219 1298.988281 1426.84375 1297.875 C 1425.484375 1296.761719 1424.078125 1295.71875 1422.621094 1294.742188 C 1421.160156 1293.769531 1419.65625 1292.867188 1418.109375 1292.039062 C 1416.5625 1291.210938 1414.980469 1290.464844 1413.359375 1289.792969 C 1411.738281 1289.121094 1410.085938 1288.53125 1408.40625 1288.019531 C 1406.730469 1287.511719 1405.027344 1287.085938 1403.308594 1286.742188 C 1401.585938 1286.402344 1399.855469 1286.144531 1398.109375 1285.972656 C 1396.363281 1285.800781 1394.613281 1285.714844 1392.855469 1285.714844 L 1392.855469 428.570312 L 1446.429688 428.570312 C 1448.183594 428.570312 1449.933594 428.484375 1451.679688 428.3125 C 1453.425781 428.140625 1455.160156 427.882812 1456.878906 427.542969 C 1458.601562 427.199219 1460.300781 426.773438 1461.980469 426.265625 C 1463.660156 425.753906 1465.308594 425.164062 1466.929688 424.492188 C 1468.550781 423.820312 1470.132812 423.074219 1471.683594 422.246094 C 1473.230469 421.417969 1474.730469 420.519531 1476.191406 419.542969 C 1477.648438 418.566406 1479.058594 417.523438 1480.414062 416.410156 C 1481.769531 415.296875 1483.070312 414.121094 1484.308594 412.878906 C 1485.550781 411.640625 1486.726562 410.339844 1487.839844 408.984375 C 1488.953125 407.628906 1489.996094 406.222656 1490.972656 404.761719 C 1491.945312 403.304688 1492.847656 401.800781 1493.675781 400.253906 C 1494.5 398.707031 1495.25 397.121094 1495.921875 395.5 C 1496.59375 393.878906 1497.183594 392.230469 1497.691406 390.550781 C 1498.203125 388.871094 1498.628906 387.171875 1498.96875 385.453125 C 1499.3125 383.730469 1499.570312 381.996094 1499.742188 380.25 C 1499.914062 378.503906 1500 376.753906 1500 375 C 1500 370.617188 1499.890625 366.234375 1499.675781 361.855469 C 1499.460938 357.476562 1499.140625 353.109375 1498.710938 348.746094 C 1498.28125 344.382812 1497.742188 340.035156 1497.101562 335.695312 C 1496.457031 331.359375 1495.707031 327.042969 1494.851562 322.742188 C 1493.996094 318.445312 1493.039062 314.167969 1491.972656 309.914062 C 1490.90625 305.664062 1489.738281 301.441406 1488.464844 297.246094 C 1487.195312 293.050781 1485.820312 288.890625 1484.34375 284.761719 C 1482.863281 280.632812 1481.289062 276.546875 1479.609375 272.496094 C 1477.933594 268.445312 1476.15625 264.4375 1474.28125 260.476562 C 1472.410156 256.511719 1470.4375 252.597656 1468.371094 248.734375 C 1466.304688 244.867188 1464.144531 241.054688 1461.890625 237.292969 C 1459.636719 233.535156 1457.292969 229.832031 1454.859375 226.1875 C 1452.421875 222.542969 1449.898438 218.957031 1447.289062 215.4375 C 1444.675781 211.917969 1441.980469 208.460938 1439.199219 205.074219 C 1436.417969 201.683594 1433.554688 198.367188 1430.613281 195.117188 C 1427.667969 191.871094 1424.644531 188.695312 1421.546875 185.597656 C 1418.445312 182.496094 1415.273438 179.476562 1412.023438 176.53125 C 1408.777344 173.585938 1405.457031 170.722656 1402.070312 167.945312 C 1398.679688 165.164062 1395.226562 162.464844 1391.703125 159.855469 C 1388.183594 157.242188 1384.601562 154.71875 1380.957031 152.285156 C 1377.3125 149.847656 1373.609375 147.503906 1369.847656 145.25 C 1366.089844 142.996094 1362.277344 140.835938 1358.410156 138.769531 C 1354.542969 136.703125 1350.628906 134.734375 1346.667969 132.859375 C 1342.703125 130.984375 1338.695312 129.210938 1334.648438 127.53125 C 1330.597656 125.855469 1326.507812 124.277344 1322.382812 122.800781 C 1318.253906 121.324219 1314.09375 119.949219 1309.898438 118.675781 C 1305.703125 117.402344 1301.480469 116.234375 1297.226562 115.171875 C 1292.972656 114.105469 1288.699219 113.144531 1284.398438 112.289062 C 1280.101562 111.433594 1275.78125 110.683594 1271.445312 110.042969 C 1267.109375 109.398438 1262.761719 108.863281 1258.398438 108.433594 C 1254.035156 108.003906 1249.664062 107.679688 1245.285156 107.464844 C 1240.90625 107.25 1236.527344 107.144531 1232.144531 107.144531 Z M 267.855469 214.285156 L 1232.144531 214.285156 C 1236.269531 214.285156 1240.386719 214.441406 1244.5 214.753906 C 1248.613281 215.070312 1252.707031 215.542969 1256.785156 216.171875 C 1260.863281 216.804688 1264.910156 217.589844 1268.925781 218.53125 C 1272.941406 219.472656 1276.917969 220.570312 1280.847656 221.816406 C 1284.78125 223.066406 1288.660156 224.460938 1292.484375 226.007812 C 1296.308594 227.554688 1300.066406 229.246094 1303.761719 231.082031 C 1307.453125 232.917969 1311.074219 234.894531 1314.613281 237.007812 C 1318.15625 239.125 1321.613281 241.371094 1324.980469 243.753906 C 1328.351562 246.132812 1331.621094 248.640625 1334.796875 251.273438 C 1337.972656 253.90625 1341.042969 256.65625 1344.007812 259.527344 C 1346.972656 262.394531 1349.820312 265.375 1352.554688 268.464844 C 1355.289062 271.550781 1357.902344 274.742188 1360.390625 278.03125 C 1362.878906 281.320312 1365.238281 284.703125 1367.46875 288.171875 C 1369.695312 291.644531 1371.789062 295.195312 1373.746094 298.828125 C 1375.699219 302.460938 1377.511719 306.164062 1379.183594 309.9375 C 1380.851562 313.707031 1382.375 317.539062 1383.75 321.429688 L 116.25 321.429688 C 117.625 317.539062 119.148438 313.707031 120.816406 309.9375 C 122.488281 306.164062 124.300781 302.460938 126.253906 298.828125 C 128.210938 295.195312 130.304688 291.644531 132.53125 288.171875 C 134.761719 284.703125 137.121094 281.320312 139.609375 278.03125 C 142.097656 274.742188 144.710938 271.550781 147.445312 268.464844 C 150.179688 265.375 153.027344 262.394531 155.992188 259.527344 C 158.957031 256.65625 162.027344 253.90625 165.203125 251.273438 C 168.378906 248.640625 171.648438 246.132812 175.019531 243.753906 C 178.386719 241.371094 181.84375 239.125 185.386719 237.007812 C 188.925781 234.894531 192.546875 232.917969 196.238281 231.082031 C 199.933594 229.246094 203.691406 227.554688 207.515625 226.007812 C 211.339844 224.460938 215.21875 223.066406 219.152344 221.816406 C 223.082031 220.570312 227.058594 219.472656 231.074219 218.53125 C 235.089844 217.589844 239.136719 216.804688 243.214844 216.171875 C 247.289062 215.542969 251.386719 215.070312 255.5 214.753906 C 259.613281 214.441406 263.730469 214.285156 267.855469 214.285156 Z M 267.855469 214.285156 " fill-opacity="1" fill-rule="nonzero"/><path fill="#000000" d="M 1125 1071.429688 L 1071.429688 1071.429688 L 1071.429688 1017.855469 C 1073.183594 1017.855469 1074.933594 1017.769531 1076.679688 1017.597656 C 1078.425781 1017.425781 1080.160156 1017.167969 1081.878906 1016.828125 C 1083.601562 1016.484375 1085.300781 1016.058594 1086.980469 1015.550781 C 1088.660156 1015.039062 1090.308594 1014.449219 1091.929688 1013.777344 C 1093.550781 1013.109375 1095.132812 1012.359375 1096.683594 1011.53125 C 1098.230469 1010.703125 1099.730469 1009.804688 1101.191406 1008.828125 C 1102.648438 1007.855469 1104.058594 1006.808594 1105.414062 1005.695312 C 1106.769531 1004.582031 1108.070312 1003.40625 1109.308594 1002.167969 C 1110.550781 1000.925781 1111.726562 999.628906 1112.839844 998.269531 C 1113.953125 996.914062 1114.996094 995.507812 1115.972656 994.046875 C 1116.945312 992.589844 1117.847656 991.085938 1118.675781 989.539062 C 1119.5 987.992188 1120.25 986.40625 1120.921875 984.785156 C 1121.59375 983.164062 1122.183594 981.515625 1122.691406 979.835938 C 1123.203125 978.15625 1123.628906 976.457031 1123.96875 974.738281 C 1124.3125 973.015625 1124.570312 971.28125 1124.742188 969.535156 C 1124.914062 967.789062 1125 966.039062 1125 964.285156 L 1125 750 C 1125 748.246094 1124.914062 746.496094 1124.742188 744.75 C 1124.570312 743.003906 1124.3125 741.269531 1123.96875 739.546875 C 1123.628906 737.828125 1123.203125 736.128906 1122.691406 734.449219 C 1122.183594 732.769531 1121.59375 731.121094 1120.921875 729.5 C 1120.25 727.878906 1119.5 726.292969 1118.675781 724.746094 C 1117.847656 723.199219 1116.945312 721.695312 1115.972656 720.238281 C 1114.996094 718.777344 1113.953125 717.371094 1112.839844 716.015625 C 1111.726562 714.660156 1110.550781 713.359375 1109.308594 712.121094 C 1108.070312 710.878906 1106.769531 709.703125 1105.414062 708.589844 C 1104.058594 707.476562 1102.648438 706.429688 1101.191406 705.457031 C 1099.730469 704.480469 1098.230469 703.582031 1096.683594 702.753906 C 1095.132812 701.925781 1093.550781 701.179688 1091.929688 700.507812 C 1090.308594 699.835938 1088.660156 699.246094 1086.980469 698.734375 C 1085.300781 698.226562 1083.601562 697.800781 1081.878906 697.457031 C 1080.160156 697.117188 1078.425781 696.859375 1076.679688 696.6875 C 1074.933594 696.515625 1073.183594 696.429688 1071.429688 696.429688 L 428.570312 696.429688 C 426.816406 696.429688 425.066406 696.515625 423.320312 696.6875 C 421.574219 696.859375 419.839844 697.117188 418.121094 697.457031 C 416.398438 697.800781 414.699219 698.226562 413.019531 698.734375 C 411.339844 699.246094 409.691406 699.835938 408.070312 700.507812 C 406.449219 701.179688 404.867188 701.925781 403.316406 702.753906 C 401.769531 703.582031 400.269531 704.480469 398.808594 705.457031 C 397.351562 706.433594 395.941406 707.476562 394.585938 708.589844 C 393.230469 709.703125 391.929688 710.878906 390.691406 712.121094 C 389.449219 713.359375 388.273438 714.660156 387.160156 716.015625 C 386.046875 717.371094 385.003906 718.777344 384.027344 720.238281 C 383.054688 721.695312 382.152344 723.199219 381.324219 724.746094 C 380.5 726.292969 379.75 727.878906 379.078125 729.5 C 378.40625 731.121094 377.816406 732.769531 377.308594 734.449219 C 376.796875 736.128906 376.371094 737.828125 376.03125 739.546875 C 375.6875 741.269531 375.429688 743.003906 375.257812 744.75 C 375.085938 746.496094 375 748.246094 375 750 L 375 964.285156 C 375 966.039062 375.085938 967.789062 375.257812 969.535156 C 375.429688 971.28125 375.6875 973.015625 376.03125 974.738281 C 376.371094 976.457031 376.796875 978.15625 377.308594 979.835938 C 377.816406 981.515625 378.40625 983.164062 379.078125 984.785156 C 379.75 986.40625 380.5 987.992188 381.324219 989.539062 C 382.152344 991.085938 383.054688 992.589844 384.027344 994.046875 C 385.003906 995.507812 386.046875 996.914062 387.160156 998.269531 C 388.273438 999.628906 389.449219 1000.925781 390.691406 1002.167969 C 391.929688 1003.40625 393.230469 1004.582031 394.585938 1005.695312 C 395.941406 1006.808594 397.351562 1007.855469 398.808594 1008.828125 C 400.265625 1009.804688 401.769531 1010.703125 403.316406 1011.53125 C 404.867188 1012.359375 406.449219 1013.109375 408.070312 1013.777344 C 409.691406 1014.449219 411.339844 1015.039062 413.019531 1015.550781 C 414.699219 1016.058594 416.398438 1016.484375 418.121094 1016.828125 C 419.839844 1017.167969 421.574219 1017.425781 423.320312 1017.597656 C 425.066406 1017.769531 426.816406 1017.855469 428.570312 1017.855469 L 428.570312 1071.429688 L 375 1071.429688 C 373.246094 1071.429688 371.496094 1071.515625 369.75 1071.6875 C 368.003906 1071.859375 366.269531 1072.117188 364.546875 1072.457031 C 362.828125 1072.800781 361.128906 1073.226562 359.449219 1073.734375 C 357.769531 1074.246094 356.121094 1074.835938 354.5 1075.507812 C 352.878906 1076.175781 351.292969 1076.925781 349.746094 1077.753906 C 348.199219 1078.582031 346.695312 1079.480469 345.238281 1080.457031 C 343.777344 1081.429688 342.371094 1082.476562 341.015625 1083.589844 C 339.660156 1084.703125 338.359375 1085.878906 337.121094 1087.117188 C 335.878906 1088.359375 334.703125 1089.660156 333.589844 1091.015625 C 332.476562 1092.371094 331.433594 1093.777344 330.457031 1095.238281 C 329.480469 1096.695312 328.582031 1098.199219 327.753906 1099.746094 C 326.925781 1101.292969 326.179688 1102.878906 325.507812 1104.5 C 324.835938 1106.121094 324.246094 1107.769531 323.734375 1109.449219 C 323.226562 1111.128906 322.800781 1112.828125 322.457031 1114.546875 C 322.117188 1116.269531 321.859375 1118.003906 321.6875 1119.75 C 321.515625 1121.496094 321.429688 1123.246094 321.429688 1125 C 321.429688 1126.753906 321.515625 1128.503906 321.6875 1130.25 C 321.859375 1131.996094 322.117188 1133.730469 322.457031 1135.449219 C 322.800781 1137.171875 323.226562 1138.871094 323.734375 1140.550781 C 324.246094 1142.230469 324.835938 1143.878906 325.507812 1145.5 C 326.179688 1147.121094 326.925781 1148.707031 327.753906 1150.253906 C 328.582031 1151.800781 329.480469 1153.304688 330.457031 1154.761719 C 331.433594 1156.222656 332.476562 1157.628906 333.589844 1158.984375 C 334.703125 1160.339844 335.878906 1161.640625 337.121094 1162.878906 C 338.359375 1164.121094 339.660156 1165.296875 341.015625 1166.410156 C 342.371094 1167.523438 343.777344 1168.566406 345.238281 1169.542969 C 346.695312 1170.515625 348.199219 1171.417969 349.746094 1172.246094 C 351.292969 1173.074219 352.878906 1173.820312 354.5 1174.492188 C 356.121094 1175.164062 357.769531 1175.753906 359.449219 1176.265625 C 361.128906 1176.773438 362.828125 1177.199219 364.546875 1177.542969 C 366.269531 1177.882812 368.003906 1178.140625 369.75 1178.3125 C 371.496094 1178.484375 373.246094 1178.570312 375 1178.570312 L 375 1339.285156 C 375 1341.039062 375.085938 1342.789062 375.257812 1344.535156 C 375.429688 1346.28125 375.6875 1348.015625 376.03125 1349.738281 C 376.371094 1351.457031 376.796875 1353.15625 377.308594 1354.835938 C 377.816406 1356.515625 378.40625 1358.164062 379.078125 1359.785156 C 379.75 1361.40625 380.5 1362.992188 381.324219 1364.539062 C 382.152344 1366.085938 383.054688 1367.589844 384.027344 1369.046875 C 385.003906 1370.507812 386.046875 1371.914062 387.160156 1373.269531 C 388.273438 1374.628906 389.449219 1375.925781 390.691406 1377.167969 C 391.929688 1378.40625 393.230469 1379.582031 394.585938 1380.695312 C 395.941406 1381.808594 397.351562 1382.855469 398.808594 1383.828125 C 400.265625 1384.804688 401.769531 1385.703125 403.316406 1386.53125 C 404.867188 1387.359375 406.449219 1388.109375 408.070312 1388.777344 C 409.691406 1389.449219 411.339844 1390.039062 413.019531 1390.550781 C 414.699219 1391.058594 416.398438 1391.484375 418.121094 1391.828125 C 419.839844 1392.167969 421.574219 1392.425781 423.320312 1392.597656 C 425.066406 1392.769531 426.816406 1392.855469 428.570312 1392.855469 C 430.324219 1392.855469 432.078125 1392.769531 433.824219 1392.597656 C 435.570312 1392.425781 437.300781 1392.167969 439.023438 1391.828125 C 440.742188 1391.484375 442.445312 1391.058594 444.121094 1390.550781 C 445.800781 1390.039062 447.453125 1389.449219 449.074219 1388.777344 C 450.691406 1388.109375 452.277344 1387.359375 453.824219 1386.53125 C 455.371094 1385.703125 456.875 1384.804688 458.335938 1383.828125 C 459.792969 1382.855469 461.199219 1381.808594 462.558594 1380.695312 C 463.914062 1379.582031 465.210938 1378.40625 466.453125 1377.167969 C 467.691406 1375.925781 468.871094 1374.628906 469.984375 1373.269531 C 471.097656 1371.914062 472.140625 1370.507812 473.113281 1369.046875 C 474.089844 1367.589844 474.988281 1366.085938 475.816406 1364.539062 C 476.644531 1362.992188 477.394531 1361.40625 478.066406 1359.785156 C 478.738281 1358.164062 479.328125 1356.515625 479.835938 1354.835938 C 480.34375 1353.15625 480.769531 1351.457031 481.113281 1349.738281 C 481.457031 1348.015625 481.710938 1346.28125 481.886719 1344.535156 C 482.058594 1342.789062 482.144531 1341.039062 482.144531 1339.285156 L 482.144531 1178.570312 L 1017.855469 1178.570312 L 1017.855469 1339.285156 C 1017.855469 1341.039062 1017.941406 1342.789062 1018.113281 1344.535156 C 1018.285156 1346.28125 1018.542969 1348.015625 1018.886719 1349.738281 C 1019.230469 1351.457031 1019.65625 1353.15625 1020.164062 1354.835938 C 1020.671875 1356.515625 1021.261719 1358.164062 1021.933594 1359.785156 C 1022.605469 1361.40625 1023.355469 1362.992188 1024.183594 1364.539062 C 1025.011719 1366.085938 1025.910156 1367.589844 1026.886719 1369.046875 C 1027.859375 1370.507812 1028.902344 1371.914062 1030.015625 1373.269531 C 1031.128906 1374.628906 1032.308594 1375.925781 1033.546875 1377.167969 C 1034.789062 1378.40625 1036.085938 1379.582031 1037.441406 1380.695312 C 1038.800781 1381.808594 1040.207031 1382.855469 1041.664062 1383.828125 C 1043.125 1384.804688 1044.628906 1385.703125 1046.175781 1386.53125 C 1047.722656 1387.359375 1049.304688 1388.109375 1050.925781 1388.777344 C 1052.546875 1389.449219 1054.199219 1390.039062 1055.878906 1390.550781 C 1057.554688 1391.058594 1059.257812 1391.484375 1060.976562 1391.828125 C 1062.699219 1392.167969 1064.429688 1392.425781 1066.175781 1392.597656 C 1067.921875 1392.769531 1069.675781 1392.855469 1071.429688 1392.855469 C 1073.183594 1392.855469 1074.933594 1392.769531 1076.679688 1392.597656 C 1078.425781 1392.425781 1080.160156 1392.167969 1081.878906 1391.828125 C 1083.601562 1391.484375 1085.300781 1391.058594 1086.980469 1390.550781 C 1088.660156 1390.039062 1090.308594 1389.449219 1091.929688 1388.777344 C 1093.550781 1388.109375 1095.132812 1387.359375 1096.683594 1386.53125 C 1098.230469 1385.703125 1099.730469 1384.804688 1101.191406 1383.828125 C 1102.648438 1382.855469 1104.058594 1381.808594 1105.414062 1380.695312 C 1106.769531 1379.582031 1108.070312 1378.40625 1109.308594 1377.167969 C 1110.550781 1375.925781 1111.726562 1374.628906 1112.839844 1373.269531 C 1113.953125 1371.914062 1114.996094 1370.507812 1115.972656 1369.046875 C 1116.945312 1367.589844 1117.847656 1366.085938 1118.675781 1364.539062 C 1119.5 1362.992188 1120.25 1361.40625 1120.921875 1359.785156 C 1121.59375 1358.164062 1122.183594 1356.515625 1122.691406 1354.835938 C 1123.203125 1353.15625 1123.628906 1351.457031 1123.96875 1349.738281 C 1124.3125 1348.015625 1124.570312 1346.28125 1124.742188 1344.535156 C 1124.914062 1342.789062 1125 1341.039062 1125 1339.285156 L 1125 1178.570312 C 1126.753906 1178.570312 1128.503906 1178.484375 1130.25 1178.3125 C 1131.996094 1178.140625 1133.730469 1177.882812 1135.449219 1177.542969 C 1137.171875 1177.199219 1138.871094 1176.773438 1140.550781 1176.265625 C 1142.230469 1175.753906 1143.878906 1175.164062 1145.5 1174.492188 C 1147.121094 1173.820312 1148.707031 1173.074219 1150.253906 1172.246094 C 1151.800781 1171.417969 1153.304688 1170.519531 1154.761719 1169.542969 C 1156.222656 1168.566406 1157.628906 1167.523438 1158.984375 1166.410156 C 1160.339844 1165.296875 1161.640625 1164.121094 1162.878906 1162.878906 C 1164.121094 1161.640625 1165.296875 1160.339844 1166.410156 1158.984375 C 1167.523438 1157.628906 1168.566406 1156.222656 1169.542969 1154.761719 C 1170.519531 1153.304688 1171.417969 1151.800781 1172.246094 1150.253906 C 1173.074219 1148.707031 1173.820312 1147.121094 1174.492188 1145.5 C 1175.164062 1143.878906 1175.753906 1142.230469 1176.265625 1140.550781 C 1176.773438 1138.871094 1177.199219 1137.171875 1177.542969 1135.449219 C 1177.882812 1133.730469 1178.140625 1131.996094 1178.3125 1130.25 C 1178.484375 1128.503906 1178.570312 1126.753906 1178.570312 1125 C 1178.570312 1123.246094 1178.484375 1121.496094 1178.3125 1119.75 C 1178.140625 1118.003906 1177.882812 1116.269531 1177.542969 1114.546875 C 1177.199219 1112.828125 1176.773438 1111.128906 1176.265625 1109.449219 C 1175.753906 1107.769531 1175.164062 1106.121094 1174.492188 1104.5 C 1173.820312 1102.878906 1173.074219 1101.292969 1172.246094 1099.746094 C 1171.417969 1098.199219 1170.519531 1096.695312 1169.542969 1095.238281 C 1168.566406 1093.777344 1167.523438 1092.371094 1166.410156 1091.015625 C 1165.296875 1089.660156 1164.121094 1088.359375 1162.878906 1087.117188 C 1161.640625 1085.878906 1160.339844 1084.703125 1158.984375 1083.589844 C 1157.628906 1082.476562 1156.222656 1081.429688 1154.761719 1080.457031 C 1153.304688 1079.480469 1151.800781 1078.582031 1150.253906 1077.753906 C 1148.707031 1076.925781 1147.121094 1076.175781 1145.5 1075.507812 C 1143.878906 1074.835938 1142.230469 1074.246094 1140.550781 1073.734375 C 1138.871094 1073.226562 1137.171875 1072.800781 1135.449219 1072.457031 C 1133.730469 1072.117188 1131.996094 1071.859375 1130.25 1071.6875 C 1128.503906 1071.515625 1126.753906 1071.429688 1125 1071.429688 Z M 482.144531 803.570312 L 1017.855469 803.570312 L 1017.855469 910.714844 L 482.144531 910.714844 Z M 535.714844 1017.855469 L 964.285156 1017.855469 L 964.285156 1071.429688 L 535.714844 1071.429688 Z M 535.714844 1017.855469 " fill-opacity="1" fill-rule="nonzero"/></svg>