<svg xmlns="http://www.w3.org/2000/svg" xmlns:xlink="http://www.w3.org/1999/xlink" width="2000" zoomAndPan="magnify" viewBox="0 0 1500 1499.999933" height="2000" preserveAspectRatio="xMidYMid meet" version="1.0"><defs><clipPath id="66de151c26"><path d="M 0 2 L 1481.25 2 L 1481.25 1496 L 0 1496 Z M 0 2 " clip-rule="nonzero"/></clipPath></defs><g clip-path="url(#66de151c26)"><path fill="#000000" d="M 83.507812 471.441406 L 83.507812 1026.707031 C 83.507812 1125.691406 107.128906 1207.734375 152.265625 1270.726562 C 161.792969 1284.703125 172.507812 1297.695312 184.417969 1309.703125 C 196.324219 1321.714844 209.226562 1332.542969 223.121094 1342.1875 C 230.523438 1347.410156 238.101562 1352.359375 245.863281 1357.03125 C 253.625 1361.703125 261.546875 1366.089844 269.625 1370.1875 C 277.703125 1374.285156 285.921875 1378.085938 294.277344 1381.585938 C 302.632812 1385.085938 311.101562 1388.28125 319.691406 1391.167969 C 328.277344 1394.054688 336.957031 1396.628906 345.730469 1398.882812 C 354.503906 1401.140625 363.347656 1403.078125 372.261719 1404.691406 C 381.175781 1406.308594 390.136719 1407.597656 399.144531 1408.5625 C 408.152344 1409.527344 417.183594 1410.164062 426.238281 1410.472656 L 426.238281 88.207031 C 211.046875 101.96875 83.507812 243.300781 83.507812 471.441406 Z M 1328.984375 227.421875 C 1319.363281 213.4375 1308.554688 200.4375 1296.558594 188.429688 C 1284.5625 176.421875 1271.578125 165.597656 1257.601562 155.960938 C 1195.671875 109.90625 1113.796875 86.089844 1016.171875 86.089844 L 524.910156 86.089844 L 524.910156 1412.058594 L 1016.171875 1412.058594 C 1254.980469 1412.058594 1397.742188 1268.078125 1397.742188 1026.707031 L 1397.742188 471.441406 C 1397.742188 372.457031 1374.121094 290.414062 1328.984375 227.421875 Z M 970.507812 883.789062 C 971.660156 884.929688 972.753906 886.125 973.785156 887.371094 C 974.816406 888.621094 975.785156 889.917969 976.691406 891.261719 C 977.597656 892.605469 978.433594 893.992188 979.199219 895.417969 C 979.96875 896.84375 980.664062 898.304688 981.289062 899.800781 C 981.910156 901.296875 982.460938 902.816406 982.933594 904.367188 C 983.40625 905.917969 983.800781 907.488281 984.117188 909.074219 C 984.4375 910.664062 984.675781 912.265625 984.835938 913.875 C 984.996094 915.488281 985.074219 917.105469 985.074219 918.726562 C 985.074219 920.34375 984.996094 921.960938 984.835938 923.574219 C 984.675781 925.1875 984.4375 926.785156 984.117188 928.375 C 983.800781 929.964844 983.40625 931.535156 982.933594 933.082031 C 982.460938 934.632812 981.910156 936.15625 981.289062 937.652344 C 980.664062 939.144531 979.96875 940.605469 979.199219 942.035156 C 978.433594 943.460938 977.597656 944.847656 976.691406 946.191406 C 975.785156 947.535156 974.816406 948.832031 973.785156 950.078125 C 972.753906 951.328125 971.660156 952.519531 970.507812 953.660156 C 968.273438 956.003906 965.824219 958.09375 963.164062 959.941406 C 960.503906 961.785156 957.683594 963.34375 954.707031 964.617188 C 951.730469 965.890625 948.65625 966.851562 945.484375 967.503906 C 942.3125 968.152344 939.105469 968.480469 935.871094 968.480469 C 932.628906 968.503906 929.417969 968.195312 926.242188 967.558594 C 923.0625 966.917969 919.984375 965.960938 917.003906 964.6875 C 914.023438 963.414062 911.203125 961.847656 908.546875 959.988281 C 905.890625 958.132812 903.449219 956.023438 901.230469 953.660156 L 732.75 784.277344 C 731.628906 783.109375 730.5625 781.886719 729.554688 780.617188 C 728.550781 779.34375 727.605469 778.027344 726.726562 776.667969 C 725.84375 775.304688 725.03125 773.90625 724.285156 772.464844 C 723.539062 771.027344 722.863281 769.554688 722.257812 768.050781 C 721.648438 766.546875 721.117188 765.015625 720.660156 763.460938 C 720.199219 761.90625 719.816406 760.332031 719.507812 758.738281 C 719.199219 757.148438 718.96875 755.542969 718.8125 753.929688 C 718.65625 752.316406 718.578125 750.699219 718.578125 749.078125 C 718.578125 747.453125 718.65625 745.835938 718.8125 744.222656 C 718.96875 742.609375 719.199219 741.003906 719.507812 739.414062 C 719.816406 737.820312 720.199219 736.246094 720.660156 734.691406 C 721.117188 733.136719 721.648438 731.609375 722.257812 730.101562 C 722.863281 728.597656 723.539062 727.128906 724.285156 725.6875 C 725.03125 724.25 725.84375 722.847656 726.726562 721.484375 C 727.605469 720.125 728.550781 718.808594 729.554688 717.535156 C 730.5625 716.265625 731.628906 715.046875 732.75 713.875 L 901.230469 544.488281 C 902.351562 543.328125 903.527344 542.230469 904.757812 541.1875 C 905.988281 540.148438 907.269531 539.171875 908.597656 538.257812 C 909.925781 537.347656 911.296875 536.503906 912.710938 535.730469 C 914.125 534.953125 915.574219 534.253906 917.058594 533.625 C 918.539062 532.996094 920.050781 532.441406 921.59375 531.964844 C 923.132812 531.484375 924.691406 531.085938 926.269531 530.765625 C 927.851562 530.445312 929.441406 530.203125 931.046875 530.042969 C 932.648438 529.878906 934.257812 529.800781 935.871094 529.800781 C 937.480469 529.800781 939.089844 529.878906 940.691406 530.042969 C 942.296875 530.203125 943.886719 530.445312 945.46875 530.765625 C 947.046875 531.085938 948.605469 531.484375 950.148438 531.964844 C 951.6875 532.441406 953.199219 532.996094 954.683594 533.625 C 956.164062 534.253906 957.613281 534.953125 959.027344 535.730469 C 960.441406 536.503906 961.8125 537.347656 963.140625 538.257812 C 964.472656 539.171875 965.75 540.148438 966.980469 541.1875 C 968.210938 542.230469 969.390625 543.328125 970.507812 544.488281 C 971.660156 545.628906 972.753906 546.820312 973.785156 548.070312 C 974.816406 549.316406 975.785156 550.613281 976.691406 551.957031 C 977.597656 553.300781 978.433594 554.6875 979.199219 556.113281 C 979.96875 557.542969 980.664062 559.003906 981.285156 560.496094 C 981.910156 561.992188 982.457031 563.515625 982.933594 565.066406 C 983.40625 566.613281 983.800781 568.183594 984.117188 569.773438 C 984.4375 571.363281 984.675781 572.960938 984.835938 574.574219 C 984.996094 576.1875 985.074219 577.804688 985.074219 579.421875 C 985.074219 581.042969 984.996094 582.660156 984.835938 584.273438 C 984.675781 585.882812 984.4375 587.484375 984.117188 589.074219 C 983.800781 590.660156 983.40625 592.230469 982.933594 593.78125 C 982.457031 595.332031 981.910156 596.851562 981.285156 598.347656 C 980.664062 599.84375 979.96875 601.304688 979.199219 602.730469 C 978.433594 604.15625 977.597656 605.542969 976.691406 606.886719 C 975.785156 608.230469 974.816406 609.527344 973.785156 610.777344 C 972.753906 612.023438 971.660156 613.21875 970.507812 614.359375 L 837.722656 748.808594 Z M 0.0585938 1026.707031 L 0.0585938 471.441406 C 0.0585938 336.464844 39.421875 224.777344 112.375 143.789062 C 184.808594 62.800781 287.675781 14.632812 415.21875 5.101562 C 418.867188 4.488281 422.539062 4.136719 426.238281 4.046875 C 430.535156 4.0625 434.804688 4.402344 439.050781 5.066406 C 443.292969 5.734375 447.464844 6.71875 451.558594 8.019531 C 455.652344 9.320312 459.625 10.925781 463.476562 12.832031 C 467.324219 14.742188 471.007812 16.929688 474.527344 19.398438 C 478.117188 16.65625 481.910156 14.222656 485.902344 12.105469 C 489.894531 9.984375 494.035156 8.203125 498.320312 6.765625 C 502.601562 5.324219 506.976562 4.242188 511.4375 3.519531 C 515.898438 2.796875 520.390625 2.445312 524.910156 2.457031 L 1016.171875 2.457031 C 1042.59375 2.226562 1068.902344 3.835938 1095.097656 7.292969 C 1121.296875 10.75 1147.121094 16.019531 1172.578125 23.097656 C 1196.625 29.800781 1219.890625 38.574219 1242.375 49.421875 C 1264.859375 60.269531 1286.207031 73.023438 1306.414062 87.675781 L 1306.414062 88.207031 C 1323.53125 100.007812 1339.453125 113.246094 1354.183594 127.921875 C 1368.910156 142.597656 1382.203125 158.472656 1394.066406 175.550781 L 1396.164062 178.195312 C 1410.65625 198.707031 1423.320312 220.292969 1434.15625 242.953125 C 1444.992188 265.609375 1453.847656 289.015625 1460.722656 313.171875 C 1467.746094 338.957031 1472.972656 365.101562 1476.398438 391.601562 C 1479.828125 418.105469 1481.425781 444.71875 1481.191406 471.441406 L 1481.191406 1026.707031 C 1481.191406 1170.6875 1437.105469 1287.136719 1355.75 1369.183594 C 1274.398438 1451.226562 1158.40625 1495.691406 1016.171875 1495.691406 L 524.910156 1495.691406 C 520.390625 1495.683594 515.90625 1495.316406 511.445312 1494.582031 C 506.988281 1493.851562 502.621094 1492.765625 498.339844 1491.324219 C 494.054688 1489.886719 489.917969 1488.109375 485.921875 1486 C 481.929688 1483.894531 478.128906 1481.476562 474.523438 1478.753906 C 470.699219 1481.589844 466.660156 1484.074219 462.398438 1486.203125 C 458.140625 1488.332031 453.726562 1490.074219 449.160156 1491.425781 C 444.597656 1492.78125 439.949219 1493.726562 435.214844 1494.265625 C 430.484375 1494.804688 425.742188 1494.925781 420.988281 1494.632812 C 398.496094 1493.210938 376.183594 1490.375 354.050781 1486.125 C 331.921875 1481.875 310.144531 1476.242188 288.726562 1469.226562 C 268.269531 1462.296875 248.449219 1453.863281 229.269531 1443.925781 C 210.089844 1433.988281 191.769531 1422.660156 174.308594 1409.941406 C 158.710938 1399.25 144.1875 1387.25 130.746094 1373.945312 C 129.113281 1372.226562 127.367188 1370.640625 125.496094 1369.183594 C 111.34375 1354.792969 98.574219 1339.265625 87.183594 1322.605469 L 85.085938 1319.957031 C 70.390625 1299.5625 57.617188 1278.027344 46.773438 1255.351562 C 35.929688 1232.675781 27.179688 1209.214844 20.527344 1184.976562 C 13.503906 1159.191406 8.277344 1133.046875 4.851562 1106.546875 C 1.421875 1080.042969 -0.175781 1053.429688 0.0585938 1026.707031 Z M 0.0585938 1026.707031 " fill-opacity="1" fill-rule="evenodd"/></g></svg>