<svg xmlns="http://www.w3.org/2000/svg" xmlns:xlink="http://www.w3.org/1999/xlink" width="2000" zoomAndPan="magnify" viewBox="0 0 1500 1499.999933" height="2000" preserveAspectRatio="xMidYMid meet" version="1.0"><path fill="#00c2cb" d="M 1500 750 C 1500 762.273438 1499.699219 774.542969 1499.097656 786.800781 C 1498.496094 799.058594 1497.589844 811.296875 1496.386719 823.511719 C 1495.183594 835.726562 1493.683594 847.90625 1491.882812 860.046875 C 1490.082031 872.1875 1487.984375 884.277344 1485.589844 896.316406 C 1483.195312 908.355469 1480.503906 920.328125 1477.523438 932.234375 C 1474.539062 944.140625 1471.269531 955.96875 1467.707031 967.714844 C 1464.140625 979.460938 1460.292969 991.109375 1456.15625 1002.667969 C 1452.023438 1014.222656 1447.605469 1025.671875 1442.910156 1037.011719 C 1438.210938 1048.351562 1433.238281 1059.570312 1427.992188 1070.667969 C 1422.742188 1081.761719 1417.226562 1092.722656 1411.441406 1103.546875 C 1405.65625 1114.371094 1399.605469 1125.046875 1393.296875 1135.578125 C 1386.984375 1146.105469 1380.421875 1156.472656 1373.601562 1166.675781 C 1366.78125 1176.882812 1359.71875 1186.914062 1352.40625 1196.773438 C 1345.09375 1206.632812 1337.542969 1216.304688 1329.757812 1225.792969 C 1321.972656 1235.28125 1313.957031 1244.574219 1305.714844 1253.667969 C 1297.46875 1262.761719 1289.007812 1271.652344 1280.328125 1280.328125 C 1271.652344 1289.007812 1262.765625 1297.46875 1253.667969 1305.714844 C 1244.574219 1313.957031 1235.28125 1321.972656 1225.792969 1329.757812 C 1216.304688 1337.542969 1206.632812 1345.09375 1196.773438 1352.40625 C 1186.914062 1359.71875 1176.882812 1366.78125 1166.675781 1373.601562 C 1156.472656 1380.421875 1146.105469 1386.984375 1135.578125 1393.296875 C 1125.046875 1399.605469 1114.371094 1405.65625 1103.546875 1411.441406 C 1092.722656 1417.226562 1081.761719 1422.742188 1070.667969 1427.992188 C 1059.570312 1433.238281 1048.351562 1438.210938 1037.011719 1442.910156 C 1025.671875 1447.605469 1014.222656 1452.023438 1002.667969 1456.15625 C 991.109375 1460.292969 979.460938 1464.140625 967.714844 1467.703125 C 955.96875 1471.269531 944.140625 1474.539062 932.234375 1477.523438 C 920.328125 1480.503906 908.355469 1483.195312 896.316406 1485.589844 C 884.277344 1487.984375 872.1875 1490.082031 860.046875 1491.882812 C 847.90625 1493.683594 835.726562 1495.183594 823.511719 1496.386719 C 811.296875 1497.589844 799.058594 1498.496094 786.800781 1499.097656 C 774.542969 1499.699219 762.273438 1500 750 1500 C 737.726562 1500 725.457031 1499.699219 713.199219 1499.097656 C 700.941406 1498.496094 688.703125 1497.589844 676.488281 1496.386719 C 664.273438 1495.183594 652.09375 1493.683594 639.953125 1491.882812 C 627.808594 1490.082031 615.71875 1487.984375 603.683594 1485.589844 C 591.644531 1483.195312 579.671875 1480.503906 567.765625 1477.523438 C 555.859375 1474.539062 544.03125 1471.269531 532.285156 1467.707031 C 520.539062 1464.140625 508.890625 1460.292969 497.332031 1456.15625 C 485.777344 1452.023438 474.328125 1447.605469 462.988281 1442.910156 C 451.648438 1438.210938 440.429688 1433.238281 429.332031 1427.992188 C 418.238281 1422.742188 407.277344 1417.226562 396.453125 1411.441406 C 385.628906 1405.65625 374.949219 1399.605469 364.421875 1393.296875 C 353.894531 1386.984375 343.527344 1380.421875 333.324219 1373.601562 C 323.117188 1366.78125 313.085938 1359.71875 303.226562 1352.40625 C 293.367188 1345.09375 283.691406 1337.542969 274.203125 1329.757812 C 264.71875 1321.972656 255.425781 1313.957031 246.332031 1305.714844 C 237.234375 1297.46875 228.347656 1289.007812 219.667969 1280.328125 C 210.992188 1271.652344 202.53125 1262.761719 194.285156 1253.667969 C 186.042969 1244.574219 178.027344 1235.28125 170.242188 1225.792969 C 162.457031 1216.304688 154.90625 1206.632812 147.59375 1196.773438 C 140.28125 1186.914062 133.21875 1176.882812 126.398438 1166.675781 C 119.578125 1156.472656 113.015625 1146.105469 106.703125 1135.578125 C 100.394531 1125.046875 94.34375 1114.371094 88.558594 1103.546875 C 82.773438 1092.722656 77.257812 1081.761719 72.007812 1070.667969 C 66.761719 1059.570312 61.789062 1048.351562 57.089844 1037.011719 C 52.394531 1025.671875 47.976562 1014.222656 43.84375 1002.667969 C 39.707031 991.109375 35.859375 979.460938 32.292969 967.714844 C 28.730469 955.96875 25.460938 944.140625 22.476562 932.234375 C 19.496094 920.328125 16.804688 908.355469 14.410156 896.316406 C 12.015625 884.277344 9.917969 872.1875 8.117188 860.046875 C 6.316406 847.90625 4.816406 835.726562 3.613281 823.511719 C 2.410156 811.296875 1.503906 799.058594 0.902344 786.800781 C 0.300781 774.542969 0 762.273438 0 750 C 0 737.726562 0.300781 725.457031 0.902344 713.199219 C 1.503906 700.941406 2.410156 688.703125 3.613281 676.488281 C 4.816406 664.273438 6.316406 652.09375 8.117188 639.953125 C 9.917969 627.808594 12.015625 615.71875 14.410156 603.683594 C 16.804688 591.644531 19.496094 579.671875 22.476562 567.765625 C 25.460938 555.859375 28.730469 544.03125 32.292969 532.285156 C 35.859375 520.539062 39.707031 508.890625 43.84375 497.332031 C 47.976562 485.777344 52.394531 474.328125 57.089844 462.988281 C 61.789062 451.648438 66.761719 440.429688 72.007812 429.332031 C 77.257812 418.238281 82.773438 407.277344 88.558594 396.453125 C 94.34375 385.628906 100.394531 374.949219 106.703125 364.421875 C 113.015625 353.894531 119.578125 343.527344 126.398438 333.320312 C 133.21875 323.117188 140.28125 313.085938 147.59375 303.226562 C 154.90625 293.367188 162.457031 283.691406 170.242188 274.203125 C 178.027344 264.714844 186.042969 255.425781 194.285156 246.332031 C 202.53125 237.234375 210.992188 228.347656 219.667969 219.667969 C 228.347656 210.992188 237.234375 202.53125 246.332031 194.285156 C 255.425781 186.042969 264.71875 178.027344 274.203125 170.242188 C 283.691406 162.457031 293.367188 154.90625 303.226562 147.59375 C 313.085938 140.28125 323.117188 133.21875 333.324219 126.398438 C 343.527344 119.578125 353.894531 113.015625 364.421875 106.703125 C 374.949219 100.394531 385.628906 94.34375 396.453125 88.558594 C 407.277344 82.773438 418.238281 77.257812 429.332031 72.007812 C 440.429688 66.761719 451.648438 61.789062 462.988281 57.089844 C 474.328125 52.394531 485.777344 47.976562 497.332031 43.84375 C 508.890625 39.707031 520.539062 35.859375 532.285156 32.292969 C 544.03125 28.730469 555.859375 25.457031 567.765625 22.476562 C 579.671875 19.492188 591.644531 16.804688 603.683594 14.410156 C 615.71875 12.015625 627.8125 9.917969 639.953125 8.117188 C 652.09375 6.316406 664.273438 4.816406 676.488281 3.613281 C 688.703125 2.410156 700.941406 1.503906 713.199219 0.902344 C 725.457031 0.300781 737.726562 0 750 0 C 762.273438 0 774.542969 0.300781 786.800781 0.902344 C 799.058594 1.503906 811.296875 2.410156 823.511719 3.613281 C 835.726562 4.816406 847.90625 6.316406 860.046875 8.117188 C 872.1875 9.917969 884.277344 12.015625 896.316406 14.410156 C 908.355469 16.804688 920.328125 19.492188 932.234375 22.476562 C 944.140625 25.457031 955.96875 28.730469 967.714844 32.292969 C 979.460938 35.859375 991.109375 39.707031 1002.667969 43.84375 C 1014.222656 47.976562 1025.671875 52.394531 1037.011719 57.089844 C 1048.351562 61.789062 1059.570312 66.761719 1070.667969 72.007812 C 1081.761719 77.257812 1092.722656 82.773438 1103.546875 88.558594 C 1114.371094 94.34375 1125.046875 100.394531 1135.578125 106.703125 C 1146.105469 113.015625 1156.472656 119.578125 1166.675781 126.398438 C 1176.882812 133.21875 1186.914062 140.28125 1196.773438 147.59375 C 1206.632812 154.90625 1216.304688 162.457031 1225.792969 170.242188 C 1235.28125 178.027344 1244.574219 186.042969 1253.667969 194.285156 C 1262.765625 202.53125 1271.652344 210.992188 1280.328125 219.667969 C 1289.007812 228.347656 1297.46875 237.234375 1305.714844 246.332031 C 1313.957031 255.425781 1321.972656 264.714844 1329.757812 274.203125 C 1337.542969 283.691406 1345.09375 293.367188 1352.40625 303.226562 C 1359.71875 313.085938 1366.78125 323.117188 1373.601562 333.320312 C 1380.421875 343.527344 1386.984375 353.894531 1393.296875 364.421875 C 1399.605469 374.949219 1405.65625 385.628906 1411.441406 396.453125 C 1417.226562 407.277344 1422.742188 418.238281 1427.992188 429.332031 C 1433.238281 440.429688 1438.210938 451.648438 1442.910156 462.988281 C 1447.605469 474.328125 1452.023438 485.777344 1456.15625 497.332031 C 1460.292969 508.890625 1464.140625 520.539062 1467.707031 532.285156 C 1471.269531 544.03125 1474.539062 555.859375 1477.523438 567.765625 C 1480.503906 579.671875 1483.195312 591.644531 1485.589844 603.683594 C 1487.984375 615.71875 1490.082031 627.8125 1491.882812 639.953125 C 1493.683594 652.09375 1495.183594 664.273438 1496.386719 676.488281 C 1497.589844 688.703125 1498.496094 700.941406 1499.097656 713.199219 C 1499.699219 725.457031 1500 737.726562 1500 750 Z M 1500 750 " fill-opacity="1" fill-rule="nonzero"/><path fill="#ffffff" d="M 1200.855469 645 L 299.257812 645 C 292.65625 645 287.257812 639.601562 287.257812 633 L 287.257812 545.199219 C 287.257812 538.601562 292.65625 533.199219 299.257812 533.199219 L 1201.054688 533.199219 C 1207.65625 533.199219 1213.054688 538.601562 1213.054688 545.199219 L 1213.054688 633 C 1212.855469 639.601562 1207.65625 645 1200.855469 645 Z M 311.257812 621 L 1189.054688 621 L 1189.054688 557.199219 L 311.257812 557.199219 Z M 311.257812 621 " fill-opacity="1" fill-rule="nonzero"/><path fill="#ffffff" d="M 1200.855469 557.199219 L 299.257812 557.199219 C 292.65625 557.199219 287.257812 551.800781 287.257812 545.199219 L 287.257812 436 C 287.257812 429.398438 292.65625 424 299.257812 424 L 1201.054688 424 C 1207.65625 424 1213.054688 429.398438 1213.054688 436 L 1213.054688 545.199219 C 1212.855469 551.800781 1207.65625 557.199219 1200.855469 557.199219 Z M 311.257812 533.199219 L 1189.054688 533.199219 L 1189.054688 448 L 311.257812 448 Z M 311.257812 533.199219 " fill-opacity="1" fill-rule="nonzero"/><path fill="#ffffff" d="M 365.054688 550.398438 C 358.457031 550.398438 353.054688 545 353.054688 538.398438 L 353.054688 436 C 353.054688 429.398438 358.457031 424 365.054688 424 C 371.65625 424 377.054688 429.398438 377.054688 436 L 377.054688 538.398438 C 377.054688 545 371.65625 550.398438 365.054688 550.398438 Z M 365.054688 550.398438 " fill-opacity="1" fill-rule="nonzero"/><path fill="#ffffff" d="M 429.257812 550.398438 C 422.65625 550.398438 417.257812 545 417.257812 538.398438 L 417.257812 436 C 417.257812 429.398438 422.65625 424 429.257812 424 C 435.855469 424 441.257812 429.398438 441.257812 436 L 441.257812 538.398438 C 441.257812 545 435.855469 550.398438 429.257812 550.398438 Z M 429.257812 550.398438 " fill-opacity="1" fill-rule="nonzero"/><path fill="#ffffff" d="M 493.457031 550.398438 C 486.855469 550.398438 481.457031 545 481.457031 538.398438 L 481.457031 436 C 481.457031 429.398438 486.855469 424 493.457031 424 C 500.054688 424 505.457031 429.398438 505.457031 436 L 505.457031 538.398438 C 505.457031 545 500.054688 550.398438 493.457031 550.398438 Z M 493.457031 550.398438 " fill-opacity="1" fill-rule="nonzero"/><path fill="#ffffff" d="M 557.457031 550.398438 C 550.855469 550.398438 545.457031 545 545.457031 538.398438 L 545.457031 436 C 545.457031 429.398438 550.855469 424 557.457031 424 C 564.054688 424 569.457031 429.398438 569.457031 436 L 569.457031 538.398438 C 569.457031 545 564.257812 550.398438 557.457031 550.398438 Z M 557.457031 550.398438 " fill-opacity="1" fill-rule="nonzero"/><path fill="#ffffff" d="M 621.65625 550.398438 C 615.054688 550.398438 609.65625 545 609.65625 538.398438 L 609.65625 436 C 609.65625 429.398438 615.054688 424 621.65625 424 C 628.257812 424 633.65625 429.398438 633.65625 436 L 633.65625 538.398438 C 633.65625 545 628.257812 550.398438 621.65625 550.398438 Z M 621.65625 550.398438 " fill-opacity="1" fill-rule="nonzero"/><path fill="#ffffff" d="M 685.855469 550.398438 C 679.257812 550.398438 673.855469 545 673.855469 538.398438 L 673.855469 436 C 673.855469 429.398438 679.257812 424 685.855469 424 C 692.457031 424 697.855469 429.398438 697.855469 436 L 697.855469 538.398438 C 697.855469 545 692.457031 550.398438 685.855469 550.398438 Z M 685.855469 550.398438 " fill-opacity="1" fill-rule="nonzero"/><path fill="#ffffff" d="M 750.054688 550.398438 C 743.457031 550.398438 738.054688 545 738.054688 538.398438 L 738.054688 436 C 738.054688 429.398438 743.457031 424 750.054688 424 C 756.65625 424 762.054688 429.398438 762.054688 436 L 762.054688 538.398438 C 762.054688 545 756.65625 550.398438 750.054688 550.398438 Z M 750.054688 550.398438 " fill-opacity="1" fill-rule="nonzero"/><path fill="#ffffff" d="M 814.257812 550.398438 C 807.65625 550.398438 802.257812 545 802.257812 538.398438 L 802.257812 436 C 802.257812 429.398438 807.65625 424 814.257812 424 C 820.855469 424 826.257812 429.398438 826.257812 436 L 826.257812 538.398438 C 826.257812 545 820.855469 550.398438 814.257812 550.398438 Z M 814.257812 550.398438 " fill-opacity="1" fill-rule="nonzero"/><path fill="#ffffff" d="M 878.457031 550.398438 C 871.855469 550.398438 866.457031 545 866.457031 538.398438 L 866.457031 436 C 866.457031 429.398438 871.855469 424 878.457031 424 C 885.054688 424 890.457031 429.398438 890.457031 436 L 890.457031 538.398438 C 890.457031 545 885.054688 550.398438 878.457031 550.398438 Z M 878.457031 550.398438 " fill-opacity="1" fill-rule="nonzero"/><path fill="#ffffff" d="M 942.65625 550.398438 C 936.054688 550.398438 930.65625 545 930.65625 538.398438 L 930.65625 436 C 930.65625 429.398438 936.054688 424 942.65625 424 C 949.257812 424 954.65625 429.398438 954.65625 436 L 954.65625 538.398438 C 954.65625 545 949.257812 550.398438 942.65625 550.398438 Z M 942.65625 550.398438 " fill-opacity="1" fill-rule="nonzero"/><path fill="#ffffff" d="M 1006.65625 550.398438 C 1000.054688 550.398438 994.65625 545 994.65625 538.398438 L 994.65625 436 C 994.65625 429.398438 1000.054688 424 1006.65625 424 C 1013.257812 424 1018.65625 429.398438 1018.65625 436 L 1018.65625 538.398438 C 1018.65625 545 1013.457031 550.398438 1006.65625 550.398438 Z M 1006.65625 550.398438 " fill-opacity="1" fill-rule="nonzero"/><path fill="#ffffff" d="M 1070.855469 550.398438 C 1064.257812 550.398438 1058.855469 545 1058.855469 538.398438 L 1058.855469 436 C 1058.855469 429.398438 1064.257812 424 1070.855469 424 C 1077.457031 424 1082.855469 429.398438 1082.855469 436 L 1082.855469 538.398438 C 1082.855469 545 1077.457031 550.398438 1070.855469 550.398438 Z M 1070.855469 550.398438 " fill-opacity="1" fill-rule="nonzero"/><path fill="#ffffff" d="M 1135.054688 550.398438 C 1128.457031 550.398438 1123.054688 545 1123.054688 538.398438 L 1123.054688 436 C 1123.054688 429.398438 1128.457031 424 1135.054688 424 C 1141.65625 424 1147.054688 429.398438 1147.054688 436 L 1147.054688 538.398438 C 1147.054688 545 1141.65625 550.398438 1135.054688 550.398438 Z M 1135.054688 550.398438 " fill-opacity="1" fill-rule="nonzero"/><path fill="#ffffff" d="M 1135.054688 715.800781 L 1047.855469 715.800781 C 1044.054688 715.800781 1040.257812 714 1038.054688 710.800781 L 987.457031 639.800781 C 984.855469 636.199219 984.457031 631.398438 986.457031 627.398438 C 988.457031 623.398438 992.65625 620.800781 997.054688 620.800781 L 1135.054688 620.800781 C 1141.65625 620.800781 1147.054688 626.199219 1147.054688 632.800781 L 1147.054688 703.800781 C 1147.054688 710.398438 1141.65625 715.800781 1135.054688 715.800781 Z M 1054.054688 691.800781 L 1123.054688 691.800781 L 1123.054688 644.800781 L 1020.457031 644.800781 Z M 1054.054688 691.800781 " fill-opacity="1" fill-rule="nonzero"/><path fill="#ffffff" d="M 1110.855469 1028.800781 L 1066.054688 1028.800781 C 1059.457031 1028.800781 1054.054688 1023.398438 1054.054688 1016.800781 L 1054.054688 703.800781 C 1054.054688 697.199219 1059.457031 691.800781 1066.054688 691.800781 L 1110.855469 691.800781 C 1117.457031 691.800781 1122.855469 697.199219 1122.855469 703.800781 L 1122.855469 1016.800781 C 1122.855469 1023.398438 1117.457031 1028.800781 1110.855469 1028.800781 Z M 1078.054688 1004.800781 L 1098.855469 1004.800781 L 1098.855469 715.800781 L 1078.054688 715.800781 Z M 1078.054688 1004.800781 " fill-opacity="1" fill-rule="nonzero"/><path fill="#ffffff" d="M 1135.054688 1076 L 1041.855469 1076 C 1035.257812 1076 1029.855469 1070.601562 1029.855469 1064 L 1029.855469 1016.800781 C 1029.855469 1010.199219 1035.257812 1004.800781 1041.855469 1004.800781 L 1135.054688 1004.800781 C 1141.65625 1004.800781 1147.054688 1010.199219 1147.054688 1016.800781 L 1147.054688 1064 C 1147.054688 1070.800781 1141.65625 1076 1135.054688 1076 Z M 1053.855469 1052 L 1123.054688 1052 L 1123.054688 1028.800781 L 1053.855469 1028.800781 Z M 1053.855469 1052 " fill-opacity="1" fill-rule="nonzero"/><path fill="#ffffff" d="M 452.257812 715.800781 L 365.054688 715.800781 C 358.457031 715.800781 353.054688 710.398438 353.054688 703.800781 L 353.054688 632.800781 C 353.054688 626.199219 358.457031 620.800781 365.054688 620.800781 L 503.054688 620.800781 C 507.457031 620.800781 511.65625 623.398438 513.65625 627.398438 C 515.65625 631.398438 515.457031 636.199219 512.65625 639.800781 L 462.054688 710.800781 C 459.855469 714 456.257812 715.800781 452.257812 715.800781 Z M 377.054688 691.800781 L 446.054688 691.800781 L 479.65625 644.800781 L 377.054688 644.800781 Z M 377.054688 691.800781 " fill-opacity="1" fill-rule="nonzero"/><path fill="#ffffff" d="M 434.054688 1028.800781 L 389.257812 1028.800781 C 382.65625 1028.800781 377.257812 1023.398438 377.257812 1016.800781 L 377.257812 703.800781 C 377.257812 697.199219 382.65625 691.800781 389.257812 691.800781 L 434.054688 691.800781 C 440.65625 691.800781 446.054688 697.199219 446.054688 703.800781 L 446.054688 1016.800781 C 446.054688 1023.398438 440.65625 1028.800781 434.054688 1028.800781 Z M 401.257812 1004.800781 L 422.054688 1004.800781 L 422.054688 715.800781 L 401.257812 715.800781 Z M 401.257812 1004.800781 " fill-opacity="1" fill-rule="nonzero"/><path fill="#ffffff" d="M 458.257812 1076 L 365.054688 1076 C 358.457031 1076 353.054688 1070.601562 353.054688 1064 L 353.054688 1016.800781 C 353.054688 1010.199219 358.457031 1004.800781 365.054688 1004.800781 L 458.257812 1004.800781 C 464.855469 1004.800781 470.257812 1010.199219 470.257812 1016.800781 L 470.257812 1064 C 470.257812 1070.800781 464.855469 1076 458.257812 1076 Z M 377.054688 1052 L 446.257812 1052 L 446.257812 1028.800781 L 377.054688 1028.800781 Z M 377.054688 1052 " fill-opacity="1" fill-rule="nonzero"/></svg>