<svg xmlns="http://www.w3.org/2000/svg" xmlns:xlink="http://www.w3.org/1999/xlink" width="2000" zoomAndPan="magnify" viewBox="0 0 1500 1499.999933" height="2000" preserveAspectRatio="xMidYMid meet" version="1.0"><path fill="#000000" d="M 750 625 C 681.078125 625 625 681.0625 625 750 C 625 818.9375 681.078125 875 750 875 C 818.90625 875 875 818.9375 875 750 C 875 681.0625 818.90625 625 750 625 Z M 1371.828125 687.5 C 1342.4375 392.671875 1107.328125 157.59375 812.5 128.171875 L 812.5 0 L 687.5 0 L 687.5 128.171875 C 392.6875 157.59375 157.578125 392.671875 128.171875 687.5 L 0 687.5 L 0 812.5 L 128.171875 812.5 C 157.578125 1107.328125 392.6875 1342.40625 687.5 1371.828125 L 687.5 1500 L 812.5 1500 L 812.5 1371.828125 C 1107.328125 1342.40625 1342.4375 1107.328125 1371.828125 812.5 L 1500 812.5 L 1500 687.5 Z M 1245.671875 812.5 C 1217.3125 1038.203125 1038.203125 1217.3125 812.5 1245.671875 L 812.5 1093.75 L 687.5 1093.75 L 687.5 1245.671875 C 461.796875 1217.3125 282.6875 1038.203125 254.328125 812.5 L 406.25 812.5 L 406.25 687.5 L 254.328125 687.5 C 282.6875 461.796875 461.796875 282.6875 687.5 254.328125 L 687.5 406.25 L 812.5 406.25 L 812.5 254.328125 C 1038.203125 282.6875 1217.3125 461.796875 1245.671875 687.5 L 1093.75 687.5 L 1093.75 812.5 Z M 1245.671875 812.5 " fill-opacity="1" fill-rule="nonzero"/></svg>