<svg xmlns="http://www.w3.org/2000/svg" xmlns:xlink="http://www.w3.org/1999/xlink" width="2000" zoomAndPan="magnify" viewBox="0 0 1500 1499.999933" height="2000" preserveAspectRatio="xMidYMid meet" version="1.0"><defs><clipPath id="ad70a8b87b"><path d="M 11.25 0 L 1487 0 L 1487 1499 L 11.25 1499 Z M 11.25 0 " clip-rule="nonzero"/></clipPath></defs><g clip-path="url(#ad70a8b87b)"><path fill="#000000" d="M 1485.257812 936.957031 C 1402.144531 1259.960938 1108.972656 1498.644531 760.019531 1498.644531 C 346.4375 1498.644531 11.164062 1163.367188 11.164062 749.789062 C 11.164062 336.210938 346.4375 0.933594 760.019531 0.933594 C 769.796875 0.933594 779.527344 1.121094 789.214844 1.496094 C 802.808594 2.023438 813.992188 11.082031 817.335938 24.265625 C 820.683594 37.457031 815.152344 50.75 803.441406 57.683594 C 646.921875 150.386719 541.964844 320.949219 541.964844 516.054688 C 541.964844 810.09375 780.328125 1048.460938 1074.367188 1048.460938 C 1213.742188 1048.460938 1340.589844 994.890625 1435.480469 907.234375 C 1445.480469 897.996094 1459.816406 896.507812 1471.496094 903.496094 C 1483.164062 910.480469 1488.644531 923.792969 1485.257812 936.960938 Z M 1485.257812 936.957031 " fill-opacity="1" fill-rule="evenodd"/></g></svg>