<svg xmlns="http://www.w3.org/2000/svg" xmlns:xlink="http://www.w3.org/1999/xlink" width="2000" zoomAndPan="magnify" viewBox="0 0 1500 1499.999933" height="2000" preserveAspectRatio="xMidYMid meet" version="1.0"><path fill="#000000" d="M 791.601562 185.371094 C 766.410156 168.578125 733.589844 168.578125 708.398438 185.371094 L 183.398438 535.371094 C 162.53125 549.28125 150 572.699219 150 597.78125 L 150 1267.5 C 150 1308.921875 183.578125 1342.5 225 1342.5 L 450 1342.5 L 450 1042.5 C 450 918.230469 550.734375 817.5 675 817.5 L 825 817.5 C 949.265625 817.5 1050 918.230469 1050 1042.5 L 1050 1342.5 L 1275 1342.5 C 1316.421875 1342.5 1350 1308.921875 1350 1267.5 L 1350 597.78125 C 1350 572.699219 1337.46875 549.28125 1316.601562 535.371094 Z M 625.191406 60.566406 C 700.769531 10.179688 799.230469 10.179688 874.808594 60.566406 L 1399.808594 410.566406 C 1462.402344 452.296875 1500 522.546875 1500 597.78125 L 1500 1267.5 C 1500 1391.761719 1399.265625 1492.5 1275 1492.5 L 975 1492.5 C 933.578125 1492.5 900 1458.921875 900 1417.5 L 900 1042.5 C 900 1001.078125 866.421875 967.5 825 967.5 L 675 967.5 C 633.578125 967.5 600 1001.078125 600 1042.5 L 600 1417.5 C 600 1458.921875 566.421875 1492.5 525 1492.5 L 225 1492.5 C 100.734375 1492.5 0 1391.761719 0 1267.5 L 0 597.78125 C 0 522.546875 37.597656 452.296875 100.191406 410.566406 Z M 625.191406 60.566406 " fill-opacity="1" fill-rule="evenodd"/></svg>