<svg xmlns="http://www.w3.org/2000/svg" xmlns:xlink="http://www.w3.org/1999/xlink" width="2000" zoomAndPan="magnify" viewBox="0 0 1500 1499.999933" height="2000" preserveAspectRatio="xMidYMid meet" version="1.0"><defs><g/><clipPath id="2c6a413883"><rect x="0" width="1500" y="0" height="916"/></clipPath></defs><g transform="matrix(1, 0, 0, 1, 0, 354)"><g clip-path="url(#2c6a413883)"><g fill="#000000" fill-opacity="1"><g transform="translate(0.00003335, 705.090762)"><g><path d="M 571.859375 -150.3125 C 575.773438 -150.3125 580.8125 -148.769531 586.96875 -145.6875 C 593.132812 -142.613281 596.21875 -134.640625 596.21875 -121.765625 L 596.21875 -29.390625 C 596.21875 -16.515625 593.132812 -8.535156 586.96875 -5.453125 C 580.8125 -2.378906 575.773438 -0.84375 571.859375 -0.84375 L 273.75 -0.84375 C 255.28125 -0.84375 238.207031 -1.960938 222.53125 -4.203125 C 206.851562 -6.441406 192.578125 -10.078125 179.703125 -15.109375 C 152.273438 -24.628906 130.441406 -40.023438 114.203125 -61.296875 C 97.410156 -83.128906 85.375 -110.5625 78.09375 -143.59375 C 75.289062 -157.59375 72.910156 -172.988281 70.953125 -189.78125 C 68.992188 -206.570312 67.734375 -224.765625 67.171875 -244.359375 L 67.171875 -248.5625 L 68.859375 -354.375 C 70.535156 -360.53125 73.613281 -367.523438 78.09375 -375.359375 C 90.40625 -397.191406 109.441406 -408.945312 135.203125 -410.625 L 568.5 -411.46875 C 571.851562 -411.46875 576.609375 -409.925781 582.765625 -406.84375 C 588.929688 -403.769531 592.015625 -395.796875 592.015625 -382.921875 L 592.015625 -316.578125 C 592.015625 -303.703125 588.929688 -295.582031 582.765625 -292.21875 C 576.609375 -288.863281 571.851562 -287.1875 568.5 -287.1875 L 193.140625 -287.1875 C 193.140625 -287.1875 193 -284.109375 192.71875 -277.953125 C 192.4375 -271.796875 192.15625 -264.796875 191.875 -256.953125 C 191.59375 -249.117188 191.453125 -242.125 191.453125 -235.96875 C 191.453125 -229.8125 191.453125 -226.734375 191.453125 -226.734375 C 192.015625 -224.492188 192.296875 -222.113281 192.296875 -219.59375 C 192.296875 -217.070312 192.578125 -214.691406 193.140625 -212.453125 C 195.378906 -196.773438 200.140625 -184.179688 207.421875 -174.671875 C 214.128906 -166.265625 222.523438 -160.101562 232.609375 -156.1875 C 238.765625 -154.507812 245.34375 -153.109375 252.34375 -151.984375 C 259.34375 -150.867188 267.316406 -150.3125 276.265625 -150.3125 Z M 141.078125 -403.90625 Z M 572.703125 -693.625 C 576.054688 -693.625 580.8125 -691.941406 586.96875 -688.578125 C 593.132812 -685.222656 596.21875 -677.109375 596.21875 -664.234375 L 596.21875 -597.890625 C 596.21875 -585.015625 593.132812 -576.894531 586.96875 -573.53125 C 580.8125 -570.175781 576.054688 -568.5 572.703125 -568.5 L 89.859375 -569.34375 C 86.492188 -569.34375 81.867188 -570.878906 75.984375 -573.953125 C 70.109375 -577.035156 67.171875 -585.015625 67.171875 -597.890625 L 67.171875 -663.390625 C 67.171875 -676.828125 70.109375 -685.222656 75.984375 -688.578125 C 81.867188 -691.941406 86.492188 -693.625 89.859375 -693.625 Z M 572.703125 -693.625 "/></g></g></g><g fill="#000000" fill-opacity="1"><g transform="translate(705.379416, 705.090762)"><g><path d="M 661.703125 -691.9375 C 665.066406 -691.9375 669.828125 -690.394531 675.984375 -687.3125 C 682.140625 -684.238281 685.21875 -675.984375 685.21875 -662.546875 L 685.21875 -107.484375 C 685.21875 -66.617188 679.34375 -38.628906 667.59375 -23.515625 C 655.832031 -7.273438 637.632812 0.84375 613 0.84375 L 551.703125 0.84375 C 540.503906 0.84375 530.988281 0.00390625 523.15625 -1.671875 C 519.238281 -2.796875 515.316406 -4.054688 511.390625 -5.453125 C 507.472656 -6.859375 503.835938 -8.679688 500.484375 -10.921875 C 493.765625 -14.835938 487.601562 -20.992188 482 -29.390625 C 479.207031 -33.304688 476.128906 -37.785156 472.765625 -42.828125 C 469.410156 -47.867188 466.050781 -53.742188 462.6875 -60.453125 L 196.5 -532.390625 C 195.9375 -533.515625 195.375 -534.210938 194.8125 -534.484375 C 194.257812 -534.765625 193.984375 -534.90625 193.984375 -534.90625 L 189.78125 -534.90625 C 189.78125 -534.90625 189.78125 -534.765625 189.78125 -534.484375 C 189.78125 -534.210938 189.78125 -533.796875 189.78125 -533.234375 L 189.78125 -28.546875 C 189.78125 -15.671875 186.835938 -7.550781 180.953125 -4.1875 C 175.078125 -0.832031 170.179688 0.84375 166.265625 0.84375 L 91.53125 0.84375 C 87.613281 0.84375 82.570312 -0.832031 76.40625 -4.1875 C 70.25 -7.550781 67.171875 -15.671875 67.171875 -28.546875 L 67.171875 -583.609375 C 67.171875 -624.484375 73.050781 -652.753906 84.8125 -668.421875 C 97.125 -684.097656 115.316406 -691.9375 139.390625 -691.9375 L 202.375 -691.9375 C 207.96875 -691.9375 213.285156 -691.796875 218.328125 -691.515625 C 223.367188 -691.234375 227.847656 -690.816406 231.765625 -690.265625 C 240.722656 -688.585938 248.5625 -685.226562 255.28125 -680.1875 C 260.875 -676.269531 266.75 -669.832031 272.90625 -660.875 C 275.707031 -656.957031 278.644531 -652.476562 281.71875 -647.4375 C 284.800781 -642.394531 288.023438 -636.796875 291.390625 -630.640625 L 556.75 -158.703125 C 557.300781 -157.023438 558.140625 -156.1875 559.265625 -156.1875 L 563.46875 -156.1875 C 563.46875 -156.75 563.46875 -157.03125 563.46875 -157.03125 C 563.46875 -157.03125 563.46875 -157.3125 563.46875 -157.875 L 563.46875 -662.546875 C 563.46875 -675.984375 566.40625 -684.238281 572.28125 -687.3125 C 578.15625 -690.394531 583.050781 -691.9375 586.96875 -691.9375 Z M 661.703125 -691.9375 "/></g></g></g></g></g></svg>