<svg xmlns="http://www.w3.org/2000/svg" xmlns:xlink="http://www.w3.org/1999/xlink" width="2000" zoomAndPan="magnify" viewBox="0 0 1500 1499.999933" height="2000" preserveAspectRatio="xMidYMid meet" version="1.0"><path fill="#000000" d="M 573.40625 0 C 547.578125 0 526.664062 30.09375 526.664062 55.933594 L 526.664062 78.070312 C 526.664062 96.347656 537.203125 112.074219 552.4375 119.726562 C 552.210938 122.753906 552 125.8125 552 128.902344 L 552 568.917969 C 545.085938 581.949219 538.347656 595.519531 531.03125 608.972656 L 152.976562 1292.96875 C 92.09375 1404.910156 207.949219 1500.089844 276.175781 1500.089844 L 1222.15625 1500.089844 C 1290.378906 1500.089844 1407.476562 1407.1875 1345.355469 1292.96875 L 967.328125 608.972656 C 960.011719 595.519531 953.273438 581.949219 946.359375 568.917969 L 946.359375 128.902344 C 946.359375 125.8125 946.148438 122.753906 945.921875 119.726562 C 961.15625 112.070312 971.695312 96.347656 971.695312 78.070312 L 971.695312 55.933594 C 971.695312 30.09375 950.925781 0 925.097656 0 Z M 573.40625 0 " fill-opacity="1" fill-rule="nonzero"/><path fill="#ffffff" d="M 676.515625 552.828125 L 822.398438 552.828125 C 880.441406 552.828125 899.433594 606.925781 927.167969 658.214844 L 1256.621094 1267.425781 C 1323.164062 1390.464844 1209.894531 1444.589844 1151.851562 1444.589844 L 347.050781 1444.589844 C 289.007812 1444.589844 182.988281 1377.0625 242.285156 1267.425781 L 571.738281 658.214844 C 599.476562 606.925781 618.46875 552.828125 676.507812 552.828125 Z M 676.515625 552.828125 " fill-opacity="1" fill-rule="nonzero"/><path fill="#ffffff" d="M 599.628906 94.628906 L 898.929688 94.628906 L 898.929688 643.203125 L 599.628906 643.203125 Z M 599.628906 94.628906 " fill-opacity="1" fill-rule="nonzero"/><path fill="#ffffff" d="M 573.066406 81.4375 L 573.066406 59.703125 C 573.066406 59.046875 573.097656 58.390625 573.164062 57.738281 C 573.226562 57.085938 573.324219 56.4375 573.449219 55.792969 C 573.578125 55.148438 573.738281 54.515625 573.929688 53.886719 C 574.121094 53.257812 574.339844 52.640625 574.589844 52.035156 C 574.84375 51.429688 575.121094 50.835938 575.433594 50.257812 C 575.742188 49.675781 576.078125 49.117188 576.441406 48.570312 C 576.808594 48.023438 577.199219 47.496094 577.613281 46.988281 C 578.03125 46.484375 578.472656 45.996094 578.933594 45.53125 C 579.398438 45.070312 579.882812 44.628906 580.390625 44.210938 C 580.898438 43.796875 581.425781 43.40625 581.96875 43.039062 C 582.515625 42.675781 583.078125 42.339844 583.65625 42.027344 C 584.234375 41.71875 584.828125 41.4375 585.433594 41.1875 C 586.039062 40.9375 586.65625 40.714844 587.285156 40.527344 C 587.914062 40.335938 588.550781 40.175781 589.195312 40.046875 C 589.835938 39.917969 590.484375 39.824219 591.140625 39.757812 C 591.792969 39.695312 592.445312 39.664062 593.105469 39.664062 L 904.980469 39.664062 C 905.636719 39.664062 906.292969 39.695312 906.945312 39.757812 C 907.597656 39.824219 908.246094 39.917969 908.890625 40.046875 C 909.535156 40.175781 910.167969 40.335938 910.796875 40.527344 C 911.425781 40.714844 912.042969 40.9375 912.648438 41.1875 C 913.253906 41.4375 913.847656 41.71875 914.425781 42.027344 C 915.003906 42.339844 915.566406 42.675781 916.113281 43.039062 C 916.660156 43.40625 917.183594 43.796875 917.695312 44.210938 C 918.199219 44.628906 918.6875 45.070312 919.148438 45.53125 C 919.613281 45.996094 920.054688 46.484375 920.46875 46.988281 C 920.886719 47.496094 921.277344 48.023438 921.640625 48.570312 C 922.007812 49.117188 922.34375 49.675781 922.652344 50.257812 C 922.960938 50.835938 923.242188 51.429688 923.492188 52.035156 C 923.746094 52.640625 923.964844 53.257812 924.15625 53.886719 C 924.347656 54.515625 924.503906 55.148438 924.632812 55.792969 C 924.761719 56.4375 924.859375 57.085938 924.921875 57.738281 C 924.984375 58.390625 925.019531 59.046875 925.019531 59.703125 L 925.019531 81.4375 C 925.019531 82.09375 924.984375 82.75 924.921875 83.402344 C 924.859375 84.054688 924.761719 84.703125 924.632812 85.347656 C 924.503906 85.992188 924.347656 86.625 924.15625 87.253906 C 923.964844 87.882812 923.746094 88.5 923.492188 89.105469 C 923.242188 89.714844 922.960938 90.304688 922.652344 90.886719 C 922.34375 91.464844 922.007812 92.027344 921.640625 92.570312 C 921.277344 93.117188 920.886719 93.644531 920.46875 94.152344 C 920.054688 94.660156 919.613281 95.144531 919.148438 95.609375 C 918.6875 96.074219 918.199219 96.511719 917.691406 96.929688 C 917.183594 97.34375 916.660156 97.734375 916.113281 98.101562 C 915.566406 98.464844 915.003906 98.800781 914.425781 99.113281 C 913.847656 99.421875 913.253906 99.703125 912.648438 99.953125 C 912.042969 100.203125 911.425781 100.425781 910.796875 100.617188 C 910.167969 100.804688 909.535156 100.964844 908.890625 101.09375 C 908.246094 101.222656 907.597656 101.316406 906.945312 101.382812 C 906.292969 101.445312 905.636719 101.480469 904.980469 101.480469 L 593.105469 101.480469 C 592.445312 101.480469 591.792969 101.445312 591.140625 101.382812 C 590.488281 101.316406 589.839844 101.222656 589.195312 101.09375 C 588.550781 100.964844 587.914062 100.804688 587.285156 100.617188 C 586.65625 100.425781 586.039062 100.203125 585.433594 99.953125 C 584.828125 99.703125 584.234375 99.421875 583.65625 99.113281 C 583.078125 98.800781 582.515625 98.464844 581.96875 98.101562 C 581.425781 97.734375 580.898438 97.34375 580.390625 96.929688 C 579.882812 96.511719 579.398438 96.074219 578.933594 95.609375 C 578.472656 95.144531 578.03125 94.660156 577.613281 94.152344 C 577.199219 93.644531 576.808594 93.117188 576.441406 92.570312 C 576.078125 92.027344 575.742188 91.464844 575.433594 90.886719 C 575.121094 90.304688 574.84375 89.714844 574.589844 89.105469 C 574.339844 88.5 574.121094 87.882812 573.929688 87.253906 C 573.738281 86.625 573.578125 85.992188 573.449219 85.347656 C 573.324219 84.703125 573.226562 84.054688 573.164062 83.402344 C 573.097656 82.75 573.066406 82.09375 573.066406 81.4375 Z M 573.066406 81.4375 " fill-opacity="1" fill-rule="nonzero"/><path fill="#000000" d="M 941.59375 747.941406 L 1204.539062 1247.890625 C 1262.105469 1357.339844 1163.230469 1404.519531 1111.917969 1404.519531 L 400.429688 1404.519531 C 349.117188 1404.519531 255.175781 1344.703125 307.808594 1247.890625 L 565.605469 773.6875 C 793.519531 863.109375 876.414062 614.5625 941.601562 747.941406 Z M 941.59375 747.941406 " fill-opacity="1" fill-rule="nonzero"/><path fill="#ffffff" d="M 781.5625 1111.390625 C 781.5625 1158.316406 743.53125 1196.351562 696.621094 1196.351562 C 649.707031 1196.351562 611.675781 1158.316406 611.675781 1111.390625 C 611.675781 1064.46875 649.707031 1026.433594 696.621094 1026.433594 C 743.53125 1026.433594 781.5625 1064.46875 781.5625 1111.390625 Z M 781.5625 1111.390625 " fill-opacity="1" fill-rule="nonzero"/><path fill="#ffffff" d="M 660.820312 1009.761719 C 660.820312 1037.488281 638.347656 1059.96875 610.628906 1059.96875 C 582.90625 1059.96875 560.433594 1037.488281 560.433594 1009.761719 C 560.433594 982.035156 582.90625 959.558594 610.628906 959.558594 C 638.347656 959.558594 660.820312 982.035156 660.820312 1009.761719 Z M 660.820312 1009.761719 " fill-opacity="1" fill-rule="nonzero"/><path fill="#ffffff" d="M 858.964844 911.996094 C 858.964844 928.347656 845.710938 941.605469 829.363281 941.605469 C 813.015625 941.605469 799.761719 928.347656 799.761719 911.996094 C 799.761719 895.644531 813.015625 882.386719 829.363281 882.386719 C 845.710938 882.386719 858.964844 895.644531 858.964844 911.996094 Z M 858.964844 911.996094 " fill-opacity="1" fill-rule="nonzero"/><path fill="#000000" d="M 825.550781 106.027344 C 826.253906 106.027344 826.960938 106.0625 827.664062 106.132812 C 828.367188 106.199219 829.0625 106.304688 829.757812 106.441406 C 830.449219 106.578125 831.132812 106.75 831.808594 106.957031 C 832.484375 107.160156 833.148438 107.398438 833.800781 107.667969 C 834.453125 107.941406 835.09375 108.242188 835.714844 108.574219 C 836.339844 108.90625 836.945312 109.269531 837.53125 109.664062 C 838.117188 110.054688 838.683594 110.476562 839.230469 110.921875 C 839.777344 111.371094 840.300781 111.847656 840.800781 112.34375 C 841.296875 112.84375 841.773438 113.367188 842.21875 113.914062 C 842.667969 114.460938 843.089844 115.027344 843.480469 115.613281 C 843.875 116.203125 844.238281 116.808594 844.570312 117.429688 C 844.902344 118.054688 845.203125 118.691406 845.472656 119.34375 C 845.746094 119.996094 845.980469 120.660156 846.1875 121.335938 C 846.390625 122.011719 846.5625 122.695312 846.703125 123.390625 C 846.839844 124.082031 846.941406 124.78125 847.011719 125.484375 C 847.082031 126.1875 847.117188 126.890625 847.117188 127.597656 L 847.117188 553.9375 C 847.117188 554.644531 847.082031 555.351562 847.011719 556.054688 C 846.941406 556.757812 846.839844 557.453125 846.703125 558.148438 C 846.5625 558.839844 846.390625 559.523438 846.1875 560.199219 C 845.984375 560.875 845.746094 561.539062 845.472656 562.195312 C 845.203125 562.847656 844.902344 563.484375 844.570312 564.105469 C 844.238281 564.730469 843.875 565.335938 843.480469 565.921875 C 843.089844 566.511719 842.667969 567.078125 842.21875 567.625 C 841.773438 568.167969 841.296875 568.691406 840.800781 569.191406 C 840.300781 569.691406 839.777344 570.164062 839.230469 570.613281 C 838.683594 571.0625 838.117188 571.480469 837.53125 571.875 C 836.945312 572.265625 836.339844 572.628906 835.714844 572.964844 C 835.09375 573.296875 834.453125 573.597656 833.800781 573.867188 C 833.148438 574.136719 832.484375 574.375 831.808594 574.582031 C 831.132812 574.785156 830.449219 574.957031 829.757812 575.09375 C 829.0625 575.234375 828.367188 575.335938 827.664062 575.40625 C 826.960938 575.476562 826.253906 575.511719 825.550781 575.511719 C 824.84375 575.511719 824.136719 575.476562 823.433594 575.40625 C 822.730469 575.335938 822.035156 575.234375 821.339844 575.09375 C 820.648438 574.957031 819.964844 574.785156 819.289062 574.582031 C 818.613281 574.375 817.949219 574.136719 817.296875 573.867188 C 816.644531 573.597656 816.003906 573.296875 815.382812 572.964844 C 814.757812 572.628906 814.152344 572.265625 813.566406 571.875 C 812.980469 571.480469 812.414062 571.0625 811.867188 570.613281 C 811.320312 570.164062 810.796875 569.691406 810.296875 569.191406 C 809.800781 568.691406 809.324219 568.167969 808.878906 567.625 C 808.429688 567.078125 808.007812 566.511719 807.617188 565.921875 C 807.222656 565.335938 806.863281 564.730469 806.527344 564.105469 C 806.195312 563.484375 805.894531 562.847656 805.625 562.195312 C 805.351562 561.539062 805.117188 560.875 804.910156 560.199219 C 804.707031 559.523438 804.535156 558.839844 804.394531 558.148438 C 804.257812 557.453125 804.15625 556.757812 804.085938 556.054688 C 804.015625 555.351562 803.980469 554.644531 803.980469 553.9375 L 803.980469 127.597656 C 803.980469 126.890625 804.015625 126.1875 804.085938 125.484375 C 804.15625 124.78125 804.257812 124.082031 804.394531 123.390625 C 804.535156 122.699219 804.707031 122.011719 804.910156 121.335938 C 805.117188 120.660156 805.351562 119.996094 805.625 119.34375 C 805.894531 118.691406 806.195312 118.054688 806.527344 117.429688 C 806.863281 116.808594 807.222656 116.203125 807.617188 115.613281 C 808.007812 115.027344 808.429688 114.460938 808.878906 113.914062 C 809.324219 113.367188 809.800781 112.84375 810.296875 112.34375 C 810.796875 111.847656 811.320312 111.371094 811.867188 110.921875 C 812.414062 110.476562 812.980469 110.054688 813.566406 109.664062 C 814.152344 109.269531 814.757812 108.90625 815.382812 108.574219 C 816.003906 108.242188 816.644531 107.941406 817.296875 107.667969 C 817.949219 107.398438 818.613281 107.160156 819.289062 106.957031 C 819.964844 106.75 820.648438 106.578125 821.339844 106.441406 C 822.035156 106.304688 822.730469 106.199219 823.433594 106.132812 C 824.136719 106.0625 824.84375 106.027344 825.550781 106.027344 Z M 825.550781 106.027344 " fill-opacity="1" fill-rule="nonzero"/></svg>