<svg xmlns="http://www.w3.org/2000/svg" xmlns:xlink="http://www.w3.org/1999/xlink" width="2000" zoomAndPan="magnify" viewBox="0 0 1500 1499.999933" height="2000" preserveAspectRatio="xMidYMid meet" version="1.0"><path fill="#000000" d="M 839.640625 649.179688 C 840.753906 566.742188 846.695312 485.042969 875.289062 406.691406 C 895.710938 350.617188 925.789062 300.855469 975.917969 267.0625 C 1046.101562 219.160156 1118.511719 225.101562 1189.804688 264.835938 C 1256.273438 301.96875 1296.375 362.128906 1326.082031 429.714844 C 1353.933594 493.585938 1365.445312 561.542969 1369.15625 630.984375 C 1375.839844 749.441406 1349.847656 862.703125 1315.6875 974.480469 C 1308.628906 997.128906 1303.058594 1020.527344 1294.890625 1042.804688 C 1286.722656 1064.34375 1277.808594 1069.542969 1254.789062 1065.085938 C 1217.65625 1057.660156 1180.894531 1046.519531 1143.761719 1040.207031 C 1065.410156 1026.839844 986.6875 1015.328125 907.964844 1004.1875 C 873.433594 999.359375 866.75 993.046875 863.777344 958.882812 C 855.980469 866.789062 847.8125 775.066406 840.011719 682.972656 C 838.898438 671.460938 839.640625 660.320312 839.640625 649.179688 Z M 839.640625 649.179688 " fill-opacity="1" fill-rule="nonzero"/><path fill="#000000" d="M 512.871094 785.835938 C 455.6875 788.804688 398.132812 790.664062 340.945312 795.117188 C 297.128906 798.460938 253.3125 804.773438 209.496094 808.488281 C 177.5625 811.457031 168.277344 804.773438 162.335938 772.835938 C 153.054688 721.964844 144.515625 670.71875 137.457031 619.472656 C 128.546875 553 124.089844 485.785156 131.144531 418.945312 C 144.886719 288.972656 180.90625 168.285156 278.5625 73.964844 C 325.351562 29.03125 381.421875 2.664062 446.40625 1.550781 C 511.757812 0.4375 563.746094 29.773438 602.363281 82.132812 C 639.496094 131.894531 656.578125 189.453125 663.632812 250.351562 C 677.742188 369.183594 659.546875 485.042969 634.667969 600.53125 C 623.527344 652.519531 612.015625 704.511719 600.132812 756.5 C 594.195312 782.492188 589.738281 785.835938 562.628906 786.949219 C 545.921875 787.691406 529.210938 786.949219 512.5 786.949219 C 513.242188 786.949219 512.871094 786.207031 512.871094 785.835938 Z M 512.871094 785.835938 " fill-opacity="1" fill-rule="nonzero"/><path fill="#000000" d="M 616.101562 1052.832031 C 615.359375 1107.050781 599.761719 1156.4375 565.972656 1199.515625 C 505.816406 1276.011719 398.875 1280.46875 333.519531 1208.425781 C 316.8125 1190.230469 302.328125 1169.4375 290.816406 1147.898438 C 252.941406 1076.226562 230.292969 998.988281 206.898438 921.746094 C 197.984375 892.410156 206.898438 880.527344 236.976562 877.929688 C 269.652344 874.957031 302.699219 874.957031 335.75 872.730469 C 394.789062 868.644531 454.203125 863.074219 513.242188 859.363281 C 531.4375 858.246094 549.632812 860.476562 567.828125 861.589844 C 578.226562 861.960938 583.054688 869.015625 584.910156 877.929688 C 594.9375 926.945312 605.332031 975.964844 614.988281 1025.351562 C 616.472656 1034.265625 615.730469 1043.550781 616.101562 1052.832031 Z M 616.101562 1052.832031 " fill-opacity="1" fill-rule="nonzero"/><path fill="#000000" d="M 829.988281 1201 C 840.011719 1166.09375 853.382812 1131.929688 864.148438 1097.394531 C 868.976562 1081.425781 877.515625 1072.515625 894.597656 1075.113281 C 936.1875 1081.796875 977.40625 1088.480469 1018.992188 1095.539062 C 1081.75 1106.308594 1144.875 1117.074219 1207.628906 1128.585938 C 1242.90625 1134.902344 1251.074219 1147.898438 1235.851562 1182.0625 C 1211.714844 1236.277344 1186.464844 1289.75 1158.242188 1342.113281 C 1141.53125 1372.933594 1121.109375 1403.011719 1097.714844 1429.007812 C 1051.671875 1479.882812 994.113281 1499.5625 926.90625 1476.167969 C 873.804688 1457.601562 843.726562 1416.007812 827.386719 1364.765625 C 819.21875 1339.882812 821.816406 1228.851562 829.988281 1201 Z M 829.988281 1201 " fill-opacity="1" fill-rule="nonzero"/></svg>