<svg xmlns="http://www.w3.org/2000/svg" xmlns:xlink="http://www.w3.org/1999/xlink" width="2000" zoomAndPan="magnify" viewBox="0 0 1500 1499.999933" height="2000" preserveAspectRatio="xMidYMid meet" version="1.0"><path fill="#000000" d="M 748.84375 276.679688 C 775.34375 276.679688 796.902344 255.121094 796.902344 228.621094 L 796.902344 48.058594 C 796.902344 21.558594 775.34375 0 748.84375 0 C 722.34375 0 700.785156 21.558594 700.785156 48.058594 L 700.785156 228.621094 C 700.785156 255.121094 722.34375 276.679688 748.84375 276.679688 " fill-opacity="1" fill-rule="nonzero"/><path fill="#000000" d="M 414.496094 416.128906 C 433.234375 397.386719 433.234375 366.902344 414.496094 348.160156 L 286.816406 220.484375 C 268.082031 201.75 237.589844 201.75 218.855469 220.484375 C 200.117188 239.222656 200.117188 269.71875 218.851562 288.453125 L 346.535156 416.128906 C 365.265625 434.871094 395.753906 434.871094 414.496094 416.128906 " fill-opacity="1" fill-rule="nonzero"/><path fill="#000000" d="M 276.679688 751.15625 C 276.679688 724.65625 255.121094 703.097656 228.621094 703.097656 L 48.058594 703.097656 C 21.558594 703.097656 0 724.65625 0 751.15625 C 0 777.65625 21.558594 799.214844 48.058594 799.214844 L 228.621094 799.214844 C 255.121094 799.214844 276.679688 777.65625 276.679688 751.15625 " fill-opacity="1" fill-rule="nonzero"/><path fill="#000000" d="M 416.128906 1085.503906 C 397.386719 1066.765625 366.902344 1066.765625 348.160156 1085.5 L 220.484375 1213.183594 C 201.75 1231.917969 201.75 1262.410156 220.484375 1281.144531 C 239.222656 1299.882812 269.71875 1299.882812 288.453125 1281.144531 L 416.128906 1153.464844 C 434.871094 1134.730469 434.871094 1104.246094 416.128906 1085.503906 " fill-opacity="1" fill-rule="nonzero"/><path fill="#000000" d="M 751.15625 1223.320312 C 724.65625 1223.320312 703.097656 1244.878906 703.097656 1271.378906 L 703.097656 1451.941406 C 703.097656 1478.441406 724.65625 1500 751.15625 1500 C 777.65625 1500 799.214844 1478.441406 799.214844 1451.941406 L 799.214844 1271.378906 C 799.214844 1244.878906 777.65625 1223.320312 751.15625 1223.320312 " fill-opacity="1" fill-rule="nonzero"/><path fill="#000000" d="M 1085.503906 1083.871094 C 1066.765625 1102.613281 1066.765625 1133.097656 1085.5 1151.832031 L 1213.183594 1279.515625 C 1231.917969 1298.25 1262.410156 1298.25 1281.144531 1279.507812 C 1299.882812 1260.773438 1299.882812 1230.28125 1281.148438 1211.546875 L 1153.464844 1083.871094 C 1134.730469 1065.128906 1104.246094 1065.128906 1085.503906 1083.871094 " fill-opacity="1" fill-rule="nonzero"/><path fill="#000000" d="M 1223.320312 748.84375 C 1223.320312 775.34375 1244.878906 796.902344 1271.378906 796.902344 L 1451.941406 796.902344 C 1478.441406 796.902344 1500 775.34375 1500 748.84375 C 1500 722.34375 1478.441406 700.785156 1451.941406 700.785156 L 1271.378906 700.785156 C 1244.878906 700.785156 1223.320312 722.34375 1223.320312 748.84375 " fill-opacity="1" fill-rule="nonzero"/><path fill="#000000" d="M 1083.871094 414.496094 C 1102.613281 433.234375 1133.097656 433.234375 1151.832031 414.496094 L 1279.515625 286.816406 C 1298.25 268.082031 1298.25 237.589844 1279.515625 218.847656 C 1260.773438 200.117188 1230.28125 200.117188 1211.546875 218.847656 L 1083.871094 346.535156 C 1065.128906 365.265625 1065.128906 395.753906 1083.871094 414.496094 " fill-opacity="1" fill-rule="nonzero"/><path fill="#000000" d="M 522.714844 991.042969 C 458.328125 926.65625 422.863281 841.050781 422.863281 750 C 422.863281 658.945312 458.328125 573.339844 522.714844 508.953125 C 587.09375 444.570312 672.699219 409.113281 763.757812 409.113281 C 766.433594 409.113281 769.113281 409.144531 771.789062 409.207031 L 771.789062 1090.792969 C 769.113281 1090.851562 766.433594 1090.886719 763.757812 1090.886719 C 672.699219 1090.886719 587.09375 1055.429688 522.714844 991.042969 Z M 1066.085938 447.664062 C 985.332031 366.910156 877.960938 322.4375 763.757812 322.4375 C 649.546875 322.4375 542.179688 366.910156 461.421875 447.664062 C 380.667969 528.417969 336.191406 635.796875 336.191406 750 C 336.191406 864.203125 380.667969 971.574219 461.421875 1052.328125 C 542.179688 1133.089844 649.546875 1177.5625 763.757812 1177.5625 C 877.960938 1177.5625 985.332031 1133.089844 1066.085938 1052.328125 C 1146.84375 971.574219 1191.320312 864.203125 1191.320312 750 C 1191.320312 635.796875 1146.84375 528.417969 1066.085938 447.664062 " fill-opacity="1" fill-rule="nonzero"/></svg>