<svg xmlns="http://www.w3.org/2000/svg" xmlns:xlink="http://www.w3.org/1999/xlink" width="2000" zoomAndPan="magnify" viewBox="0 0 1500 1499.999933" height="2000" preserveAspectRatio="xMidYMid meet" version="1.0"><path fill="#000000" d="M 1496.152344 361.539062 C 1496.152344 264.617188 1457.691406 171.691406 1389.152344 103.152344 C 1320.617188 34.617188 1227.691406 -3.847656 1130.769531 -3.847656 L 361.539062 -3.847656 C 264.617188 -3.847656 171.691406 34.617188 103.152344 103.152344 C 34.617188 171.691406 -3.847656 264.617188 -3.847656 361.539062 L -3.847656 1130.769531 C -3.847656 1227.691406 34.617188 1320.617188 103.152344 1389.152344 C 171.691406 1457.691406 264.617188 1496.152344 361.539062 1496.152344 L 1130.769531 1496.152344 C 1227.691406 1496.152344 1320.617188 1457.691406 1389.152344 1389.152344 C 1457.691406 1320.613281 1496.152344 1227.691406 1496.152344 1130.769531 Z M 1380.769531 361.539062 L 1380.769531 1130.769531 C 1380.769531 1197.078125 1354.460938 1260.691406 1307.539062 1307.539062 C 1260.691406 1354.460938 1197.078125 1380.769531 1130.769531 1380.769531 L 361.539062 1380.769531 C 295.230469 1380.769531 231.617188 1354.460938 184.769531 1307.539062 C 137.847656 1260.691406 111.539062 1197.078125 111.539062 1130.769531 L 111.539062 361.539062 C 111.539062 295.230469 137.847656 231.617188 184.769531 184.769531 C 231.617188 137.847656 295.230469 111.539062 361.539062 111.539062 L 1130.769531 111.539062 C 1197.078125 111.539062 1260.691406 137.847656 1307.539062 184.769531 C 1354.460938 231.617188 1380.769531 295.230469 1380.769531 361.539062 Z M 1380.769531 361.539062 " fill-opacity="1" fill-rule="evenodd"/><path fill="#000000" d="M 438.460938 803.847656 L 1053.847656 803.847656 C 1085.691406 803.847656 1111.539062 778 1111.539062 746.152344 C 1111.539062 714.308594 1085.691406 688.460938 1053.847656 688.460938 L 438.460938 688.460938 C 406.617188 688.460938 380.769531 714.308594 380.769531 746.152344 C 380.769531 778 406.617188 803.847656 438.460938 803.847656 Z M 438.460938 803.847656 " fill-opacity="1" fill-rule="evenodd"/><path fill="#000000" d="M 438.460938 1111.539062 L 1053.847656 1111.539062 C 1085.691406 1111.539062 1111.539062 1085.691406 1111.539062 1053.847656 C 1111.539062 1022 1085.691406 996.152344 1053.847656 996.152344 L 438.460938 996.152344 C 406.617188 996.152344 380.769531 1022 380.769531 1053.847656 C 380.769531 1085.691406 406.617188 1111.539062 438.460938 1111.539062 Z M 438.460938 1111.539062 " fill-opacity="1" fill-rule="evenodd"/><path fill="#000000" d="M 438.460938 496.152344 L 1053.847656 496.152344 C 1085.691406 496.152344 1111.539062 470.308594 1111.539062 438.460938 C 1111.539062 406.617188 1085.691406 380.769531 1053.847656 380.769531 L 438.460938 380.769531 C 406.617188 380.769531 380.769531 406.617188 380.769531 438.460938 C 380.769531 470.308594 406.617188 496.152344 438.460938 496.152344 Z M 438.460938 496.152344 " fill-opacity="1" fill-rule="evenodd"/></svg>