<svg xmlns="http://www.w3.org/2000/svg" xmlns:xlink="http://www.w3.org/1999/xlink" width="2000" zoomAndPan="magnify" viewBox="0 0 1500 1499.999933" height="2000" preserveAspectRatio="xMidYMid meet" version="1.0"><defs><clipPath id="e0a3250a95"><path d="M 0 71.25 L 1500 71.25 L 1500 1428.75 L 0 1428.75 Z M 0 71.25 " clip-rule="nonzero"/></clipPath></defs><g clip-path="url(#e0a3250a95)"><path fill="#00c2cb" d="M 1427.789062 421.691406 L 1397.324219 379.078125 C 1392.796875 372.738281 1384.550781 370.308594 1377.324219 373.171875 L 1316.074219 397.386719 L 1322.746094 347.246094 C 1322.835938 346.484375 1322.898438 345.71875 1322.898438 344.96875 C 1322.898438 336.558594 1316.675781 329.242188 1308.097656 328.101562 L 1302.265625 316.136719 C 1298.800781 309.042969 1292.023438 304.15625 1284.183594 303.121094 L 1281.726562 302.792969 L 1281.726562 298.113281 C 1281.726562 280.078125 1279.160156 262.640625 1274.394531 246.175781 L 1267.078125 194.105469 C 1260.554688 147.6875 1225.246094 110.5625 1179.230469 101.703125 L 1037.273438 74.398438 C 1032.160156 72.359375 1026.597656 71.21875 1020.765625 71.21875 L 479.28125 71.21875 C 473.445312 71.21875 467.871094 72.359375 462.773438 74.398438 L 320.769531 101.703125 C 274.738281 110.546875 239.429688 147.6875 232.921875 194.105469 L 225.578125 246.449219 C 220.867188 262.835938 218.320312 280.167969 218.320312 298.113281 L 218.320312 302.777344 L 215.832031 303.109375 C 208.003906 304.140625 201.210938 309.03125 197.75 316.121094 L 191.917969 328.085938 C 183.339844 329.226562 177.117188 336.542969 177.117188 344.953125 C 177.117188 345.703125 177.164062 346.46875 177.269531 347.234375 L 183.941406 397.371094 L 122.691406 373.15625 C 115.464844 370.292969 107.21875 372.722656 102.691406 379.0625 L 72.222656 421.675781 C 28.023438 441 0.332031 485.964844 0.332031 534.800781 C 0.332031 542.339844 0.976562 549.972656 2.355469 557.605469 L 21.367188 664.539062 C 26.511719 693.429688 56.375 709.742188 81.746094 697.507812 C 98.132812 689.578125 111.941406 677.507812 122.183594 662.707031 C 132.40625 647.910156 139.066406 630.382812 141.148438 611.582031 L 143.804688 587.652344 C 149.558594 535.65625 143.546875 482.847656 126.261719 433.445312 L 133.847656 426.652344 C 140.160156 420.984375 149.664062 420.867188 156.128906 426.367188 L 207.511719 470.132812 C 210.476562 472.699219 214.421875 473.835938 218.289062 473.328125 L 218.289062 1212.140625 C 218.289062 1264.242188 258.980469 1306.734375 309.855469 1307.722656 L 309.855469 1352.851562 C 309.855469 1394.761719 343.019531 1428.734375 383.953125 1428.734375 L 489.804688 1428.734375 C 530.722656 1428.734375 563.886719 1394.761719 563.886719 1352.851562 L 563.886719 1307.722656 L 690.191406 1322.761719 C 730.074219 1327.515625 770.390625 1327.515625 810.273438 1322.746094 L 936.097656 1307.722656 L 936.097656 1352.851562 C 936.097656 1394.761719 969.261719 1428.734375 1010.195312 1428.734375 L 1116.046875 1428.734375 C 1156.964844 1428.734375 1190.128906 1394.761719 1190.128906 1352.851562 L 1190.128906 1307.722656 C 1240.988281 1306.734375 1281.710938 1264.242188 1281.710938 1212.140625 L 1281.710938 473.328125 C 1285.578125 473.820312 1289.492188 472.683594 1292.460938 470.132812 L 1343.84375 426.367188 C 1350.304688 420.867188 1359.824219 420.984375 1366.121094 426.652344 L 1373.710938 433.445312 C 1356.421875 482.847656 1350.425781 535.65625 1356.167969 587.652344 L 1358.820312 611.582031 C 1360.90625 630.382812 1367.5625 647.910156 1377.789062 662.707031 C 1388.027344 677.507812 1401.835938 689.589844 1418.222656 697.507812 C 1443.59375 709.742188 1473.460938 693.429688 1478.601562 664.539062 L 1497.613281 557.605469 C 1498.980469 549.957031 1499.636719 542.339844 1499.636719 534.800781 C 1499.636719 485.953125 1471.945312 441 1427.761719 421.691406 Z M 557.214844 1150.847656 C 546.433594 1156.363281 533.195312 1156.695312 522.054688 1151.730469 L 488.5625 1136.785156 L 414.703125 1139.484375 C 402.46875 1139.933594 390.5625 1135.972656 381.746094 1128.523438 L 288.007812 1049.34375 L 356.335938 1029.984375 C 374.101562 1024.949219 393.367188 1025.816406 410.476562 1032.398438 L 626.140625 1115.539062 L 557.214844 1150.816406 Z M 536.570312 915.121094 L 415.078125 898.179688 C 390.054688 894.699219 367.308594 881.433594 351.582031 861.191406 C 344.667969 852.328125 339.347656 842.375 335.75 831.804688 C 332.148438 821.234375 330.289062 810.078125 330.289062 798.714844 L 330.289062 404.164062 L 1169.738281 404.164062 L 1169.738281 798.714844 C 1169.738281 810.0625 1167.867188 821.234375 1164.25 831.804688 C 1160.652344 842.375 1155.332031 852.328125 1148.417969 861.191406 C 1132.707031 881.445312 1109.960938 894.699219 1084.953125 898.179688 L 963.460938 915.121094 Z M 1118.253906 1128.523438 C 1109.4375 1135.972656 1097.53125 1139.933594 1085.296875 1139.484375 L 1011.4375 1136.785156 L 977.945312 1151.730469 C 966.820312 1156.695312 953.578125 1156.363281 942.785156 1150.847656 L 873.859375 1115.566406 L 1089.523438 1032.429688 C 1106.617188 1025.832031 1125.882812 1024.976562 1143.664062 1030.015625 L 1211.992188 1049.371094 L 1118.253906 1128.550781 Z M 1118.253906 1128.523438 " fill-opacity="1" fill-rule="nonzero"/></g></svg>