<svg xmlns="http://www.w3.org/2000/svg" xmlns:xlink="http://www.w3.org/1999/xlink" width="2000" zoomAndPan="magnify" viewBox="0 0 1500 1499.999933" height="2000" preserveAspectRatio="xMidYMid meet" version="1.0"><defs><g/></defs><g fill="#000000" fill-opacity="1"><g transform="translate(1.312533, 1068.87434)"><g><path d="M 612.4375 -470.1875 L 612.4375 -465.375 C 612.4375 -465.90625 612.4375 -466.304688 612.4375 -466.578125 C 612.4375 -466.847656 612.4375 -467.25 612.4375 -467.78125 C 612.4375 -468.320312 612.4375 -468.722656 612.4375 -468.984375 C 612.4375 -469.253906 612.4375 -469.65625 612.4375 -470.1875 Z M 627.71875 -34.5625 C 630.925781 -30.269531 631.992188 -23.835938 630.921875 -15.265625 C 629.316406 -4.554688 623.15625 0.796875 612.4375 0.796875 L 524.03125 0.796875 C 517.0625 0.796875 511.441406 -0.804688 507.171875 -4.015625 C 505.554688 -5.085938 504.078125 -6.695312 502.734375 -8.84375 C 501.398438 -10.988281 499.929688 -13.128906 498.328125 -15.265625 L 352.84375 -273.28125 L 183.25 -273.28125 L 183.25 -27.328125 C 183.25 -15.003906 180.4375 -7.234375 174.8125 -4.015625 C 169.1875 -0.804688 164.5 0.796875 160.75 0.796875 L 87.609375 0.796875 C 83.859375 0.796875 79.035156 -0.804688 73.140625 -4.015625 C 67.242188 -7.234375 64.296875 -15.003906 64.296875 -27.328125 L 64.296875 -364.90625 C 64.296875 -377.226562 67.242188 -384.863281 73.140625 -387.8125 C 79.035156 -390.757812 83.859375 -392.234375 87.609375 -392.234375 L 437.234375 -392.234375 C 457.597656 -392.234375 471.800781 -398.125 479.84375 -409.90625 C 488.414062 -421.695312 492.703125 -440.988281 492.703125 -467.78125 C 492.703125 -494.570312 488.414062 -513.863281 479.84375 -525.65625 C 471.800781 -537.4375 457.597656 -543.328125 437.234375 -543.328125 L 87.609375 -543.328125 C 83.859375 -543.328125 79.035156 -544.800781 73.140625 -547.75 C 67.242188 -550.695312 64.296875 -558.332031 64.296875 -570.65625 L 64.296875 -634.15625 C 64.296875 -647.019531 67.242188 -654.925781 73.140625 -657.875 C 79.035156 -660.820312 83.859375 -662.296875 87.609375 -662.296875 L 458.140625 -662.296875 C 513.316406 -662.296875 552.960938 -645.144531 577.078125 -610.84375 C 600.117188 -577.625 611.90625 -529.9375 612.4375 -467.78125 C 611.90625 -405.625 600.117188 -357.9375 577.078125 -324.71875 C 556.710938 -296.851562 526.710938 -280.507812 487.078125 -275.6875 Z M 627.71875 -34.5625 "/></g></g></g><g fill="#000000" fill-opacity="1"><g transform="translate(737.54166, 1068.87434)"><g><path d="M 611.640625 -603.609375 C 627.179688 -584.328125 638.703125 -558.070312 646.203125 -524.84375 C 649.410156 -509.3125 651.953125 -491.898438 653.828125 -472.609375 C 655.703125 -453.316406 656.640625 -432.6875 656.640625 -410.71875 L 656.640625 -251.578125 C 656.640625 -229.066406 655.703125 -208.164062 653.828125 -188.875 C 651.953125 -169.59375 649.410156 -152.179688 646.203125 -136.640625 C 638.703125 -103.953125 627.179688 -77.425781 611.640625 -57.0625 C 595.023438 -36.164062 574.128906 -21.429688 548.953125 -12.859375 C 523.234375 -3.753906 492.960938 0.796875 458.140625 0.796875 L 262.015625 0.796875 C 226.648438 0.796875 196.644531 -3.753906 172 -12.859375 C 146.8125 -21.429688 125.914062 -36.4375 109.3125 -57.875 C 93.238281 -78.769531 81.71875 -105.023438 74.75 -136.640625 C 71 -152.179688 68.316406 -169.59375 66.703125 -188.875 C 65.097656 -208.164062 64.296875 -229.066406 64.296875 -251.578125 L 64.296875 -410.71875 C 64.296875 -456.800781 67.78125 -494.84375 74.75 -524.84375 C 81.71875 -556.457031 93.238281 -582.710938 109.3125 -603.609375 C 125.914062 -623.972656 146.8125 -638.976562 172 -648.625 C 197.71875 -657.738281 227.722656 -662.296875 262.015625 -662.296875 L 458.140625 -662.296875 C 492.960938 -662.296875 523.234375 -657.738281 548.953125 -648.625 C 574.128906 -638.976562 595.023438 -623.972656 611.640625 -603.609375 Z M 536.890625 -424.375 C 536.890625 -436.164062 536.617188 -447.015625 536.078125 -456.921875 C 535.546875 -466.835938 534.476562 -475.816406 532.875 -483.859375 C 530.726562 -498.859375 526.171875 -510.914062 519.203125 -520.03125 C 513.859375 -527.53125 505.828125 -533.421875 495.109375 -537.703125 C 489.753906 -539.316406 483.726562 -540.65625 477.03125 -541.71875 C 470.332031 -542.789062 462.695312 -543.328125 454.125 -543.328125 L 266.046875 -543.328125 C 257.472656 -543.328125 249.835938 -542.789062 243.140625 -541.71875 C 236.441406 -540.65625 230.410156 -539.316406 225.046875 -537.703125 C 214.328125 -533.421875 206.289062 -527.53125 200.9375 -520.03125 C 197.71875 -515.738281 195.035156 -510.507812 192.890625 -504.34375 C 190.753906 -498.1875 188.882812 -491.359375 187.28125 -483.859375 C 186.207031 -475.816406 185.265625 -466.835938 184.453125 -456.921875 C 183.648438 -447.015625 183.25 -436.164062 183.25 -424.375 L 183.25 -237.109375 C 183.25 -225.316406 183.648438 -214.460938 184.453125 -204.546875 C 185.265625 -194.640625 186.207031 -185.664062 187.28125 -177.625 C 188.882812 -170.664062 190.753906 -164.101562 192.890625 -157.9375 C 195.035156 -151.769531 197.71875 -146.546875 200.9375 -142.265625 C 206.289062 -133.691406 214.328125 -127.796875 225.046875 -124.578125 C 234.691406 -120.828125 248.359375 -118.953125 266.046875 -118.953125 L 454.125 -118.953125 C 471.800781 -118.953125 485.460938 -120.828125 495.109375 -124.578125 C 505.828125 -127.796875 513.859375 -133.691406 519.203125 -142.265625 C 525.640625 -150.296875 530.195312 -162.082031 532.875 -177.625 C 534.476562 -185.664062 535.546875 -194.640625 536.078125 -204.546875 C 536.617188 -214.460938 536.890625 -225.316406 536.890625 -237.109375 Z M 536.890625 -424.375 "/></g></g></g></svg>