<svg xmlns="http://www.w3.org/2000/svg" xmlns:xlink="http://www.w3.org/1999/xlink" width="2000" zoomAndPan="magnify" viewBox="0 0 1500 1499.999933" height="2000" preserveAspectRatio="xMidYMid meet" version="1.0"><path fill="#000000" d="M 1420.347656 479.445312 C 1420.367188 474.152344 1420.253906 468.859375 1420.011719 463.570312 C 1419.769531 458.28125 1419.398438 453 1418.898438 447.730469 C 1418.398438 442.457031 1417.769531 437.203125 1417.011719 431.964844 C 1416.25 426.722656 1415.367188 421.503906 1414.351562 416.308594 C 1413.335938 411.113281 1412.195312 405.941406 1410.925781 400.800781 C 1409.660156 395.660156 1408.265625 390.554688 1406.75 385.484375 C 1405.230469 380.410156 1403.589844 375.378906 1401.824219 370.386719 C 1400.058594 365.394531 1398.171875 360.449219 1396.164062 355.550781 C 1394.15625 350.652344 1392.03125 345.804688 1389.785156 341.007812 C 1387.539062 336.214844 1385.179688 331.476562 1382.703125 326.796875 C 1380.222656 322.117188 1377.632812 317.503906 1374.929688 312.949219 C 1372.226562 308.398438 1369.410156 303.914062 1366.488281 299.5 C 1363.5625 295.085938 1360.53125 290.746094 1357.394531 286.480469 C 1354.261719 282.214844 1351.019531 278.03125 1347.679688 273.921875 C 1344.335938 269.816406 1340.894531 265.792969 1337.355469 261.855469 C 1333.816406 257.917969 1330.183594 254.070312 1326.457031 250.308594 C 1322.726562 246.550781 1318.910156 242.882812 1315.003906 239.3125 C 1311.09375 235.738281 1307.101562 232.265625 1303.023438 228.886719 C 1298.945312 225.511719 1294.789062 222.234375 1290.546875 219.0625 C 1286.308594 215.890625 1281.996094 212.824219 1277.605469 209.863281 C 1273.21875 206.902344 1268.757812 204.050781 1264.230469 201.308594 C 1259.699219 198.5625 1255.105469 195.933594 1250.449219 193.417969 C 1245.789062 190.898438 1241.074219 188.5 1236.296875 186.210938 C 1231.523438 183.925781 1226.695312 181.757812 1221.8125 179.710938 C 1216.929688 177.660156 1212 175.730469 1207.023438 173.925781 C 1202.046875 172.117188 1197.027344 170.433594 1191.96875 168.871094 C 1186.910156 167.3125 1181.816406 165.875 1176.6875 164.5625 C 1171.558594 163.25 1166.398438 162.066406 1161.210938 161.007812 C 1156.023438 159.949219 1150.8125 159.019531 1145.578125 158.214844 C 1140.34375 157.414062 1135.09375 156.738281 1129.828125 156.191406 C 1124.5625 155.648438 1119.285156 155.230469 1114 154.945312 C 1108.710938 154.65625 1103.421875 154.5 1098.125 154.472656 L 503.253906 154.472656 C 500.839844 145.925781 497.894531 137.570312 494.417969 129.398438 C 490.9375 121.226562 486.957031 113.308594 482.46875 105.648438 C 477.980469 97.984375 473.023438 90.636719 467.601562 83.605469 C 462.175781 76.574219 456.328125 69.917969 450.054688 63.632812 C 447.65625 61.199219 445.199219 58.832031 442.6875 56.519531 C 440.171875 54.210938 437.601562 51.96875 434.976562 49.785156 C 432.351562 47.605469 429.675781 45.488281 426.945312 43.4375 C 424.214844 41.390625 421.433594 39.410156 418.605469 37.5 C 415.777344 35.585938 412.902344 33.746094 409.984375 31.976562 C 407.066406 30.207031 404.101562 28.511719 401.101562 26.890625 C 398.097656 25.269531 395.054688 23.722656 391.972656 22.25 C 388.894531 20.777344 385.78125 19.382812 382.628906 18.066406 C 379.480469 16.75 376.300781 15.507812 373.089844 14.351562 C 369.878906 13.191406 366.644531 12.109375 363.378906 11.109375 C 360.117188 10.109375 356.828125 9.191406 353.519531 8.355469 C 350.210938 7.519531 346.882812 6.765625 343.535156 6.09375 C 340.1875 5.421875 336.824219 4.832031 333.449219 4.328125 C 330.074219 3.824219 326.6875 3.402344 323.289062 3.0625 C 319.894531 2.726562 316.492188 2.472656 313.082031 2.304688 C 309.671875 2.132812 306.261719 2.050781 302.847656 2.050781 C 299.433594 2.050781 296.019531 2.132812 292.613281 2.304688 C 289.203125 2.472656 285.800781 2.726562 282.402344 3.0625 C 279.003906 3.402344 275.621094 3.824219 272.242188 4.328125 C 268.867188 4.832031 265.503906 5.421875 262.160156 6.09375 C 258.8125 6.765625 255.484375 7.519531 252.175781 8.355469 C 248.863281 9.191406 245.578125 10.109375 242.3125 11.109375 C 239.050781 12.109375 235.8125 13.191406 232.601562 14.351562 C 229.390625 15.507812 226.210938 16.75 223.0625 18.066406 C 219.914062 19.382812 216.796875 20.777344 213.71875 22.25 C 210.636719 23.722656 207.597656 25.269531 204.59375 26.890625 C 201.589844 28.511719 198.628906 30.207031 195.707031 31.976562 C 192.789062 33.746094 189.914062 35.585938 187.085938 37.5 C 184.257812 39.410156 181.480469 41.390625 178.75 43.4375 C 176.019531 45.488281 173.339844 47.601562 170.714844 49.785156 C 168.089844 51.96875 165.519531 54.210938 163.007812 56.519531 C 160.492188 58.832031 158.035156 61.199219 155.640625 63.632812 C 152.785156 66.421875 150.011719 69.296875 147.320312 72.246094 C 144.628906 75.199219 142.023438 78.226562 139.503906 81.324219 C 136.988281 84.425781 134.558594 87.597656 132.222656 90.835938 C 129.886719 94.078125 127.644531 97.382812 125.5 100.75 C 123.351562 104.117188 121.304688 107.546875 119.351562 111.03125 C 117.402344 114.515625 115.554688 118.054688 113.804688 121.648438 C 112.058594 125.238281 110.414062 128.878906 108.875 132.566406 C 107.335938 136.25 105.90625 139.976562 104.578125 143.746094 C 103.253906 147.515625 102.039062 151.316406 100.929688 155.15625 C 99.824219 158.992188 98.828125 162.859375 97.941406 166.753906 C 97.054688 170.648438 96.28125 174.566406 95.621094 178.503906 C 94.957031 182.445312 94.410156 186.398438 93.976562 190.371094 C 93.542969 194.339844 93.222656 198.320312 93.015625 202.308594 C 92.808594 206.300781 92.714844 210.289062 92.738281 214.285156 C 92.761719 218.277344 92.898438 222.269531 93.148438 226.257812 C 93.398438 230.242188 93.761719 234.21875 94.242188 238.183594 C 94.722656 242.148438 95.3125 246.097656 96.019531 250.03125 C 96.722656 253.960938 97.539062 257.871094 98.46875 261.753906 C 99.398438 265.640625 100.4375 269.496094 101.589844 273.320312 C 102.738281 277.144531 103.996094 280.933594 105.363281 284.6875 C 106.734375 288.441406 108.207031 292.152344 109.785156 295.820312 C 111.367188 299.488281 113.050781 303.109375 114.835938 306.679688 C 116.625 310.253906 118.511719 313.773438 120.503906 317.234375 C 122.492188 320.699219 124.578125 324.105469 126.761719 327.449219 C 128.945312 330.792969 131.226562 334.070312 133.597656 337.285156 C 135.96875 340.5 138.433594 343.640625 140.984375 346.714844 C 143.535156 349.789062 146.175781 352.785156 148.898438 355.707031 C 151.621094 358.625 154.429688 361.46875 157.316406 364.226562 C 160.203125 366.988281 163.164062 369.664062 166.207031 372.253906 C 169.246094 374.847656 172.359375 377.347656 175.542969 379.761719 C 178.726562 382.171875 181.976562 384.492188 185.292969 386.71875 C 188.609375 388.945312 191.988281 391.074219 195.425781 393.105469 C 198.863281 395.136719 202.359375 397.070312 205.90625 398.902344 C 209.457031 400.734375 213.054688 402.464844 216.703125 404.089844 C 220.351562 405.714844 224.046875 407.234375 227.78125 408.652344 C 231.515625 410.066406 235.289062 411.371094 239.101562 412.570312 C 242.910156 413.765625 246.753906 414.855469 250.625 415.832031 C 254.496094 416.8125 258.394531 417.675781 262.316406 418.433594 C 266.242188 419.1875 270.179688 419.828125 274.140625 420.355469 C 278.101562 420.886719 282.070312 421.300781 286.054688 421.601562 C 290.039062 421.902344 294.027344 422.089844 298.019531 422.160156 C 302.011719 422.234375 306.003906 422.191406 309.996094 422.035156 C 313.988281 421.878906 317.972656 421.609375 321.949219 421.222656 C 325.921875 420.839844 329.886719 420.339844 333.832031 419.726562 C 337.78125 419.117188 341.707031 418.390625 345.613281 417.554688 C 349.519531 416.71875 353.398438 415.769531 357.246094 414.710938 C 361.097656 413.652344 364.917969 412.484375 368.703125 411.207031 C 372.484375 409.929688 376.230469 408.542969 379.9375 407.050781 C 383.640625 405.558594 387.300781 403.960938 390.914062 402.257812 C 394.527344 400.554688 398.089844 398.75 401.597656 396.84375 C 405.109375 394.9375 408.5625 392.933594 411.957031 390.828125 C 415.351562 388.722656 418.683594 386.523438 421.953125 384.226562 C 425.222656 381.933594 428.421875 379.546875 431.554688 377.066406 C 434.6875 374.589844 437.746094 372.023438 440.730469 369.367188 C 443.714844 366.714844 446.625 363.976562 449.453125 361.15625 C 452.28125 358.335938 455.023438 355.4375 457.6875 352.457031 C 460.347656 349.480469 462.921875 346.429688 465.410156 343.300781 C 467.898438 340.175781 470.292969 336.980469 472.597656 333.71875 C 474.902344 330.457031 477.109375 327.128906 479.222656 323.742188 C 481.335938 320.351562 483.351562 316.902344 485.269531 313.398438 C 487.183594 309.894531 488.996094 306.335938 490.710938 302.726562 C 492.421875 299.121094 494.027344 295.464844 495.53125 291.761719 C 497.035156 288.0625 498.429688 284.320312 499.71875 280.539062 C 501.003906 276.757812 502.183594 272.945312 503.253906 269.09375 L 1098.128906 269.09375 C 1101.550781 269.121094 1104.96875 269.226562 1108.386719 269.417969 C 1111.804688 269.609375 1115.214844 269.882812 1118.617188 270.242188 C 1122.019531 270.601562 1125.414062 271.042969 1128.792969 271.566406 C 1132.175781 272.089844 1135.542969 272.695312 1138.894531 273.382812 C 1142.246094 274.070312 1145.582031 274.839844 1148.894531 275.691406 C 1152.210938 276.542969 1155.5 277.476562 1158.769531 278.488281 C 1162.039062 279.5 1165.28125 280.589844 1168.496094 281.761719 C 1171.714844 282.933594 1174.898438 284.179688 1178.054688 285.507812 C 1181.207031 286.832031 1184.328125 288.238281 1187.414062 289.714844 C 1190.5 291.195312 1193.550781 292.746094 1196.558594 294.375 C 1199.570312 296.003906 1202.539062 297.703125 1205.464844 299.476562 C 1208.390625 301.25 1211.273438 303.09375 1214.113281 305.007812 C 1216.949219 306.921875 1219.738281 308.902344 1222.476562 310.953125 C 1225.21875 313.003906 1227.90625 315.117188 1230.542969 317.300781 C 1233.179688 319.480469 1235.761719 321.726562 1238.289062 324.035156 C 1240.816406 326.339844 1243.285156 328.710938 1245.695312 331.136719 C 1248.105469 333.566406 1250.457031 336.050781 1252.746094 338.59375 C 1255.039062 341.136719 1257.261719 343.734375 1259.425781 346.386719 C 1261.589844 349.039062 1263.6875 351.742188 1265.714844 354.496094 C 1267.746094 357.253906 1269.710938 360.054688 1271.601562 362.90625 C 1273.496094 365.753906 1275.320312 368.652344 1277.070312 371.589844 C 1278.824219 374.53125 1280.503906 377.511719 1282.109375 380.53125 C 1283.714844 383.554688 1285.25 386.613281 1286.707031 389.710938 C 1288.164062 392.804688 1289.542969 395.9375 1290.847656 399.101562 C 1292.152344 402.265625 1293.378906 405.457031 1294.523438 408.683594 C 1295.671875 411.90625 1296.742188 415.15625 1297.730469 418.433594 C 1298.71875 421.707031 1299.628906 425.007812 1300.457031 428.328125 C 1301.285156 431.648438 1302.03125 434.984375 1302.695312 438.34375 C 1303.359375 441.699219 1303.941406 445.070312 1304.441406 448.457031 C 1304.941406 451.84375 1305.359375 455.238281 1305.691406 458.644531 C 1306.027344 462.050781 1306.277344 465.460938 1306.445312 468.878906 C 1306.609375 472.296875 1306.695312 475.71875 1306.695312 479.140625 C 1306.695312 482.5625 1306.609375 485.980469 1306.445312 489.398438 C 1306.277344 492.820312 1306.027344 496.230469 1305.691406 499.636719 C 1305.359375 503.042969 1304.941406 506.4375 1304.441406 509.824219 C 1303.941406 513.207031 1303.359375 516.578125 1302.695312 519.9375 C 1302.03125 523.292969 1301.285156 526.632812 1300.457031 529.953125 C 1299.628906 533.273438 1298.71875 536.570312 1297.730469 539.847656 C 1296.742188 543.125 1295.671875 546.375 1294.523438 549.597656 C 1293.378906 552.820312 1292.152344 556.015625 1290.847656 559.179688 C 1289.542969 562.34375 1288.164062 565.472656 1286.707031 568.570312 C 1285.25 571.667969 1283.714844 574.726562 1282.109375 577.746094 C 1280.503906 580.769531 1278.824219 583.75 1277.070312 586.691406 C 1275.320312 589.628906 1273.496094 592.523438 1271.601562 595.375 C 1269.710938 598.226562 1267.746094 601.027344 1265.714844 603.78125 C 1263.6875 606.535156 1261.589844 609.238281 1259.425781 611.890625 C 1257.261719 614.542969 1255.039062 617.140625 1252.746094 619.683594 C 1250.457031 622.226562 1248.105469 624.714844 1245.695312 627.140625 C 1243.285156 629.570312 1240.816406 631.9375 1238.289062 634.246094 C 1235.761719 636.554688 1233.179688 638.796875 1230.542969 640.980469 C 1227.90625 643.160156 1225.21875 645.277344 1222.476562 647.328125 C 1219.738281 649.378906 1216.949219 651.359375 1214.113281 653.273438 C 1211.273438 655.1875 1208.390625 657.03125 1205.464844 658.804688 C 1202.539062 660.578125 1199.570312 662.277344 1196.558594 663.90625 C 1193.550781 665.53125 1190.5 667.085938 1187.414062 668.566406 C 1184.328125 670.042969 1181.207031 671.445312 1178.054688 672.773438 C 1174.898438 674.097656 1171.714844 675.347656 1168.5 676.519531 C 1165.28125 677.6875 1162.039062 678.78125 1158.769531 679.792969 C 1155.5 680.804688 1152.210938 681.734375 1148.894531 682.585938 C 1145.582031 683.4375 1142.246094 684.207031 1138.894531 684.898438 C 1135.542969 685.585938 1132.175781 686.191406 1128.792969 686.714844 C 1125.414062 687.238281 1122.019531 687.679688 1118.617188 688.039062 C 1115.214844 688.394531 1111.804688 688.671875 1108.386719 688.863281 C 1104.96875 689.050781 1101.550781 689.160156 1098.128906 689.183594 L 416.199219 689.183594 C 410.914062 689.238281 405.636719 689.421875 400.363281 689.734375 C 395.085938 690.046875 389.824219 690.488281 384.570312 691.054688 C 379.316406 691.625 374.082031 692.320312 368.863281 693.144531 C 363.644531 693.96875 358.445312 694.917969 353.273438 695.996094 C 348.101562 697.074219 342.957031 698.277344 337.84375 699.605469 C 332.730469 700.933594 327.652344 702.386719 322.609375 703.960938 C 317.566406 705.539062 312.5625 707.238281 307.601562 709.058594 C 302.644531 710.875 297.730469 712.816406 292.863281 714.875 C 287.996094 716.9375 283.183594 719.113281 278.425781 721.40625 C 273.667969 723.703125 268.964844 726.109375 264.324219 728.636719 C 259.679688 731.160156 255.101562 733.792969 250.589844 736.539062 C 246.078125 739.289062 241.632812 742.144531 237.257812 745.105469 C 232.882812 748.070312 228.585938 751.140625 224.359375 754.3125 C 220.136719 757.484375 215.992188 760.761719 211.925781 764.136719 C 207.859375 767.511719 203.878906 770.984375 199.984375 774.554688 C 196.089844 778.125 192.285156 781.785156 188.566406 785.542969 C 184.851562 789.296875 181.226562 793.140625 177.699219 797.074219 C 174.167969 801.003906 170.738281 805.019531 167.402344 809.121094 C 164.070312 813.21875 160.839844 817.398438 157.707031 821.65625 C 154.578125 825.914062 151.554688 830.242188 148.636719 834.648438 C 145.71875 839.050781 142.90625 843.527344 140.207031 848.066406 C 137.507812 852.609375 134.917969 857.214844 132.445312 861.882812 C 129.96875 866.550781 127.609375 871.273438 125.363281 876.058594 C 123.117188 880.839844 120.988281 885.675781 118.980469 890.5625 C 116.972656 895.449219 115.082031 900.382812 113.3125 905.359375 C 111.542969 910.339844 109.898438 915.359375 108.375 920.417969 C 106.851562 925.476562 105.449219 930.570312 104.175781 935.699219 C 102.898438 940.824219 101.75 945.980469 100.726562 951.164062 C 99.699219 956.347656 98.804688 961.554688 98.035156 966.78125 C 97.261719 972.007812 96.621094 977.25 96.105469 982.507812 C 95.589844 987.765625 95.207031 993.035156 94.949219 998.3125 C 94.691406 1003.589844 94.5625 1008.871094 94.5625 1014.15625 C 94.5625 1019.4375 94.691406 1024.71875 94.949219 1029.996094 C 95.207031 1035.273438 95.589844 1040.542969 96.105469 1045.800781 C 96.621094 1051.058594 97.261719 1056.300781 98.035156 1061.53125 C 98.804688 1066.757812 99.699219 1071.960938 100.726562 1077.144531 C 101.75 1082.328125 102.898438 1087.484375 104.175781 1092.613281 C 105.449219 1097.738281 106.851562 1102.832031 108.375 1107.890625 C 109.898438 1112.953125 111.542969 1117.972656 113.3125 1122.949219 C 115.082031 1127.929688 116.972656 1132.863281 118.980469 1137.75 C 120.988281 1142.636719 123.117188 1147.46875 125.363281 1152.253906 C 127.609375 1157.035156 129.96875 1161.761719 132.445312 1166.429688 C 134.917969 1171.097656 137.507812 1175.703125 140.207031 1180.242188 C 142.90625 1184.785156 145.71875 1189.257812 148.636719 1193.664062 C 151.554688 1198.066406 154.578125 1202.398438 157.707031 1206.65625 C 160.839844 1210.910156 164.070312 1215.089844 167.402344 1219.191406 C 170.738281 1223.289062 174.167969 1227.304688 177.699219 1231.238281 C 181.226562 1235.167969 184.851562 1239.011719 188.566406 1242.769531 C 192.285156 1246.523438 196.089844 1250.1875 199.984375 1253.757812 C 203.878906 1257.324219 207.859375 1260.796875 211.925781 1264.175781 C 215.992188 1267.550781 220.136719 1270.824219 224.359375 1273.996094 C 228.585938 1277.171875 232.882812 1280.238281 237.257812 1283.203125 C 241.632812 1286.167969 246.078125 1289.023438 250.589844 1291.769531 C 255.101562 1294.515625 259.679688 1297.152344 264.324219 1299.675781 C 268.964844 1302.199219 273.667969 1304.609375 278.425781 1306.902344 C 283.183594 1309.195312 288 1311.375 292.863281 1313.433594 C 297.730469 1315.492188 302.644531 1317.433594 307.601562 1319.253906 C 312.5625 1321.074219 317.566406 1322.769531 322.609375 1324.347656 C 327.652344 1325.921875 332.730469 1327.375 337.84375 1328.703125 C 342.957031 1330.03125 348.101562 1331.234375 353.273438 1332.3125 C 358.445312 1333.390625 363.644531 1334.339844 368.863281 1335.164062 C 374.082031 1335.988281 379.316406 1336.6875 384.570312 1337.253906 C 389.824219 1337.824219 395.085938 1338.265625 400.363281 1338.574219 C 405.636719 1338.886719 410.914062 1339.070312 416.199219 1339.125 L 1226.289062 1339.125 L 1171.882812 1393.996094 C 1170.554688 1395.324219 1169.296875 1396.714844 1168.105469 1398.167969 C 1166.914062 1399.621094 1165.800781 1401.128906 1164.757812 1402.6875 C 1163.714844 1404.25 1162.75 1405.859375 1161.867188 1407.515625 C 1160.984375 1409.171875 1160.183594 1410.867188 1159.464844 1412.601562 C 1158.746094 1414.335938 1158.113281 1416.101562 1157.570312 1417.898438 C 1157.027344 1419.695312 1156.570312 1421.515625 1156.203125 1423.359375 C 1155.839844 1425.199219 1155.5625 1427.054688 1155.378906 1428.921875 C 1155.195312 1430.792969 1155.105469 1432.664062 1155.105469 1434.542969 C 1155.105469 1436.417969 1155.195312 1438.292969 1155.378906 1440.160156 C 1155.5625 1442.03125 1155.839844 1443.882812 1156.203125 1445.726562 C 1156.570312 1447.566406 1157.027344 1449.386719 1157.570312 1451.183594 C 1158.113281 1452.980469 1158.746094 1454.746094 1159.464844 1456.480469 C 1160.183594 1458.214844 1160.984375 1459.910156 1161.867188 1461.566406 C 1162.75 1463.222656 1163.714844 1464.832031 1164.757812 1466.394531 C 1165.800781 1467.957031 1166.914062 1469.464844 1168.105469 1470.917969 C 1169.296875 1472.367188 1170.554688 1473.757812 1171.882812 1475.085938 C 1173.191406 1476.390625 1174.558594 1477.625 1175.988281 1478.792969 C 1177.421875 1479.960938 1178.90625 1481.054688 1180.441406 1482.078125 C 1181.980469 1483.101562 1183.5625 1484.046875 1185.191406 1484.914062 C 1186.824219 1485.78125 1188.492188 1486.570312 1190.199219 1487.273438 C 1191.90625 1487.976562 1193.644531 1488.597656 1195.410156 1489.132812 C 1197.179688 1489.664062 1198.96875 1490.113281 1200.78125 1490.472656 C 1202.589844 1490.832031 1204.414062 1491.101562 1206.253906 1491.28125 C 1208.089844 1491.460938 1209.933594 1491.550781 1211.78125 1491.550781 C 1213.628906 1491.550781 1215.46875 1491.460938 1217.308594 1491.28125 C 1219.144531 1491.097656 1220.96875 1490.828125 1222.78125 1490.472656 C 1224.59375 1490.113281 1226.382812 1489.664062 1228.148438 1489.132812 C 1229.917969 1488.597656 1231.65625 1487.976562 1233.363281 1487.273438 C 1235.070312 1486.570312 1236.738281 1485.78125 1238.367188 1484.914062 C 1239.996094 1484.046875 1241.582031 1483.101562 1243.117188 1482.078125 C 1244.65625 1481.054688 1246.140625 1479.960938 1247.570312 1478.792969 C 1249 1477.625 1250.371094 1476.390625 1251.679688 1475.085938 L 1403.421875 1322.054688 C 1404.75 1320.726562 1406.007812 1319.335938 1407.195312 1317.882812 C 1408.386719 1316.429688 1409.503906 1314.925781 1410.546875 1313.363281 C 1411.585938 1311.800781 1412.550781 1310.191406 1413.433594 1308.535156 C 1414.320312 1306.878906 1415.121094 1305.183594 1415.839844 1303.449219 C 1416.554688 1301.714844 1417.1875 1299.949219 1417.730469 1298.152344 C 1418.277344 1296.355469 1418.730469 1294.535156 1419.097656 1292.695312 C 1419.464844 1290.851562 1419.738281 1288.996094 1419.921875 1287.128906 C 1420.105469 1285.261719 1420.199219 1283.386719 1420.199219 1281.507812 C 1420.199219 1279.632812 1420.105469 1277.757812 1419.921875 1275.890625 C 1419.738281 1274.023438 1419.464844 1272.167969 1419.097656 1270.324219 C 1418.730469 1268.484375 1418.277344 1266.664062 1417.730469 1264.867188 C 1417.1875 1263.070312 1416.554688 1261.304688 1415.839844 1259.570312 C 1415.121094 1257.835938 1414.320312 1256.140625 1413.433594 1254.484375 C 1412.550781 1252.828125 1411.585938 1251.21875 1410.546875 1249.65625 C 1409.503906 1248.09375 1408.386719 1246.585938 1407.195312 1245.136719 C 1406.007812 1243.683594 1404.75 1242.292969 1403.421875 1240.964844 L 1251.679688 1088.539062 C 1250.390625 1087.203125 1249.035156 1085.9375 1247.617188 1084.738281 C 1246.199219 1083.539062 1244.726562 1082.414062 1243.195312 1081.363281 C 1241.664062 1080.3125 1240.085938 1079.339844 1238.457031 1078.449219 C 1236.828125 1077.558594 1235.160156 1076.75 1233.449219 1076.023438 C 1231.742188 1075.296875 1230 1074.660156 1228.226562 1074.109375 C 1226.453125 1073.5625 1224.65625 1073.101562 1222.835938 1072.730469 C 1221.015625 1072.363281 1219.183594 1072.082031 1217.335938 1071.898438 C 1215.488281 1071.710938 1213.636719 1071.617188 1211.78125 1071.617188 C 1209.921875 1071.617188 1208.070312 1071.710938 1206.222656 1071.898438 C 1204.378906 1072.082031 1202.542969 1072.363281 1200.722656 1072.730469 C 1198.90625 1073.101562 1197.109375 1073.5625 1195.335938 1074.109375 C 1193.5625 1074.660156 1191.820312 1075.296875 1190.109375 1076.023438 C 1188.402344 1076.75 1186.734375 1077.558594 1185.105469 1078.449219 C 1183.476562 1079.339844 1181.898438 1080.3125 1180.367188 1081.363281 C 1178.835938 1082.414062 1177.363281 1083.539062 1175.945312 1084.738281 C 1174.527344 1085.9375 1173.171875 1087.203125 1171.882812 1088.539062 C 1170.554688 1089.851562 1169.296875 1091.226562 1168.109375 1092.664062 C 1166.917969 1094.101562 1165.800781 1095.59375 1164.761719 1097.144531 C 1163.71875 1098.691406 1162.753906 1100.289062 1161.871094 1101.929688 C 1160.984375 1103.574219 1160.183594 1105.257812 1159.464844 1106.980469 C 1158.75 1108.703125 1158.117188 1110.457031 1157.570312 1112.238281 C 1157.027344 1114.023438 1156.570312 1115.832031 1156.207031 1117.660156 C 1155.839844 1119.492188 1155.5625 1121.335938 1155.378906 1123.191406 C 1155.195312 1125.050781 1155.105469 1126.910156 1155.105469 1128.777344 C 1155.105469 1130.644531 1155.195312 1132.503906 1155.378906 1134.363281 C 1155.5625 1136.21875 1155.839844 1138.0625 1156.207031 1139.890625 C 1156.570312 1141.722656 1157.027344 1143.53125 1157.570312 1145.3125 C 1158.117188 1147.097656 1158.75 1148.851562 1159.464844 1150.574219 C 1160.183594 1152.296875 1160.984375 1153.980469 1161.871094 1155.625 C 1162.753906 1157.265625 1163.71875 1158.863281 1164.761719 1160.410156 C 1165.800781 1161.960938 1166.917969 1163.453125 1168.109375 1164.890625 C 1169.296875 1166.328125 1170.554688 1167.703125 1171.882812 1169.015625 L 1226.289062 1224.5 L 416.199219 1224.5 C 412.78125 1224.460938 409.367188 1224.339844 405.953125 1224.132812 C 402.542969 1223.929688 399.140625 1223.640625 395.742188 1223.269531 C 392.34375 1222.898438 388.957031 1222.441406 385.582031 1221.90625 C 382.207031 1221.371094 378.847656 1220.75 375.503906 1220.050781 C 372.15625 1219.351562 368.832031 1218.570312 365.523438 1217.707031 C 362.214844 1216.84375 358.933594 1215.902344 355.671875 1214.878906 C 352.410156 1213.859375 349.175781 1212.757812 345.96875 1211.578125 C 342.761719 1210.394531 339.585938 1209.140625 336.4375 1207.804688 C 333.292969 1206.46875 330.179688 1205.058594 327.101562 1203.570312 C 324.027344 1202.085938 320.984375 1200.523438 317.984375 1198.890625 C 314.984375 1197.253906 312.023438 1195.546875 309.105469 1193.769531 C 306.1875 1191.992188 303.3125 1190.140625 300.484375 1188.222656 C 297.660156 1186.304688 294.878906 1184.316406 292.148438 1182.261719 C 289.417969 1180.207031 286.738281 1178.089844 284.109375 1175.902344 C 281.480469 1173.71875 278.90625 1171.46875 276.390625 1169.160156 C 273.871094 1166.847656 271.410156 1164.480469 269.007812 1162.046875 C 266.605469 1159.617188 264.261719 1157.128906 261.980469 1154.585938 C 259.699219 1152.042969 257.480469 1149.441406 255.328125 1146.789062 C 253.171875 1144.136719 251.082031 1141.433594 249.058594 1138.679688 C 247.035156 1135.925781 245.082031 1133.121094 243.195312 1130.273438 C 241.308594 1127.421875 239.492188 1124.527344 237.746094 1121.589844 C 236 1118.652344 234.328125 1115.671875 232.726562 1112.652344 C 231.128906 1109.632812 229.601562 1106.578125 228.152344 1103.484375 C 226.699219 1100.386719 225.324219 1097.261719 224.027344 1094.097656 C 222.726562 1090.9375 221.507812 1087.746094 220.363281 1084.527344 C 219.21875 1081.304688 218.15625 1078.058594 217.171875 1074.785156 C 216.183594 1071.515625 215.28125 1068.21875 214.457031 1064.902344 C 213.632812 1061.585938 212.886719 1058.25 212.226562 1054.898438 C 211.5625 1051.546875 210.984375 1048.179688 210.484375 1044.796875 C 209.988281 1041.414062 209.574219 1038.023438 209.242188 1034.621094 C 208.90625 1031.222656 208.660156 1027.8125 208.492188 1024.402344 C 208.324219 1020.988281 208.242188 1017.570312 208.242188 1014.152344 C 208.242188 1010.734375 208.324219 1007.320312 208.492188 1003.90625 C 208.660156 1000.492188 208.90625 997.085938 209.242188 993.683594 C 209.574219 990.28125 209.988281 986.890625 210.484375 983.511719 C 210.984375 980.128906 211.5625 976.761719 212.226562 973.410156 C 212.886719 970.054688 213.632812 966.722656 214.457031 963.40625 C 215.28125 960.089844 216.183594 956.792969 217.171875 953.519531 C 218.15625 950.25 219.21875 947 220.363281 943.78125 C 221.507812 940.558594 222.726562 937.371094 224.027344 934.207031 C 225.324219 931.046875 226.699219 927.917969 228.152344 924.824219 C 229.601562 921.730469 231.128906 918.671875 232.726562 915.652344 C 234.328125 912.632812 236 909.65625 237.746094 906.714844 C 239.492188 903.777344 241.308594 900.882812 243.195312 898.035156 C 245.082031 895.183594 247.035156 892.382812 249.058594 889.628906 C 251.082031 886.875 253.171875 884.171875 255.328125 881.515625 C 257.480469 878.863281 259.699219 876.265625 261.980469 873.722656 C 264.261719 871.175781 266.605469 868.6875 269.007812 866.257812 C 271.410156 863.828125 273.871094 861.457031 276.390625 859.148438 C 278.90625 856.835938 281.480469 854.589844 284.109375 852.402344 C 286.738281 850.21875 289.417969 848.097656 292.148438 846.046875 C 294.878906 843.992188 297.65625 842.003906 300.484375 840.085938 C 303.3125 838.164062 306.1875 836.316406 309.105469 834.539062 C 312.023438 832.757812 314.984375 831.050781 317.984375 829.417969 C 320.984375 827.78125 324.023438 826.222656 327.101562 824.734375 C 330.179688 823.25 333.292969 821.839844 336.4375 820.503906 C 339.585938 819.167969 342.761719 817.910156 345.96875 816.730469 C 349.175781 815.550781 352.410156 814.449219 355.671875 813.425781 C 358.933594 812.40625 362.214844 811.460938 365.523438 810.601562 C 368.832031 809.738281 372.15625 808.957031 375.503906 808.257812 C 378.847656 807.554688 382.207031 806.9375 385.582031 806.402344 C 388.957031 805.863281 392.34375 805.410156 395.742188 805.039062 C 399.140625 804.667969 402.542969 804.378906 405.953125 804.175781 C 409.367188 803.96875 412.78125 803.847656 416.199219 803.808594 L 1098.125 803.808594 C 1103.417969 803.789062 1108.703125 803.640625 1113.988281 803.363281 C 1119.269531 803.082031 1124.542969 802.675781 1129.808594 802.140625 C 1135.070312 801.601562 1140.316406 800.9375 1145.546875 800.140625 C 1150.777344 799.347656 1155.988281 798.425781 1161.171875 797.375 C 1166.355469 796.324219 1171.511719 795.148438 1176.640625 793.84375 C 1181.769531 792.539062 1186.863281 791.113281 1191.917969 789.558594 C 1196.976562 788.007812 1201.992188 786.328125 1206.96875 784.53125 C 1211.941406 782.730469 1216.871094 780.808594 1221.75 778.769531 C 1226.632812 776.726562 1231.460938 774.566406 1236.234375 772.289062 C 1241.011719 770.011719 1245.726562 767.617188 1250.382812 765.109375 C 1255.042969 762.597656 1259.632812 759.976562 1264.164062 757.238281 C 1268.691406 754.503906 1273.152344 751.660156 1277.539062 748.707031 C 1281.929688 745.75 1286.242188 742.691406 1290.480469 739.527344 C 1294.722656 736.359375 1298.878906 733.09375 1302.957031 729.722656 C 1307.035156 726.351562 1311.03125 722.882812 1314.9375 719.316406 C 1318.847656 715.753906 1322.664062 712.09375 1326.394531 708.339844 C 1330.121094 704.585938 1333.757812 700.742188 1337.296875 696.8125 C 1340.835938 692.878906 1344.277344 688.863281 1347.621094 684.761719 C 1350.964844 680.664062 1354.203125 676.480469 1357.339844 672.222656 C 1360.480469 667.960938 1363.511719 663.628906 1366.4375 659.21875 C 1369.359375 654.8125 1372.175781 650.332031 1374.882812 645.785156 C 1377.585938 641.242188 1380.179688 636.628906 1382.65625 631.957031 C 1385.136719 627.28125 1387.5 622.550781 1389.746094 617.761719 C 1391.992188 612.96875 1394.121094 608.128906 1396.128906 603.234375 C 1398.136719 598.339844 1400.027344 593.398438 1401.792969 588.410156 C 1403.558594 583.425781 1405.203125 578.398438 1406.722656 573.332031 C 1408.242188 568.261719 1409.636719 563.160156 1410.90625 558.023438 C 1412.175781 552.886719 1413.316406 547.722656 1414.332031 542.53125 C 1415.347656 537.339844 1416.238281 532.125 1416.996094 526.890625 C 1417.757812 521.65625 1418.386719 516.402344 1418.890625 511.136719 C 1419.390625 505.871094 1419.765625 500.59375 1420.007812 495.308594 C 1420.25 490.023438 1420.363281 484.734375 1420.347656 479.445312 Z M 369.648438 144.722656 C 370.75 145.828125 371.820312 146.957031 372.863281 148.113281 C 373.90625 149.269531 374.921875 150.453125 375.910156 151.660156 C 376.894531 152.867188 377.851562 154.097656 378.777344 155.347656 C 379.703125 156.601562 380.597656 157.878906 381.460938 159.175781 C 382.324219 160.472656 383.15625 161.789062 383.953125 163.128906 C 384.753906 164.464844 385.519531 165.824219 386.25 167.199219 C 386.984375 168.574219 387.679688 169.964844 388.34375 171.375 C 389.011719 172.785156 389.640625 174.210938 390.234375 175.648438 C 390.828125 177.089844 391.386719 178.542969 391.910156 180.011719 C 392.433594 181.480469 392.921875 182.960938 393.371094 184.449219 C 393.824219 185.941406 394.238281 187.445312 394.613281 188.957031 C 394.992188 190.46875 395.332031 191.988281 395.636719 193.515625 C 395.9375 195.042969 396.203125 196.578125 396.433594 198.121094 C 396.660156 199.664062 396.851562 201.207031 397.003906 202.757812 C 397.15625 204.308594 397.269531 205.863281 397.34375 207.421875 C 397.421875 208.976562 397.460938 210.535156 397.460938 212.09375 C 397.460938 213.652344 397.421875 215.207031 397.34375 216.765625 C 397.269531 218.320312 397.15625 219.875 397.003906 221.425781 C 396.851562 222.976562 396.660156 224.523438 396.433594 226.0625 C 396.203125 227.605469 395.9375 229.140625 395.636719 230.667969 C 395.332031 232.195312 394.992188 233.71875 394.613281 235.230469 C 394.238281 236.742188 393.824219 238.242188 393.371094 239.734375 C 392.921875 241.226562 392.433594 242.703125 391.910156 244.171875 C 391.386719 245.640625 390.828125 247.09375 390.234375 248.535156 C 389.640625 249.976562 389.011719 251.398438 388.34375 252.808594 C 387.679688 254.21875 386.984375 255.613281 386.25 256.988281 C 385.519531 258.363281 384.753906 259.71875 383.953125 261.058594 C 383.15625 262.394531 382.324219 263.710938 381.460938 265.007812 C 380.597656 266.304688 379.703125 267.582031 378.777344 268.835938 C 377.851562 270.089844 376.894531 271.320312 375.910156 272.523438 C 374.921875 273.730469 373.90625 274.914062 372.863281 276.070312 C 371.820312 277.226562 370.75 278.359375 369.648438 279.464844 C 368 281.105469 366.292969 282.6875 364.527344 284.207031 C 362.761719 285.726562 360.941406 287.175781 359.070312 288.558594 C 357.195312 289.945312 355.273438 291.257812 353.304688 292.5 C 351.335938 293.742188 349.320312 294.910156 347.265625 296 C 345.207031 297.09375 343.113281 298.109375 340.984375 299.050781 C 338.851562 299.988281 336.6875 300.847656 334.496094 301.625 C 332.300781 302.40625 330.078125 303.101562 327.832031 303.71875 C 325.585938 304.332031 323.320312 304.863281 321.035156 305.3125 C 318.75 305.757812 316.453125 306.121094 314.140625 306.398438 C 311.828125 306.679688 309.507812 306.871094 307.183594 306.976562 C 304.855469 307.082031 302.527344 307.105469 300.199219 307.039062 C 297.871094 306.972656 295.550781 306.824219 293.234375 306.585938 C 290.917969 306.351562 288.613281 306.027344 286.320312 305.621094 C 284.027344 305.214844 281.75 304.722656 279.496094 304.148438 C 277.238281 303.574219 275.003906 302.917969 272.796875 302.175781 C 270.589844 301.4375 268.410156 300.617188 266.261719 299.71875 C 264.113281 298.816406 262.003906 297.839844 259.929688 296.78125 C 257.851562 295.726562 255.820312 294.59375 253.828125 293.386719 C 251.835938 292.179688 249.890625 290.902344 247.992188 289.550781 C 246.09375 288.203125 244.25 286.785156 242.457031 285.296875 C 240.664062 283.8125 238.929688 282.261719 237.25 280.644531 C 235.574219 279.03125 233.957031 277.355469 232.402344 275.621094 C 230.847656 273.890625 229.359375 272.101562 227.9375 270.257812 C 226.515625 268.414062 225.160156 266.519531 223.878906 264.574219 C 222.597656 262.632812 221.386719 260.644531 220.25 258.609375 C 219.113281 256.578125 218.054688 254.503906 217.074219 252.394531 C 216.089844 250.28125 215.1875 248.136719 214.363281 245.960938 C 213.539062 243.78125 212.792969 241.574219 212.132812 239.34375 C 211.472656 237.109375 210.890625 234.855469 210.398438 232.582031 C 209.902344 230.304688 209.492188 228.015625 209.164062 225.707031 C 208.839844 223.402344 208.597656 221.085938 208.445312 218.765625 C 208.289062 216.441406 208.21875 214.113281 208.238281 211.785156 C 208.210938 208.675781 208.339844 205.570312 208.625 202.472656 C 208.910156 199.375 209.347656 196.300781 209.945312 193.246094 C 210.539062 190.195312 211.285156 187.179688 212.179688 184.199219 C 213.078125 181.222656 214.121094 178.296875 215.3125 175.421875 C 216.503906 172.550781 217.839844 169.742188 219.3125 167.003906 C 220.785156 164.265625 222.390625 161.605469 224.132812 159.027344 C 225.871094 156.449219 227.738281 153.964844 229.730469 151.574219 C 231.71875 149.183594 233.824219 146.902344 236.042969 144.722656 C 237.128906 143.613281 238.242188 142.535156 239.378906 141.484375 C 240.519531 140.433594 241.683594 139.410156 242.875 138.417969 C 244.066406 137.421875 245.277344 136.460938 246.515625 135.527344 C 247.753906 134.59375 249.015625 133.691406 250.296875 132.820312 C 251.578125 131.949219 252.882812 131.113281 254.207031 130.304688 C 255.53125 129.5 256.875 128.726562 258.238281 127.988281 C 259.601562 127.25 260.980469 126.546875 262.378906 125.875 C 263.777344 125.203125 265.191406 124.570312 266.621094 123.96875 C 268.050781 123.367188 269.492188 122.804688 270.949219 122.277344 C 272.40625 121.746094 273.878906 121.253906 275.359375 120.800781 C 276.839844 120.34375 278.332031 119.925781 279.835938 119.546875 C 281.339844 119.164062 282.851562 118.820312 284.371094 118.515625 C 285.890625 118.207031 287.414062 117.941406 288.949219 117.710938 C 290.480469 117.480469 292.019531 117.289062 293.5625 117.132812 C 295.105469 116.980469 296.652344 116.863281 298.199219 116.789062 C 299.746094 116.710938 301.296875 116.671875 302.847656 116.671875 C 304.398438 116.671875 305.945312 116.710938 307.496094 116.789062 C 309.042969 116.863281 310.589844 116.980469 312.132812 117.132812 C 313.671875 117.289062 315.210938 117.480469 316.746094 117.710938 C 318.277344 117.941406 319.804688 118.207031 321.324219 118.515625 C 322.84375 118.820312 324.355469 119.164062 325.855469 119.546875 C 327.359375 119.925781 328.851562 120.34375 330.335938 120.800781 C 331.816406 121.253906 333.285156 121.746094 334.742188 122.277344 C 336.199219 122.804688 337.644531 123.367188 339.074219 123.96875 C 340.503906 124.570312 341.917969 125.203125 343.3125 125.875 C 344.710938 126.546875 346.09375 127.25 347.453125 127.988281 C 348.816406 128.726562 350.160156 129.5 351.484375 130.304688 C 352.808594 131.113281 354.113281 131.949219 355.394531 132.820312 C 356.679688 133.691406 357.9375 134.59375 359.175781 135.527344 C 360.414062 136.460938 361.628906 137.421875 362.820312 138.417969 C 364.007812 139.410156 365.171875 140.433594 366.3125 141.484375 C 367.453125 142.535156 368.5625 143.613281 369.648438 144.722656 Z M 369.648438 144.722656 " fill-opacity="1" fill-rule="evenodd"/></svg>