<svg xmlns="http://www.w3.org/2000/svg" xmlns:xlink="http://www.w3.org/1999/xlink" width="2000" zoomAndPan="magnify" viewBox="0 0 1500 1499.999933" height="2000" preserveAspectRatio="xMidYMid meet" version="1.0"><path fill="#000000" d="M 316.863281 175.023438 C 317.652344 175.832031 318.417969 176.65625 319.167969 177.503906 C 319.917969 178.347656 320.644531 179.210938 321.355469 180.089844 C 322.0625 180.96875 322.746094 181.863281 323.410156 182.777344 C 324.074219 183.691406 324.714844 184.621094 325.335938 185.5625 C 325.953125 186.507812 326.550781 187.464844 327.125 188.4375 C 327.695312 189.410156 328.246094 190.398438 328.769531 191.398438 C 329.296875 192.398438 329.796875 193.410156 330.273438 194.433594 C 330.746094 195.457031 331.199219 196.492188 331.625 197.535156 C 332.050781 198.582031 332.453125 199.636719 332.828125 200.703125 C 333.203125 201.765625 333.550781 202.839844 333.875 203.921875 C 334.195312 205.003906 334.492188 206.09375 334.765625 207.1875 C 335.035156 208.285156 335.277344 209.386719 335.496094 210.496094 C 335.710938 211.601562 335.902344 212.714844 336.066406 213.832031 C 336.230469 214.949219 336.363281 216.070312 336.472656 217.195312 C 336.582031 218.320312 336.664062 219.445312 336.71875 220.570312 C 336.773438 221.699219 336.800781 222.828125 336.800781 223.957031 C 336.800781 225.085938 336.773438 226.214844 336.71875 227.34375 C 336.664062 228.46875 336.582031 229.597656 336.472656 230.71875 C 336.363281 231.84375 336.230469 232.964844 336.066406 234.082031 C 335.902344 235.199219 335.710938 236.3125 335.496094 237.417969 C 335.277344 238.527344 335.035156 239.628906 334.765625 240.726562 C 334.492188 241.820312 334.195312 242.910156 333.875 243.992188 C 333.550781 245.074219 333.203125 246.148438 332.828125 247.210938 C 332.453125 248.277344 332.050781 249.332031 331.625 250.378906 C 331.199219 251.421875 330.746094 252.457031 330.273438 253.480469 C 329.796875 254.503906 329.296875 255.515625 328.769531 256.515625 C 328.246094 257.515625 327.695312 258.503906 327.125 259.476562 C 326.550781 260.449219 325.953125 261.40625 325.335938 262.351562 C 324.714844 263.296875 324.074219 264.222656 323.410156 265.136719 C 322.746094 266.050781 322.0625 266.945312 321.355469 267.824219 C 320.644531 268.707031 319.917969 269.566406 319.167969 270.414062 C 318.417969 271.257812 317.652344 272.082031 316.863281 272.890625 C 309.746094 280.089844 302.804688 287.460938 296.046875 295 C 289.289062 302.539062 282.71875 310.238281 276.335938 318.097656 C 269.953125 325.957031 263.765625 333.96875 257.773438 342.128906 C 251.78125 350.292969 245.988281 358.59375 240.402344 367.039062 C 234.8125 375.480469 229.433594 384.058594 224.265625 392.761719 C 219.09375 401.46875 214.136719 410.296875 209.398438 419.242188 C 204.65625 428.191406 200.136719 437.25 195.839844 446.417969 C 191.539062 455.585938 187.46875 464.851562 183.621094 474.21875 C 179.773438 483.585938 176.15625 493.039062 172.769531 502.582031 C 169.382812 512.125 166.230469 521.746094 163.3125 531.441406 C 160.394531 541.140625 157.714844 550.902344 155.269531 560.730469 C 152.828125 570.554688 150.628906 580.4375 148.667969 590.371094 C 146.707031 600.304688 144.988281 610.28125 143.511719 620.300781 C 142.039062 630.320312 140.808594 640.367188 139.824219 650.445312 C 138.839844 660.523438 138.101562 670.621094 137.605469 680.734375 C 137.113281 690.851562 136.867188 700.972656 136.867188 711.097656 C 136.867188 721.222656 137.113281 731.34375 137.605469 741.457031 C 138.101562 751.574219 138.839844 761.667969 139.824219 771.75 C 140.808594 781.828125 142.039062 791.875 143.511719 801.894531 C 144.988281 811.910156 146.707031 821.886719 148.667969 831.824219 C 150.628906 841.757812 152.828125 851.640625 155.269531 861.464844 C 157.714844 871.292969 160.394531 881.054688 163.3125 890.753906 C 166.230469 900.449219 169.382812 910.070312 172.769531 919.613281 C 176.15625 929.15625 179.773438 938.609375 183.621094 947.976562 C 187.46875 957.34375 191.539062 966.609375 195.839844 975.777344 C 200.136719 984.945312 204.65625 994.003906 209.398438 1002.953125 C 214.136719 1011.898438 219.09375 1020.726562 224.265625 1029.433594 C 229.433594 1038.136719 234.8125 1046.710938 240.402344 1055.15625 C 245.988281 1063.601562 251.78125 1071.902344 257.773438 1080.0625 C 263.765625 1088.226562 269.953125 1096.234375 276.335938 1104.097656 C 282.71875 1111.957031 289.289062 1119.65625 296.046875 1127.195312 C 302.804688 1134.734375 309.746094 1142.105469 316.863281 1149.304688 C 320.132812 1152.535156 323.050781 1156.058594 325.617188 1159.875 C 328.183594 1163.6875 330.347656 1167.722656 332.105469 1171.96875 C 333.863281 1176.21875 335.183594 1180.601562 336.066406 1185.113281 C 336.945312 1189.625 337.371094 1194.183594 337.339844 1198.78125 C 337.347656 1200.46875 337.296875 1202.152344 337.179688 1203.835938 C 337.066406 1205.519531 336.886719 1207.195312 336.648438 1208.867188 C 336.40625 1210.535156 336.105469 1212.195312 335.742188 1213.839844 C 335.378906 1215.488281 334.957031 1217.121094 334.472656 1218.738281 C 333.988281 1220.351562 333.445312 1221.949219 332.839844 1223.523438 C 332.238281 1225.101562 331.578125 1226.652344 330.859375 1228.175781 C 330.140625 1229.703125 329.367188 1231.203125 328.539062 1232.671875 C 327.707031 1234.140625 326.824219 1235.574219 325.890625 1236.980469 C 324.953125 1238.382812 323.964844 1239.75 322.929688 1241.078125 C 321.890625 1242.410156 320.804688 1243.699219 319.671875 1244.949219 C 318.539062 1246.195312 317.359375 1247.402344 316.136719 1248.566406 C 314.914062 1249.726562 313.652344 1250.839844 312.34375 1251.910156 C 311.039062 1252.976562 309.695312 1253.996094 308.316406 1254.960938 C 306.933594 1255.929688 305.519531 1256.847656 304.070312 1257.707031 C 302.621094 1258.570312 301.140625 1259.378906 299.628906 1260.132812 C 298.121094 1260.882812 296.585938 1261.582031 295.023438 1262.21875 C 293.464844 1262.859375 291.882812 1263.4375 290.277344 1263.957031 C 288.671875 1264.480469 287.050781 1264.941406 285.414062 1265.339844 C 283.777344 1265.742188 282.125 1266.082031 280.460938 1266.359375 C 278.796875 1266.636719 277.125 1266.851562 275.445312 1267.003906 C 273.765625 1267.160156 272.085938 1267.25 270.398438 1267.277344 C 268.710938 1267.308594 267.027344 1267.273438 265.34375 1267.175781 C 263.660156 1267.078125 261.980469 1266.921875 260.308594 1266.699219 C 258.636719 1266.476562 256.976562 1266.195312 255.324219 1265.851562 C 253.675781 1265.503906 252.039062 1265.097656 250.417969 1264.632812 C 248.796875 1264.167969 247.195312 1263.640625 245.613281 1263.054688 C 244.03125 1262.46875 242.476562 1261.824219 240.941406 1261.125 C 239.40625 1260.421875 237.902344 1259.664062 236.421875 1258.851562 C 234.945312 1258.039062 233.5 1257.171875 232.085938 1256.25 C 230.675781 1255.332031 229.296875 1254.359375 227.957031 1253.335938 C 226.613281 1252.3125 225.3125 1251.242188 224.050781 1250.121094 C 222.789062 1249.003906 221.574219 1247.835938 220.398438 1246.628906 C 211.703125 1237.824219 203.226562 1228.816406 194.972656 1219.601562 C 186.714844 1210.386719 178.691406 1200.972656 170.890625 1191.367188 C 163.09375 1181.761719 155.535156 1171.96875 148.214844 1161.996094 C 140.894531 1152.019531 133.820312 1141.875 126.996094 1131.554688 C 120.167969 1121.234375 113.597656 1110.753906 107.28125 1100.113281 C 100.964844 1089.472656 94.914062 1078.6875 89.121094 1067.75 C 83.332031 1056.816406 77.8125 1045.746094 72.558594 1034.542969 C 67.308594 1023.339844 62.332031 1012.011719 57.632812 1000.566406 C 52.933594 989.121094 48.515625 977.566406 44.378906 965.902344 C 40.242188 954.242188 36.390625 942.484375 32.828125 930.636719 C 29.261719 918.785156 25.988281 906.855469 23.003906 894.847656 C 20.023438 882.839844 17.332031 870.765625 14.9375 858.625 C 12.542969 846.484375 10.445312 834.292969 8.644531 822.050781 C 6.839844 809.808594 5.339844 797.527344 4.136719 785.210938 C 2.933594 772.894531 2.03125 760.558594 1.425781 748.199219 C 0.824219 735.839844 0.523438 723.472656 0.523438 711.097656 C 0.523438 698.722656 0.824219 686.355469 1.425781 673.996094 C 2.03125 661.636719 2.933594 649.300781 4.136719 636.984375 C 5.339844 624.667969 6.839844 612.386719 8.644531 600.144531 C 10.445312 587.902344 12.542969 575.710938 14.9375 563.570312 C 17.332031 551.429688 20.023438 539.355469 23.003906 527.347656 C 25.988281 515.339844 29.261719 503.410156 32.828125 491.558594 C 36.390625 479.710938 40.242188 467.953125 44.378906 456.292969 C 48.515625 444.628906 52.933594 433.074219 57.632812 421.628906 C 62.332031 410.183594 67.308594 398.855469 72.558594 387.652344 C 77.8125 376.449219 83.332031 365.378906 89.121094 354.445312 C 94.914062 343.507812 100.964844 332.722656 107.28125 322.082031 C 113.597656 311.441406 120.167969 300.960938 126.996094 290.640625 C 133.820312 280.320312 140.894531 270.175781 148.214844 260.199219 C 155.535156 250.226562 163.09375 240.433594 170.890625 230.828125 C 178.691406 221.222656 186.714844 211.808594 194.972656 202.59375 C 203.226562 193.378906 211.703125 184.371094 220.398438 175.566406 C 223.5 172.328125 226.894531 169.429688 230.578125 166.875 C 234.265625 164.316406 238.167969 162.148438 242.285156 160.375 C 246.40625 158.601562 250.660156 157.253906 255.050781 156.332031 C 259.4375 155.414062 263.875 154.9375 268.359375 154.90625 C 272.859375 154.949219 277.3125 155.417969 281.71875 156.316406 C 286.128906 157.214844 290.410156 158.527344 294.566406 160.25 C 298.722656 161.972656 302.675781 164.078125 306.425781 166.5625 C 310.175781 169.046875 313.65625 171.871094 316.863281 175.023438 Z M 1185.578125 1149.304688 C 1183.902344 1150.890625 1182.3125 1152.558594 1180.8125 1154.304688 C 1179.308594 1156.054688 1177.898438 1157.875 1176.582031 1159.769531 C 1175.265625 1161.664062 1174.050781 1163.617188 1172.933594 1165.636719 C 1171.820312 1167.65625 1170.8125 1169.726562 1169.910156 1171.851562 C 1169.007812 1173.972656 1168.21875 1176.136719 1167.539062 1178.339844 C 1166.859375 1180.542969 1166.296875 1182.777344 1165.847656 1185.039062 C 1165.398438 1187.300781 1165.066406 1189.582031 1164.851562 1191.878906 C 1164.636719 1194.171875 1164.539062 1196.476562 1164.5625 1198.78125 C 1164.558594 1199.902344 1164.585938 1201.023438 1164.636719 1202.144531 C 1164.691406 1203.261719 1164.773438 1204.382812 1164.878906 1205.496094 C 1164.988281 1206.613281 1165.125 1207.726562 1165.285156 1208.835938 C 1165.449219 1209.945312 1165.640625 1211.050781 1165.855469 1212.148438 C 1166.074219 1213.25 1166.316406 1214.34375 1166.589844 1215.429688 C 1166.859375 1216.519531 1167.15625 1217.601562 1167.480469 1218.671875 C 1167.804688 1219.746094 1168.15625 1220.8125 1168.53125 1221.867188 C 1168.910156 1222.921875 1169.3125 1223.96875 1169.738281 1225.007812 C 1170.167969 1226.042969 1170.621094 1227.066406 1171.097656 1228.082031 C 1171.574219 1229.09375 1172.078125 1230.097656 1172.605469 1231.085938 C 1173.132812 1232.074219 1173.6875 1233.050781 1174.261719 1234.011719 C 1174.835938 1234.976562 1175.4375 1235.921875 1176.058594 1236.855469 C 1176.679688 1237.789062 1177.324219 1238.707031 1177.992188 1239.605469 C 1178.660156 1240.507812 1179.347656 1241.390625 1180.058594 1242.257812 C 1180.769531 1243.125 1181.5 1243.972656 1182.253906 1244.804688 C 1183.003906 1245.636719 1183.777344 1246.449219 1184.570312 1247.242188 C 1185.363281 1248.035156 1186.171875 1248.808594 1187.003906 1249.5625 C 1187.835938 1250.3125 1188.683594 1251.046875 1189.550781 1251.757812 C 1190.414062 1252.46875 1191.296875 1253.160156 1192.199219 1253.828125 C 1193.097656 1254.496094 1194.015625 1255.140625 1194.945312 1255.761719 C 1195.878906 1256.386719 1196.824219 1256.984375 1197.789062 1257.5625 C 1198.75 1258.140625 1199.722656 1258.691406 1200.710938 1259.21875 C 1201.699219 1259.746094 1202.703125 1260.25 1203.714844 1260.730469 C 1204.730469 1261.210938 1205.753906 1261.664062 1206.789062 1262.09375 C 1207.824219 1262.519531 1208.871094 1262.925781 1209.925781 1263.300781 C 1210.980469 1263.679688 1212.046875 1264.03125 1213.117188 1264.355469 C 1214.191406 1264.679688 1215.273438 1264.976562 1216.359375 1265.25 C 1217.445312 1265.519531 1218.539062 1265.765625 1219.640625 1265.984375 C 1220.738281 1266.203125 1221.84375 1266.394531 1222.953125 1266.554688 C 1224.0625 1266.71875 1225.171875 1266.855469 1226.289062 1266.964844 C 1227.402344 1267.074219 1228.523438 1267.15625 1229.640625 1267.210938 C 1230.761719 1267.261719 1231.882812 1267.289062 1233.003906 1267.289062 C 1237.566406 1267.261719 1242.085938 1266.789062 1246.558594 1265.871094 C 1251.03125 1264.953125 1255.371094 1263.609375 1259.578125 1261.835938 C 1263.785156 1260.0625 1267.777344 1257.898438 1271.558594 1255.339844 C 1275.339844 1252.78125 1278.832031 1249.875 1282.042969 1246.628906 C 1290.71875 1237.8125 1299.175781 1228.796875 1307.410156 1219.570312 C 1315.648438 1210.347656 1323.65625 1200.925781 1331.4375 1191.3125 C 1339.214844 1181.699219 1346.757812 1171.902344 1354.058594 1161.921875 C 1361.363281 1151.941406 1368.417969 1141.789062 1375.230469 1131.464844 C 1382.039062 1121.140625 1388.59375 1110.660156 1394.894531 1100.015625 C 1401.195312 1089.375 1407.230469 1078.585938 1413.007812 1067.648438 C 1418.785156 1056.710938 1424.289062 1045.640625 1429.527344 1034.4375 C 1434.765625 1023.234375 1439.730469 1011.910156 1444.417969 1000.464844 C 1449.105469 989.019531 1453.511719 977.464844 1457.636719 965.808594 C 1461.765625 954.148438 1465.605469 942.394531 1469.160156 930.546875 C 1472.714844 918.703125 1475.980469 906.777344 1478.957031 894.769531 C 1481.929688 882.765625 1484.613281 870.695312 1487 858.558594 C 1489.390625 846.421875 1491.484375 834.238281 1493.28125 822 C 1495.078125 809.761719 1496.574219 797.488281 1497.773438 785.179688 C 1498.976562 772.867188 1499.875 760.535156 1500.476562 748.183594 C 1501.078125 735.828125 1501.378906 723.464844 1501.378906 711.097656 C 1501.378906 698.730469 1501.078125 686.367188 1500.476562 674.015625 C 1499.875 661.660156 1498.976562 649.328125 1497.773438 637.015625 C 1496.574219 624.707031 1495.078125 612.433594 1493.28125 600.195312 C 1491.484375 587.957031 1489.390625 575.773438 1487 563.636719 C 1484.613281 551.5 1481.929688 539.429688 1478.957031 527.425781 C 1475.980469 515.417969 1472.714844 503.492188 1469.160156 491.648438 C 1465.605469 479.800781 1461.765625 468.046875 1457.636719 456.386719 C 1453.511719 444.730469 1449.105469 433.175781 1444.417969 421.730469 C 1439.730469 410.285156 1434.765625 398.960938 1429.527344 387.757812 C 1424.289062 376.554688 1418.785156 365.484375 1413.007812 354.546875 C 1407.230469 343.609375 1401.195312 332.820312 1394.894531 322.179688 C 1388.59375 311.535156 1382.039062 301.054688 1375.226562 290.730469 C 1368.417969 280.40625 1361.363281 270.253906 1354.058594 260.273438 C 1346.757812 250.292969 1339.214844 240.496094 1331.4375 230.882812 C 1323.65625 221.269531 1315.648438 211.847656 1307.410156 202.625 C 1299.175781 193.398438 1290.71875 184.382812 1282.042969 175.566406 C 1280.46875 173.90625 1278.8125 172.324219 1277.078125 170.828125 C 1275.34375 169.335938 1273.539062 167.929688 1271.664062 166.617188 C 1269.785156 165.304688 1267.847656 164.089844 1265.847656 162.972656 C 1263.847656 161.855469 1261.796875 160.84375 1259.695312 159.933594 C 1257.59375 159.027344 1255.453125 158.226562 1253.269531 157.535156 C 1251.085938 156.84375 1248.875 156.261719 1246.632812 155.792969 C 1244.390625 155.328125 1242.128906 154.972656 1239.851562 154.734375 C 1237.574219 154.496094 1235.292969 154.371094 1233.003906 154.363281 C 1231.300781 154.375 1229.605469 154.449219 1227.910156 154.589844 C 1226.21875 154.726562 1224.53125 154.925781 1222.851562 155.1875 C 1221.171875 155.449219 1219.503906 155.773438 1217.851562 156.160156 C 1216.195312 156.546875 1214.554688 156.992188 1212.933594 157.5 C 1211.3125 158.007812 1209.710938 158.574219 1208.128906 159.199219 C 1206.550781 159.824219 1204.992188 160.507812 1203.464844 161.246094 C 1201.933594 161.988281 1200.433594 162.785156 1198.960938 163.636719 C 1197.492188 164.488281 1196.054688 165.394531 1194.648438 166.351562 C 1193.246094 167.308594 1191.878906 168.316406 1190.550781 169.375 C 1189.21875 170.4375 1187.929688 171.542969 1186.683594 172.695312 C 1185.4375 173.851562 1184.234375 175.050781 1183.074219 176.292969 C 1181.914062 177.539062 1180.804688 178.824219 1179.738281 180.148438 C 1178.675781 181.472656 1177.660156 182.835938 1176.699219 184.238281 C 1175.734375 185.640625 1174.824219 187.074219 1173.96875 188.542969 C 1173.109375 190.007812 1172.308594 191.507812 1171.5625 193.035156 C 1170.816406 194.5625 1170.128906 196.117188 1169.496094 197.695312 C 1168.863281 199.273438 1168.292969 200.871094 1167.777344 202.492188 C 1167.265625 204.113281 1166.8125 205.75 1166.421875 207.40625 C 1166.027344 209.058594 1165.699219 210.726562 1165.429688 212.40625 C 1165.160156 214.082031 1164.953125 215.769531 1164.808594 217.464844 C 1164.664062 219.160156 1164.582031 220.855469 1164.5625 222.554688 C 1164.546875 224.253906 1164.589844 225.953125 1164.695312 227.652344 C 1164.804688 229.347656 1164.972656 231.039062 1165.203125 232.722656 C 1165.4375 234.40625 1165.730469 236.082031 1166.085938 237.742188 C 1166.441406 239.40625 1166.859375 241.050781 1167.335938 242.683594 C 1167.8125 244.316406 1168.347656 245.929688 1168.945312 247.519531 C 1169.542969 249.113281 1170.195312 250.679688 1170.910156 252.222656 C 1171.621094 253.765625 1172.390625 255.28125 1173.214844 256.769531 C 1174.039062 258.253906 1174.917969 259.710938 1175.851562 261.132812 C 1176.78125 262.554688 1177.765625 263.9375 1178.800781 265.289062 C 1179.835938 266.636719 1180.917969 267.945312 1182.046875 269.214844 C 1183.179688 270.484375 1184.355469 271.707031 1185.578125 272.890625 C 1192.675781 280.101562 1199.59375 287.480469 1206.335938 295.03125 C 1213.074219 302.578125 1219.625 310.285156 1225.992188 318.152344 C 1232.355469 326.019531 1238.527344 334.039062 1244.5 342.203125 C 1250.476562 350.371094 1256.25 358.679688 1261.820312 367.125 C 1267.394531 375.574219 1272.757812 384.152344 1277.910156 392.859375 C 1283.066406 401.570312 1288.007812 410.398438 1292.734375 419.347656 C 1297.457031 428.296875 1301.964844 437.355469 1306.25 446.523438 C 1310.535156 455.691406 1314.59375 464.957031 1318.429688 474.320312 C 1322.265625 483.6875 1325.871094 493.140625 1329.246094 502.679688 C 1332.625 512.222656 1335.765625 521.839844 1338.675781 531.53125 C 1341.582031 541.226562 1344.253906 550.984375 1346.6875 560.808594 C 1349.125 570.628906 1351.316406 580.507812 1353.273438 590.4375 C 1355.226562 600.367188 1356.9375 610.339844 1358.410156 620.351562 C 1359.878906 630.363281 1361.105469 640.410156 1362.085938 650.480469 C 1363.066406 660.554688 1363.804688 670.644531 1364.296875 680.753906 C 1364.789062 690.863281 1365.035156 700.976562 1365.035156 711.097656 C 1365.035156 721.21875 1364.789062 731.332031 1364.296875 741.441406 C 1363.804688 751.550781 1363.066406 761.640625 1362.085938 771.714844 C 1361.105469 781.785156 1359.878906 791.828125 1358.410156 801.84375 C 1356.9375 811.855469 1355.226562 821.828125 1353.273438 831.757812 C 1351.316406 841.6875 1349.125 851.566406 1346.6875 861.386719 C 1344.253906 871.210938 1341.582031 880.96875 1338.675781 890.664062 C 1335.765625 900.355469 1332.625 909.972656 1329.246094 919.515625 C 1325.871094 929.054688 1322.265625 938.507812 1318.429688 947.875 C 1314.59375 957.238281 1310.535156 966.503906 1306.25 975.671875 C 1301.964844 984.839844 1297.457031 993.898438 1292.734375 1002.847656 C 1288.007812 1011.796875 1283.066406 1020.625 1277.910156 1029.335938 C 1272.757812 1038.042969 1267.394531 1046.621094 1261.820312 1055.070312 C 1256.25 1063.515625 1250.476562 1071.824219 1244.5 1079.992188 C 1238.527344 1088.15625 1232.355469 1096.175781 1225.992188 1104.042969 C 1219.625 1111.910156 1213.074219 1119.617188 1206.335938 1127.164062 C 1199.59375 1134.714844 1192.675781 1142.09375 1185.578125 1149.304688 Z M 435.421875 1103.09375 L 438.117188 1105.269531 C 441.0625 1108.097656 444.25 1110.621094 447.675781 1112.84375 C 451.101562 1115.066406 454.707031 1116.945312 458.492188 1118.480469 C 462.273438 1120.015625 466.167969 1121.183594 470.171875 1121.976562 C 474.179688 1122.773438 478.222656 1123.183594 482.304688 1123.210938 C 486.996094 1123.148438 491.632812 1122.625 496.214844 1121.640625 C 500.800781 1120.65625 505.242188 1119.230469 509.546875 1117.363281 C 513.847656 1115.496094 517.921875 1113.226562 521.773438 1110.550781 C 525.625 1107.875 529.175781 1104.84375 532.425781 1101.464844 C 533.9375 1099.78125 535.367188 1098.027344 536.714844 1096.210938 C 538.0625 1094.390625 539.320312 1092.511719 540.488281 1090.570312 C 541.65625 1088.632812 542.730469 1086.640625 543.710938 1084.601562 C 544.691406 1082.558594 545.570312 1080.476562 546.351562 1078.351562 C 547.136719 1076.226562 547.8125 1074.070312 548.390625 1071.878906 C 548.96875 1069.691406 549.4375 1067.480469 549.804688 1065.246094 C 550.171875 1063.011719 550.429688 1060.761719 550.585938 1058.503906 C 550.738281 1056.246094 550.78125 1053.984375 550.71875 1051.722656 C 550.660156 1049.457031 550.488281 1047.203125 550.214844 1044.953125 C 549.9375 1042.707031 549.554688 1040.480469 549.066406 1038.269531 C 548.578125 1036.058594 547.984375 1033.875 547.289062 1031.71875 C 546.59375 1029.566406 545.800781 1027.449219 544.902344 1025.367188 C 544.003906 1023.289062 543.011719 1021.257812 541.921875 1019.273438 C 540.832031 1017.289062 539.652344 1015.359375 538.378906 1013.488281 C 537.105469 1011.617188 535.746094 1009.808594 534.300781 1008.066406 C 532.855469 1006.324219 531.332031 1004.652344 529.730469 1003.054688 C 524.996094 998.246094 520.382812 993.320312 515.890625 988.289062 C 511.398438 983.253906 507.03125 978.113281 502.785156 972.867188 C 498.542969 967.621094 494.429688 962.273438 490.445312 956.824219 C 486.464844 951.378906 482.613281 945.839844 478.898438 940.203125 C 475.183594 934.570312 471.609375 928.851562 468.171875 923.042969 C 464.738281 917.234375 461.441406 911.347656 458.292969 905.378906 C 455.140625 899.410156 452.136719 893.371094 449.28125 887.257812 C 446.425781 881.144531 443.71875 874.964844 441.160156 868.71875 C 438.605469 862.472656 436.199219 856.167969 433.949219 849.808594 C 431.699219 843.445312 429.605469 837.03125 427.664062 830.566406 C 425.726562 824.101562 423.945312 817.597656 422.320312 811.046875 C 420.699219 804.496094 419.234375 797.910156 417.933594 791.285156 C 416.628906 784.664062 415.488281 778.015625 414.507812 771.339844 C 413.527344 764.660156 412.710938 757.964844 412.058594 751.246094 C 411.402344 744.53125 410.910156 737.800781 410.585938 731.058594 C 410.257812 724.320312 410.09375 717.574219 410.09375 710.824219 C 410.09375 704.078125 410.257812 697.332031 410.585938 690.589844 C 410.910156 683.851562 411.402344 677.121094 412.058594 670.40625 C 412.710938 663.6875 413.527344 656.992188 414.507812 650.3125 C 415.488281 643.636719 416.628906 636.988281 417.933594 630.363281 C 419.234375 623.742188 420.699219 617.15625 422.320312 610.605469 C 423.945312 604.054688 425.726562 597.546875 427.664062 591.085938 C 429.605469 584.621094 431.699219 578.207031 433.949219 571.84375 C 436.199219 565.484375 438.605469 559.179688 441.160156 552.933594 C 443.71875 546.6875 446.425781 540.507812 449.28125 534.394531 C 452.136719 528.28125 455.140625 522.238281 458.292969 516.273438 C 461.441406 510.304688 464.738281 504.417969 468.171875 498.609375 C 471.609375 492.800781 475.183594 487.082031 478.898438 481.445312 C 482.613281 475.8125 486.464844 470.273438 490.445312 464.824219 C 494.429688 459.378906 498.542969 454.03125 502.785156 448.785156 C 507.03125 443.539062 511.398438 438.398438 515.890625 433.363281 C 520.382812 428.328125 524.996094 423.40625 529.730469 418.597656 C 530.953125 417.414062 532.128906 416.191406 533.257812 414.921875 C 534.390625 413.652344 535.472656 412.34375 536.507812 410.996094 C 537.542969 409.644531 538.527344 408.261719 539.457031 406.839844 C 540.390625 405.417969 541.269531 403.960938 542.09375 402.476562 C 542.917969 400.988281 543.683594 399.472656 544.398438 397.929688 C 545.109375 396.386719 545.765625 394.820312 546.363281 393.226562 C 546.957031 391.636719 547.496094 390.023438 547.972656 388.390625 C 548.449219 386.757812 548.867188 385.113281 549.222656 383.449219 C 549.578125 381.789062 549.871094 380.113281 550.101562 378.429688 C 550.335938 376.746094 550.503906 375.054688 550.609375 373.359375 C 550.71875 371.660156 550.761719 369.960938 550.742188 368.261719 C 550.722656 366.5625 550.640625 364.867188 550.5 363.171875 C 550.355469 361.476562 550.148438 359.789062 549.878906 358.113281 C 549.609375 356.433594 549.277344 354.765625 548.886719 353.113281 C 548.496094 351.457031 548.042969 349.820312 547.527344 348.199219 C 547.015625 346.578125 546.441406 344.980469 545.8125 343.402344 C 545.179688 341.824219 544.492188 340.269531 543.746094 338.742188 C 543 337.214844 542.195312 335.71875 541.339844 334.25 C 540.480469 332.78125 539.570312 331.347656 538.609375 329.945312 C 537.644531 328.542969 536.632812 327.179688 535.566406 325.855469 C 534.503906 324.53125 533.390625 323.246094 532.234375 322 C 531.074219 320.757812 529.871094 319.558594 528.625 318.40625 C 527.375 317.25 526.085938 316.144531 524.757812 315.085938 C 523.429688 314.023438 522.0625 313.015625 520.65625 312.058594 C 519.253906 311.101562 517.816406 310.195312 516.34375 309.34375 C 514.875 308.492188 513.375 307.695312 511.84375 306.957031 C 510.3125 306.214844 508.757812 305.53125 507.179688 304.90625 C 505.597656 304.28125 503.996094 303.714844 502.375 303.207031 C 500.75 302.699219 499.113281 302.253906 497.457031 301.867188 C 495.800781 301.480469 494.136719 301.15625 492.457031 300.894531 C 490.777344 300.632812 489.089844 300.433594 487.394531 300.296875 C 485.703125 300.15625 484.003906 300.082031 482.304688 300.070312 C 480.015625 300.078125 477.730469 300.203125 475.453125 300.441406 C 473.175781 300.679688 470.917969 301.035156 468.675781 301.5 C 466.433594 301.96875 464.222656 302.550781 462.039062 303.242188 C 459.855469 303.933594 457.714844 304.734375 455.613281 305.640625 C 453.511719 306.550781 451.460938 307.5625 449.460938 308.679688 C 447.460938 309.796875 445.523438 311.011719 443.644531 312.324219 C 441.769531 313.636719 439.964844 315.042969 438.230469 316.535156 C 436.496094 318.03125 434.839844 319.613281 433.265625 321.273438 C 426.933594 327.714844 420.761719 334.308594 414.75 341.050781 C 408.738281 347.789062 402.894531 354.675781 397.21875 361.703125 C 391.542969 368.730469 386.042969 375.890625 380.71875 383.183594 C 375.390625 390.480469 370.246094 397.898438 365.28125 405.445312 C 360.316406 412.992188 355.535156 420.652344 350.945312 428.433594 C 346.351562 436.210938 341.953125 444.097656 337.746094 452.089844 C 333.539062 460.085938 329.527344 468.175781 325.714844 476.367188 C 321.902344 484.554688 318.292969 492.832031 314.882812 501.195312 C 311.472656 509.5625 308.269531 518.003906 305.269531 526.527344 C 302.273438 535.046875 299.484375 543.636719 296.902344 552.292969 C 294.324219 560.953125 291.957031 569.667969 289.800781 578.441406 C 287.648438 587.210938 285.707031 596.03125 283.980469 604.898438 C 282.257812 613.769531 280.75 622.671875 279.457031 631.613281 C 278.167969 640.554688 277.09375 649.519531 276.242188 658.515625 C 275.386719 667.507812 274.75 676.515625 274.335938 685.539062 C 273.921875 694.566406 273.726562 703.59375 273.75 712.628906 C 273.777344 721.660156 274.019531 730.6875 274.484375 739.710938 C 274.949219 748.730469 275.636719 757.738281 276.539062 766.726562 C 277.441406 775.714844 278.5625 784.675781 279.90625 793.609375 C 281.246094 802.542969 282.800781 811.4375 284.578125 820.296875 C 286.351562 829.152344 288.339844 837.964844 290.542969 846.722656 C 292.746094 855.484375 295.160156 864.1875 297.789062 872.828125 C 300.414062 881.472656 303.25 890.046875 306.296875 898.550781 C 309.339844 907.054688 312.589844 915.480469 316.046875 923.828125 C 319.503906 932.171875 323.160156 940.429688 327.019531 948.597656 C 330.875 956.765625 334.929688 964.835938 339.183594 972.804688 C 343.433594 980.777344 347.875 988.636719 352.511719 996.390625 C 357.144531 1004.144531 361.964844 1011.78125 366.972656 1019.300781 C 371.980469 1026.816406 377.164062 1034.210938 382.53125 1041.476562 C 387.898438 1048.742188 393.4375 1055.871094 399.152344 1062.867188 C 404.867188 1069.863281 410.75 1076.714844 416.796875 1083.421875 C 422.84375 1090.128906 429.054688 1096.6875 435.421875 1103.09375 Z M 979.714844 324.539062 C 978.160156 326.144531 976.679688 327.820312 975.28125 329.570312 C 973.886719 331.316406 972.574219 333.125 971.347656 334.996094 C 970.121094 336.867188 968.984375 338.792969 967.941406 340.773438 C 966.898438 342.753906 965.949219 344.777344 965.097656 346.847656 C 964.246094 348.914062 963.496094 351.019531 962.84375 353.160156 C 962.191406 355.300781 961.640625 357.46875 961.195312 359.660156 C 960.75 361.855469 960.410156 364.0625 960.171875 366.289062 C 959.933594 368.511719 959.804688 370.746094 959.78125 372.984375 C 959.753906 375.21875 959.835938 377.453125 960.023438 379.683594 C 960.210938 381.914062 960.503906 384.128906 960.902344 386.332031 C 961.296875 388.535156 961.800781 390.710938 962.402344 392.867188 C 963.007812 395.023438 963.710938 397.144531 964.519531 399.230469 C 965.324219 401.320312 966.226562 403.363281 967.226562 405.367188 C 968.226562 407.367188 969.316406 409.316406 970.503906 411.214844 C 971.6875 413.113281 972.957031 414.953125 974.316406 416.730469 C 975.675781 418.507812 977.117188 420.214844 978.636719 421.855469 C 983.277344 426.6875 987.800781 431.625 992.199219 436.671875 C 996.601562 441.71875 1000.882812 446.867188 1005.035156 452.121094 C 1009.191406 457.375 1013.214844 462.726562 1017.113281 468.171875 C 1021.007812 473.621094 1024.773438 479.15625 1028.402344 484.785156 C 1032.03125 490.414062 1035.523438 496.128906 1038.878906 501.921875 C 1042.234375 507.71875 1045.449219 513.59375 1048.523438 519.546875 C 1051.59375 525.496094 1054.523438 531.519531 1057.304688 537.609375 C 1060.089844 543.703125 1062.722656 549.859375 1065.210938 556.078125 C 1067.695312 562.296875 1070.03125 568.574219 1072.214844 574.90625 C 1074.398438 581.238281 1076.429688 587.617188 1078.308594 594.046875 C 1080.183594 600.476562 1081.90625 606.949219 1083.472656 613.460938 C 1085.039062 619.972656 1086.445312 626.519531 1087.699219 633.097656 C 1088.949219 639.679688 1090.039062 646.285156 1090.972656 652.917969 C 1091.90625 659.550781 1092.679688 666.203125 1093.292969 672.875 C 1093.90625 679.542969 1094.355469 686.226562 1094.648438 692.917969 C 1094.9375 699.609375 1095.070312 706.304688 1095.039062 713 C 1095.007812 719.699219 1094.8125 726.394531 1094.460938 733.082031 C 1094.109375 739.769531 1093.59375 746.449219 1092.917969 753.113281 C 1092.246094 759.777344 1091.410156 766.421875 1090.417969 773.042969 C 1089.421875 779.667969 1088.269531 786.265625 1086.957031 792.832031 C 1085.644531 799.402344 1084.175781 805.933594 1082.550781 812.429688 C 1080.925781 818.929688 1079.144531 825.382812 1077.207031 831.796875 C 1075.269531 838.207031 1073.179688 844.570312 1070.9375 850.878906 C 1068.691406 857.191406 1066.300781 863.445312 1063.753906 869.640625 C 1061.210938 875.835938 1058.519531 881.96875 1055.679688 888.035156 C 1052.839844 894.101562 1049.859375 900.09375 1046.730469 906.019531 C 1043.601562 911.941406 1040.335938 917.785156 1036.925781 923.550781 C 1033.515625 929.316406 1029.972656 934.996094 1026.289062 940.589844 C 1022.605469 946.183594 1018.792969 951.6875 1014.84375 957.097656 C 1010.898438 962.507812 1006.824219 967.820312 1002.621094 973.035156 C 998.417969 978.25 994.09375 983.359375 989.644531 988.367188 C 985.195312 993.371094 980.628906 998.269531 975.945312 1003.054688 C 974.722656 1004.238281 973.546875 1005.460938 972.414062 1006.730469 C 971.28125 1008 970.199219 1009.308594 969.164062 1010.65625 C 968.132812 1012.007812 967.148438 1013.390625 966.214844 1014.8125 C 965.285156 1016.234375 964.40625 1017.6875 963.582031 1019.175781 C 962.757812 1020.664062 961.988281 1022.175781 961.277344 1023.722656 C 960.5625 1025.265625 959.910156 1026.832031 959.3125 1028.425781 C 958.714844 1030.015625 958.179688 1031.628906 957.703125 1033.257812 C 957.222656 1034.890625 956.808594 1036.539062 956.453125 1038.199219 C 956.097656 1039.863281 955.800781 1041.535156 955.570312 1043.222656 C 955.339844 1044.90625 955.167969 1046.597656 955.0625 1048.292969 C 954.957031 1049.988281 954.910156 1051.6875 954.929688 1053.386719 C 954.949219 1055.089844 955.03125 1056.785156 955.175781 1058.480469 C 955.320312 1060.171875 955.527344 1061.859375 955.796875 1063.539062 C 956.0625 1065.21875 956.394531 1066.882812 956.785156 1068.539062 C 957.179688 1070.191406 957.632812 1071.828125 958.144531 1073.449219 C 958.660156 1075.070312 959.230469 1076.671875 959.863281 1078.25 C 960.492188 1079.828125 961.183594 1081.378906 961.929688 1082.90625 C 962.675781 1084.433594 963.476562 1085.933594 964.335938 1087.402344 C 965.191406 1088.867188 966.101562 1090.304688 967.066406 1091.703125 C 968.027344 1093.105469 969.042969 1094.46875 970.105469 1095.792969 C 971.167969 1097.121094 972.28125 1098.402344 973.441406 1099.648438 C 974.597656 1100.890625 975.800781 1102.089844 977.050781 1103.246094 C 978.296875 1104.398438 979.585938 1105.503906 980.917969 1106.566406 C 982.246094 1107.625 983.613281 1108.632812 985.015625 1109.589844 C 986.421875 1110.546875 987.859375 1111.453125 989.328125 1112.304688 C 990.800781 1113.15625 992.300781 1113.953125 993.832031 1114.691406 C 995.359375 1115.433594 996.914062 1116.117188 998.496094 1116.742188 C 1000.074219 1117.367188 1001.675781 1117.933594 1003.300781 1118.441406 C 1004.921875 1118.949219 1006.558594 1119.394531 1008.214844 1119.78125 C 1009.871094 1120.164062 1011.539062 1120.488281 1013.21875 1120.753906 C 1014.898438 1121.015625 1016.582031 1121.214844 1018.277344 1121.351562 C 1019.972656 1121.488281 1021.667969 1121.566406 1023.367188 1121.578125 C 1025.65625 1121.570312 1027.941406 1121.445312 1030.21875 1121.207031 C 1032.496094 1120.96875 1034.753906 1120.613281 1036.996094 1120.148438 C 1039.238281 1119.679688 1041.449219 1119.101562 1043.632812 1118.40625 C 1045.816406 1117.714844 1047.960938 1116.914062 1050.0625 1116.007812 C 1052.164062 1115.097656 1054.214844 1114.085938 1056.214844 1112.96875 C 1058.210938 1111.855469 1060.152344 1110.640625 1062.027344 1109.328125 C 1063.902344 1108.015625 1065.710938 1106.609375 1067.445312 1105.113281 C 1069.179688 1103.617188 1070.832031 1102.039062 1072.40625 1100.375 C 1078.660156 1093.992188 1084.753906 1087.464844 1090.6875 1080.789062 C 1096.625 1074.109375 1102.398438 1067.296875 1108.007812 1060.339844 C 1113.613281 1053.386719 1119.050781 1046.300781 1124.320312 1039.085938 C 1129.585938 1031.867188 1134.679688 1024.53125 1139.59375 1017.066406 C 1144.507812 1009.605469 1149.238281 1002.03125 1153.789062 994.34375 C 1158.335938 986.652344 1162.699219 978.859375 1166.875 970.957031 C 1171.046875 963.058594 1175.027344 955.0625 1178.820312 946.972656 C 1182.609375 938.878906 1186.199219 930.703125 1189.597656 922.4375 C 1192.992188 914.175781 1196.1875 905.832031 1199.183594 897.414062 C 1202.175781 888.996094 1204.964844 880.511719 1207.550781 871.957031 C 1210.136719 863.40625 1212.515625 854.796875 1214.6875 846.128906 C 1216.859375 837.460938 1218.820312 828.746094 1220.574219 819.984375 C 1222.324219 811.222656 1223.867188 802.421875 1225.195312 793.589844 C 1226.523438 784.753906 1227.636719 775.890625 1228.539062 767 C 1229.441406 758.109375 1230.128906 749.203125 1230.601562 740.28125 C 1231.078125 731.359375 1231.335938 722.429688 1231.378906 713.492188 C 1231.421875 704.558594 1231.25 695.628906 1230.863281 686.699219 C 1230.476562 677.773438 1229.875 668.863281 1229.0625 659.964844 C 1228.246094 651.066406 1227.21875 642.191406 1225.972656 633.34375 C 1224.730469 624.496094 1223.277344 615.683594 1221.609375 606.902344 C 1219.945312 598.125 1218.066406 589.390625 1215.980469 580.703125 C 1213.894531 572.015625 1211.597656 563.382812 1209.09375 554.804688 C 1206.59375 546.226562 1203.886719 537.714844 1200.972656 529.269531 C 1198.0625 520.820312 1194.949219 512.449219 1191.632812 504.152344 C 1188.316406 495.855469 1184.804688 487.644531 1181.09375 479.515625 C 1177.382812 471.386719 1173.480469 463.355469 1169.382812 455.414062 C 1165.285156 447.472656 1161 439.636719 1156.523438 431.902344 C 1152.050781 424.171875 1147.390625 416.550781 1142.550781 409.039062 C 1137.710938 401.53125 1132.691406 394.144531 1127.492188 386.875 C 1122.296875 379.609375 1116.925781 372.46875 1111.386719 365.460938 C 1105.847656 358.453125 1100.140625 351.582031 1094.269531 344.847656 C 1088.398438 338.113281 1082.367188 331.523438 1076.179688 325.082031 C 1073.023438 321.839844 1069.578125 318.9375 1065.847656 316.378906 C 1062.113281 313.820312 1058.167969 311.652344 1054.003906 309.878906 C 1049.839844 308.105469 1045.542969 306.761719 1041.113281 305.839844 C 1036.683594 304.921875 1032.203125 304.449219 1027.679688 304.421875 C 1023.214844 304.425781 1018.796875 304.871094 1014.417969 305.753906 C 1010.042969 306.636719 1005.796875 307.941406 1001.679688 309.667969 C 997.5625 311.394531 993.65625 313.507812 989.960938 316.011719 C 986.261719 318.515625 982.847656 321.359375 979.714844 324.539062 Z M 956.003906 711.097656 C 955.976562 714.445312 955.867188 717.789062 955.671875 721.128906 C 955.480469 724.46875 955.207031 727.804688 954.851562 731.132812 C 954.496094 734.460938 954.058594 737.777344 953.539062 741.082031 C 953.023438 744.390625 952.425781 747.679688 951.746094 750.957031 C 951.066406 754.234375 950.304688 757.492188 949.46875 760.730469 C 948.628906 763.972656 947.710938 767.1875 946.714844 770.382812 C 945.71875 773.578125 944.644531 776.746094 943.492188 779.890625 C 942.339844 783.03125 941.109375 786.144531 939.808594 789.226562 C 938.503906 792.304688 937.125 795.355469 935.667969 798.367188 C 934.214844 801.382812 932.691406 804.359375 931.089844 807.300781 C 929.492188 810.238281 927.820312 813.136719 926.078125 815.996094 C 924.335938 818.851562 922.527344 821.664062 920.648438 824.433594 C 918.769531 827.203125 916.824219 829.921875 914.808594 832.597656 C 912.796875 835.269531 910.71875 837.890625 908.578125 840.464844 C 906.4375 843.035156 904.234375 845.554688 901.972656 848.015625 C 899.707031 850.480469 897.382812 852.886719 895 855.234375 C 892.617188 857.585938 890.179688 859.875 887.6875 862.105469 C 885.191406 864.335938 882.644531 866.503906 880.042969 868.609375 C 877.441406 870.714844 874.792969 872.753906 872.089844 874.730469 C 869.390625 876.703125 866.644531 878.613281 863.847656 880.453125 C 861.054688 882.292969 858.21875 884.0625 855.335938 885.765625 C 852.457031 887.46875 849.535156 889.097656 846.574219 890.65625 C 843.613281 892.214844 840.617188 893.699219 837.582031 895.109375 C 834.550781 896.519531 831.484375 897.855469 828.382812 899.117188 C 825.285156 900.378906 822.15625 901.5625 819 902.671875 C 815.84375 903.777344 812.660156 904.808594 809.453125 905.757812 C 806.246094 906.710938 803.015625 907.582031 799.765625 908.378906 C 796.515625 909.171875 793.25 909.882812 789.964844 910.515625 C 786.679688 911.148438 783.378906 911.703125 780.070312 912.171875 C 776.757812 912.644531 773.433594 913.035156 770.101562 913.34375 C 766.773438 913.652344 763.433594 913.878906 760.09375 914.023438 C 756.75 914.167969 753.40625 914.230469 750.0625 914.214844 C 746.714844 914.195312 743.371094 914.09375 740.03125 913.910156 C 736.691406 913.726562 733.359375 913.460938 730.03125 913.117188 C 726.703125 912.769531 723.386719 912.34375 720.078125 911.832031 C 716.773438 911.324219 713.480469 910.734375 710.203125 910.066406 C 706.925781 909.394531 703.664062 908.644531 700.425781 907.8125 C 697.183594 906.984375 693.964844 906.074219 690.769531 905.085938 C 687.570312 904.097656 684.402344 903.035156 681.257812 901.890625 C 678.113281 900.746094 675 899.527344 671.914062 898.230469 C 668.828125 896.933594 665.777344 895.566406 662.761719 894.121094 C 659.746094 892.671875 656.765625 891.15625 653.820312 889.5625 C 650.878906 887.972656 647.976562 886.308594 645.113281 884.574219 C 642.253906 882.839844 639.4375 881.039062 636.664062 879.164062 C 633.890625 877.292969 631.164062 875.355469 628.484375 873.347656 C 625.808594 871.34375 623.179688 869.273438 620.605469 867.140625 C 618.027344 865.003906 615.503906 862.808594 613.035156 860.550781 C 610.566406 858.292969 608.152344 855.972656 605.796875 853.597656 C 603.441406 851.222656 601.148438 848.789062 598.910156 846.300781 C 596.675781 843.8125 594.5 841.269531 592.386719 838.671875 C 590.277344 836.078125 588.230469 833.429688 586.246094 830.734375 C 584.265625 828.039062 582.351562 825.296875 580.503906 822.507812 C 578.652344 819.71875 576.875 816.882812 575.167969 814.007812 C 573.457031 811.128906 571.820312 808.210938 570.253906 805.253906 C 568.6875 802.296875 567.195312 799.304688 565.777344 796.273438 C 564.355469 793.242188 563.011719 790.179688 561.742188 787.082031 C 560.472656 783.988281 559.28125 780.859375 558.164062 777.707031 C 557.046875 774.550781 556.011719 771.371094 555.050781 768.164062 C 554.089844 764.960938 553.207031 761.730469 552.40625 758.484375 C 551.601562 755.234375 550.882812 751.96875 550.238281 748.683594 C 549.597656 745.398438 549.035156 742.101562 548.554688 738.789062 C 548.074219 735.476562 547.675781 732.15625 547.355469 728.824219 C 547.039062 725.492188 546.800781 722.15625 546.648438 718.8125 C 546.492188 715.46875 546.421875 712.125 546.429688 708.777344 C 546.441406 705.429688 546.53125 702.085938 546.703125 698.746094 C 546.878906 695.402344 547.132812 692.066406 547.46875 688.738281 C 547.808594 685.40625 548.226562 682.085938 548.722656 678.777344 C 549.222656 675.46875 549.804688 672.175781 550.464844 668.894531 C 551.125 665.613281 551.867188 662.351562 552.6875 659.105469 C 553.507812 655.863281 554.40625 652.640625 555.386719 649.4375 C 556.363281 646.238281 557.421875 643.0625 558.554688 639.914062 C 559.6875 636.765625 560.898438 633.648438 562.1875 630.558594 C 563.472656 627.46875 564.835938 624.414062 566.269531 621.390625 C 567.707031 618.371094 569.214844 615.382812 570.800781 612.433594 C 572.382812 609.488281 574.035156 606.578125 575.761719 603.710938 C 577.488281 600.84375 579.28125 598.019531 581.144531 595.242188 C 583.007812 592.460938 584.9375 589.730469 586.9375 587.046875 C 588.933594 584.359375 590.996094 581.726562 593.121094 579.144531 C 595.25 576.558594 597.4375 574.03125 599.6875 571.554688 C 601.9375 569.078125 604.246094 566.65625 606.617188 564.292969 C 608.984375 561.929688 611.410156 559.628906 613.894531 557.382812 C 616.375 555.140625 618.910156 552.957031 621.5 550.835938 C 624.085938 548.71875 626.726562 546.664062 629.414062 544.671875 C 632.105469 542.679688 634.84375 540.757812 637.625 538.902344 C 640.410156 537.046875 643.238281 535.257812 646.109375 533.539062 C 648.980469 531.824219 651.890625 530.175781 654.84375 528.601562 C 657.792969 527.027344 660.78125 525.523438 663.808594 524.097656 C 666.832031 522.667969 669.890625 521.316406 672.984375 520.035156 C 676.074219 518.757812 679.195312 517.554688 682.347656 516.429688 C 685.5 515.304688 688.675781 514.257812 691.875 513.285156 C 695.078125 512.316406 698.300781 511.425781 701.546875 510.613281 C 704.792969 509.804688 708.058594 509.070312 711.339844 508.417969 C 714.621094 507.769531 717.914062 507.195312 721.222656 506.707031 C 724.535156 506.214844 727.851562 505.808594 731.183594 505.480469 C 734.511719 505.152344 737.847656 504.90625 741.1875 504.742188 C 744.53125 504.578125 747.875 504.496094 751.21875 504.496094 C 754.585938 504.515625 757.945312 504.617188 761.304688 504.800781 C 764.664062 504.984375 768.019531 505.25 771.363281 505.597656 C 774.710938 505.945312 778.046875 506.375 781.375 506.886719 C 784.699219 507.398438 788.011719 507.988281 791.304688 508.664062 C 794.601562 509.335938 797.878906 510.089844 801.140625 510.925781 C 804.398438 511.761719 807.636719 512.675781 810.851562 513.667969 C 814.066406 514.660156 817.253906 515.734375 820.417969 516.882812 C 823.578125 518.03125 826.710938 519.257812 829.8125 520.5625 C 832.917969 521.863281 835.984375 523.242188 839.019531 524.695312 C 842.054688 526.148438 845.050781 527.675781 848.011719 529.277344 C 850.96875 530.878906 853.890625 532.550781 856.765625 534.292969 C 859.644531 536.039062 862.480469 537.851562 865.269531 539.734375 C 868.058594 541.617188 870.796875 543.566406 873.492188 545.582031 C 876.183594 547.601562 878.828125 549.683594 881.417969 551.828125 C 884.011719 553.976562 886.546875 556.183594 889.03125 558.457031 C 891.515625 560.726562 893.941406 563.058594 896.308594 565.445312 C 898.679688 567.835938 900.988281 570.285156 903.234375 572.785156 C 905.484375 575.289062 907.671875 577.847656 909.796875 580.457031 C 911.917969 583.066406 913.976562 585.730469 915.972656 588.441406 C 917.964844 591.152344 919.890625 593.910156 921.75 596.714844 C 923.609375 599.523438 925.394531 602.371094 927.113281 605.265625 C 928.832031 608.160156 930.480469 611.09375 932.054688 614.066406 C 933.628906 617.042969 935.128906 620.050781 936.558594 623.101562 C 937.984375 626.148438 939.335938 629.230469 940.613281 632.34375 C 941.890625 635.457031 943.089844 638.601562 944.210938 641.773438 C 945.332031 644.945312 946.378906 648.144531 947.34375 651.371094 C 948.308594 654.59375 949.195312 657.839844 950 661.105469 C 950.808594 664.375 951.535156 667.660156 952.179688 670.964844 C 952.824219 674.265625 953.390625 677.582031 953.871094 680.914062 C 954.355469 684.246094 954.757812 687.585938 955.074219 690.9375 C 955.394531 694.285156 955.632812 697.644531 955.785156 701.003906 C 955.941406 704.367188 956.015625 707.730469 956.003906 711.097656 Z M 819.121094 711.097656 C 819.117188 709.980469 819.085938 708.867188 819.023438 707.753906 C 818.964844 706.636719 818.878906 705.527344 818.765625 704.414062 C 818.648438 703.304688 818.507812 702.199219 818.339844 701.09375 C 818.171875 699.992188 817.976562 698.894531 817.753906 697.800781 C 817.53125 696.707031 817.28125 695.621094 817.003906 694.539062 C 816.730469 693.457031 816.425781 692.382812 816.097656 691.316406 C 815.769531 690.25 815.414062 689.191406 815.035156 688.144531 C 814.652344 687.09375 814.246094 686.054688 813.816406 685.027344 C 813.386719 683.996094 812.929688 682.980469 812.445312 681.972656 C 811.964844 680.964844 811.460938 679.972656 810.929688 678.992188 C 810.398438 678.007812 809.84375 677.039062 809.265625 676.085938 C 808.691406 675.132812 808.089844 674.191406 807.464844 673.265625 C 806.839844 672.339844 806.195312 671.433594 805.527344 670.539062 C 804.859375 669.644531 804.167969 668.769531 803.457031 667.910156 C 802.746094 667.050781 802.011719 666.207031 801.261719 665.386719 C 800.507812 664.5625 799.734375 663.757812 798.941406 662.972656 C 798.148438 662.183594 797.339844 661.417969 796.507812 660.675781 C 795.679688 659.929688 794.832031 659.203125 793.964844 658.5 C 793.101562 657.796875 792.21875 657.113281 791.320312 656.453125 C 790.421875 655.792969 789.503906 655.152344 788.574219 654.535156 C 787.644531 653.921875 786.699219 653.328125 785.742188 652.757812 C 784.78125 652.1875 783.808594 651.644531 782.824219 651.121094 C 781.835938 650.601562 780.839844 650.101562 779.828125 649.628906 C 778.816406 649.15625 777.796875 648.710938 776.761719 648.289062 C 775.730469 647.863281 774.6875 647.46875 773.636719 647.097656 C 772.585938 646.726562 771.523438 646.378906 770.457031 646.0625 C 769.386719 645.742188 768.308594 645.449219 767.226562 645.183594 C 766.144531 644.914062 765.054688 644.675781 763.960938 644.460938 C 762.863281 644.25 761.765625 644.0625 760.660156 643.90625 C 759.554688 643.746094 758.449219 643.613281 757.339844 643.507812 C 756.226562 643.40625 755.113281 643.328125 754 643.277344 C 752.886719 643.226562 751.769531 643.207031 750.65625 643.210938 C 749.539062 643.214844 748.425781 643.246094 747.3125 643.308594 C 746.199219 643.367188 745.085938 643.453125 743.976562 643.566406 C 742.867188 643.683594 741.761719 643.824219 740.65625 643.992188 C 739.554688 644.160156 738.457031 644.355469 737.363281 644.578125 C 736.269531 644.800781 735.183594 645.050781 734.101562 645.324219 C 733.019531 645.601562 731.949219 645.902344 730.882812 646.230469 C 729.816406 646.558594 728.757812 646.914062 727.710938 647.296875 C 726.660156 647.675781 725.621094 648.082031 724.59375 648.511719 C 723.5625 648.945312 722.546875 649.402344 721.539062 649.882812 C 720.535156 650.363281 719.539062 650.871094 718.558594 651.398438 C 717.578125 651.929688 716.609375 652.484375 715.652344 653.0625 C 714.699219 653.640625 713.761719 654.242188 712.835938 654.863281 C 711.910156 655.488281 711 656.132812 710.109375 656.804688 C 709.214844 657.472656 708.339844 658.160156 707.480469 658.875 C 706.621094 659.585938 705.777344 660.316406 704.957031 661.070312 C 704.132812 661.824219 703.328125 662.59375 702.542969 663.386719 C 701.757812 664.179688 700.992188 664.992188 700.246094 665.820312 C 699.5 666.652344 698.773438 667.5 698.070312 668.363281 C 697.367188 669.230469 696.683594 670.113281 696.023438 671.011719 C 695.363281 671.910156 694.722656 672.824219 694.109375 673.757812 C 693.492188 674.6875 692.898438 675.632812 692.332031 676.589844 C 691.761719 677.550781 691.214844 678.523438 690.695312 679.511719 C 690.171875 680.496094 689.675781 681.496094 689.203125 682.507812 C 688.730469 683.515625 688.28125 684.539062 687.859375 685.570312 C 687.4375 686.605469 687.039062 687.648438 686.667969 688.699219 C 686.296875 689.75 685.949219 690.8125 685.632812 691.882812 C 685.3125 692.949219 685.019531 694.027344 684.753906 695.109375 C 684.484375 696.195312 684.246094 697.285156 684.035156 698.378906 C 683.820312 699.472656 683.632812 700.574219 683.476562 701.679688 C 683.316406 702.785156 683.183594 703.890625 683.078125 705.003906 C 682.976562 706.113281 682.898438 707.226562 682.847656 708.339844 C 682.796875 709.457031 682.773438 710.570312 682.777344 711.6875 C 682.785156 712.804688 682.816406 713.917969 682.875 715.03125 C 682.933594 716.148438 683.019531 717.257812 683.132812 718.367188 C 683.25 719.480469 683.390625 720.585938 683.558594 721.6875 C 683.726562 722.792969 683.921875 723.890625 684.144531 724.984375 C 684.367188 726.078125 684.613281 727.164062 684.890625 728.246094 C 685.164062 729.328125 685.46875 730.402344 685.796875 731.46875 C 686.125 732.535156 686.476562 733.59375 686.859375 734.640625 C 687.238281 735.691406 687.644531 736.730469 688.074219 737.757812 C 688.503906 738.789062 688.960938 739.808594 689.441406 740.8125 C 689.925781 741.820312 690.429688 742.816406 690.960938 743.796875 C 691.488281 744.777344 692.042969 745.746094 692.621094 746.703125 C 693.199219 747.65625 693.796875 748.597656 694.421875 749.523438 C 695.046875 750.449219 695.691406 751.355469 696.359375 752.25 C 697.027344 753.144531 697.71875 754.019531 698.429688 754.878906 C 699.140625 755.742188 699.871094 756.582031 700.625 757.40625 C 701.375 758.230469 702.148438 759.035156 702.941406 759.820312 C 703.734375 760.605469 704.542969 761.371094 705.375 762.117188 C 706.203125 762.863281 707.050781 763.589844 707.914062 764.292969 C 708.78125 765 709.664062 765.679688 710.5625 766.34375 C 711.460938 767.003906 712.375 767.640625 713.304688 768.257812 C 714.234375 768.875 715.179688 769.46875 716.136719 770.039062 C 717.097656 770.609375 718.070312 771.152344 719.054688 771.675781 C 720.042969 772.199219 721.039062 772.695312 722.050781 773.167969 C 723.058594 773.640625 724.082031 774.089844 725.113281 774.511719 C 726.144531 774.933594 727.1875 775.332031 728.242188 775.703125 C 729.292969 776.078125 730.351562 776.421875 731.421875 776.742188 C 732.488281 777.0625 733.566406 777.355469 734.648438 777.621094 C 735.734375 777.886719 736.820312 778.128906 737.917969 778.34375 C 739.011719 778.554688 740.109375 778.742188 741.214844 778.902344 C 742.320312 779.058594 743.425781 779.191406 744.539062 779.296875 C 745.648438 779.402344 746.761719 779.480469 747.875 779.53125 C 748.988281 779.582031 750.105469 779.605469 751.21875 779.597656 C 752.335938 779.589844 753.449219 779.558594 754.5625 779.496094 C 755.675781 779.433594 756.789062 779.34375 757.898438 779.226562 C 759.003906 779.109375 760.109375 778.964844 761.214844 778.796875 C 762.316406 778.625 763.414062 778.425781 764.503906 778.203125 C 765.597656 777.976562 766.683594 777.726562 767.765625 777.449219 C 768.84375 777.171875 769.917969 776.867188 770.980469 776.539062 C 772.046875 776.207031 773.101562 775.851562 774.152344 775.46875 C 775.199219 775.085938 776.238281 774.679688 777.265625 774.246094 C 778.292969 773.816406 779.308594 773.359375 780.316406 772.875 C 781.320312 772.394531 782.3125 771.886719 783.292969 771.355469 C 784.273438 770.824219 785.242188 770.269531 786.195312 769.691406 C 787.148438 769.113281 788.089844 768.511719 789.011719 767.886719 C 789.9375 767.261719 790.84375 766.617188 791.738281 765.949219 C 792.628906 765.277344 793.507812 764.589844 794.363281 763.878906 C 795.222656 763.164062 796.066406 762.433594 796.886719 761.679688 C 797.710938 760.925781 798.515625 760.15625 799.300781 759.363281 C 800.085938 758.570312 800.851562 757.761719 801.597656 756.929688 C 802.339844 756.101562 803.066406 755.253906 803.769531 754.386719 C 804.476562 753.523438 805.15625 752.640625 805.816406 751.742188 C 806.480469 750.84375 807.117188 749.929688 807.734375 749 C 808.351562 748.070312 808.945312 747.125 809.511719 746.167969 C 810.082031 745.207031 810.628906 744.238281 811.152344 743.25 C 811.675781 742.265625 812.171875 741.269531 812.648438 740.257812 C 813.121094 739.25 813.570312 738.226562 813.992188 737.195312 C 814.417969 736.164062 814.816406 735.121094 815.1875 734.070312 C 815.5625 733.019531 815.90625 731.960938 816.230469 730.890625 C 816.550781 729.824219 816.84375 728.746094 817.113281 727.664062 C 817.382812 726.582031 817.621094 725.492188 817.835938 724.398438 C 818.054688 723.304688 818.242188 722.203125 818.402344 721.101562 C 818.5625 719.996094 818.699219 718.890625 818.804688 717.777344 C 818.914062 716.667969 818.992188 715.554688 819.046875 714.441406 C 819.097656 713.328125 819.125 712.210938 819.121094 711.097656 Z M 819.121094 711.097656 " fill-opacity="1" fill-rule="nonzero"/></svg>