<svg xmlns="http://www.w3.org/2000/svg" xmlns:xlink="http://www.w3.org/1999/xlink" width="2000" zoomAndPan="magnify" viewBox="0 0 1500 1499.999933" height="2000" preserveAspectRatio="xMidYMid meet" version="1.0"><defs><clipPath id="f573a8864a"><path d="M 88 10.675781 L 838 10.675781 L 838 1290 L 88 1290 Z M 88 10.675781 " clip-rule="nonzero"/></clipPath></defs><g clip-path="url(#f573a8864a)"><path fill="#000000" d="M 589.738281 10.675781 C 608.589844 14.996094 627.835938 18.140625 646.6875 23.242188 C 726.023438 46.019531 788.863281 91.574219 837.566406 159.511719 C 687.535156 207.027344 585.417969 303.238281 543 455.210938 C 499.796875 610.71875 548.105469 741.878906 660.828125 853.40625 C 503.332031 955.507812 400.824219 1089.023438 410.25 1287.726562 C 404.75 1288.121094 400.429688 1288.90625 396.109375 1288.90625 C 345.445312 1288.90625 294.777344 1289.300781 243.71875 1288.90625 C 164.382812 1288.511719 105.078125 1237.855469 91.332031 1159.710938 C 90.9375 1156.175781 89.761719 1153.03125 88.582031 1149.890625 L 88.582031 1017.160156 C 89.367188 1013.234375 90.9375 1009.304688 91.332031 1005.378906 C 95.652344 958.648438 110.578125 915.058594 134.140625 875.003906 C 193.449219 774.867188 281.425781 709.679688 387.863281 667.265625 C 394.929688 664.519531 402 661.769531 405.929688 660.199219 C 372.152344 631.925781 336.019531 606.007812 304.988281 574.984375 C 246.46875 516.078125 209.15625 444.609375 207.585938 359 C 204.445312 202.707031 312.84375 61.335938 464.449219 22.457031 C 481.730469 18.140625 499.402344 14.605469 517.078125 10.675781 Z M 589.738281 10.675781 " fill-opacity="1" fill-rule="nonzero"/></g><path fill="#000000" d="M 804.183594 869.898438 C 781.011719 853.011719 757.050781 837.699219 735.449219 819.242188 C 671.039062 764.65625 622.335938 698.683594 608.199219 613.46875 C 592.09375 516.472656 616.839844 428.113281 678.894531 352.71875 C 767.65625 244.332031 884.304688 200.351562 1021.375 230.195312 C 1165.910156 261.609375 1255.457031 355.464844 1287.664062 499.976562 C 1312.40625 610.324219 1275.882812 704.574219 1199.6875 783.898438 C 1171.015625 813.351562 1135.667969 836.519531 1103.070312 862.4375 C 1099.925781 864.792969 1096.785156 866.757812 1091.679688 869.898438 C 1110.140625 877.753906 1127.421875 884.035156 1143.914062 891.890625 C 1244.460938 939.011719 1326.546875 1006.164062 1377.996094 1106.695312 C 1399.597656 1148.714844 1411.773438 1193.480469 1410.203125 1241.390625 C 1409.027344 1279.480469 1409.8125 1317.574219 1409.8125 1356.058594 C 1409.8125 1423.996094 1359.539062 1484.863281 1292.769531 1497.429688 C 1282.558594 1499.390625 1271.953125 1500.175781 1261.351562 1500.175781 L 635.691406 1500.175781 C 556.355469 1500.175781 489.191406 1439.308594 486.835938 1359.984375 C 485.265625 1303.4375 484.085938 1246.101562 492.335938 1190.339844 C 505.296875 1103.554688 555.960938 1035.617188 620.371094 977.890625 C 670.644531 932.730469 728.378906 899.742188 791.613281 876.183594 C 795.542969 874.609375 799.078125 873.433594 802.613281 871.863281 C 803.789062 871.46875 804.183594 870.292969 804.183594 869.898438 Z M 804.183594 869.898438 " fill-opacity="1" fill-rule="nonzero"/></svg>