<svg xmlns="http://www.w3.org/2000/svg" xmlns:xlink="http://www.w3.org/1999/xlink" width="2000" zoomAndPan="magnify" viewBox="0 0 1500 1499.999933" height="2000" preserveAspectRatio="xMidYMid meet" version="1.0"><defs><clipPath id="c9fa71f0ef"><path d="M 168.75 0 L 1331.25 0 L 1331.25 1500 L 168.75 1500 Z M 168.75 0 " clip-rule="nonzero"/></clipPath></defs><g clip-path="url(#c9fa71f0ef)"><path fill="#00c2cb" d="M 750 99.605469 C 477.898438 99.605469 257.316406 320.15625 257.316406 592.222656 C 257.316406 864.28125 477.898438 1084.832031 750 1084.832031 C 1022.101562 1084.832031 1242.683594 864.28125 1242.683594 592.222656 C 1242.683594 320.15625 1022.101562 99.605469 750 99.605469 Z M 749.011719 0 L 750 0.046875 L 750.988281 0 L 750.988281 0.101562 L 805.15625 2.835938 C 1100.601562 32.835938 1331.148438 282.308594 1331.148438 585.621094 C 1331.148438 666.503906 1314.757812 743.558594 1285.109375 813.640625 C 1280.183594 825.59375 1276.0625 838.347656 1270.328125 849.488281 C 1254.773438 883.097656 1241.648438 906.207031 1230.945312 920.421875 C 1145.796875 1048.9375 964.148438 1246.726562 812.648438 1425.03125 L 750.988281 1498.746094 L 750.988281 1498.84375 L 750.058594 1500 L 750 1499.929688 L 749.941406 1500 L 749.011719 1498.84375 L 749.011719 1498.746094 L 687.351562 1425.03125 C 535.851562 1246.726562 354.203125 1048.9375 269.054688 920.421875 C 258.351562 906.207031 245.222656 883.097656 229.671875 849.488281 C 223.9375 838.347656 219.816406 825.59375 214.890625 813.640625 C 185.246094 743.558594 168.847656 666.503906 168.847656 585.621094 C 168.847656 282.308594 399.402344 32.835938 694.84375 2.835938 L 749.011719 0.101562 Z M 749.011719 0 " fill-opacity="1" fill-rule="evenodd"/></g><path fill="#00c2cb" d="M 848.113281 834.371094 L 929.058594 834.371094 L 929.058594 866.414062 C 929.058594 882.617188 916.089844 895.753906 900.089844 895.753906 L 877.082031 895.753906 C 861.085938 895.753906 848.113281 882.617188 848.113281 866.414062 Z M 570.929688 834.371094 L 651.875 834.371094 L 651.875 866.414062 C 651.875 882.617188 638.902344 895.753906 622.90625 895.753906 L 599.898438 895.753906 C 583.902344 895.753906 570.929688 882.617188 570.929688 866.414062 Z M 691.230469 727.046875 C 684.945312 727.046875 679.84375 732.207031 679.84375 738.574219 L 679.84375 758.734375 C 679.84375 765.101562 684.945312 770.261719 691.230469 770.261719 L 808.769531 770.261719 C 815.054688 770.261719 820.15625 765.101562 820.15625 758.734375 L 820.15625 738.574219 C 820.15625 732.207031 815.054688 727.046875 808.769531 727.046875 Z M 937.523438 696.128906 L 856.742188 704.6875 C 852.949219 705.089844 850.082031 708.277344 850.082031 712.082031 L 850.082031 738.492188 C 850.082031 742.605469 853.417969 745.933594 857.523438 745.933594 L 938.304688 745.933594 C 942.410156 745.933594 945.742188 742.605469 945.742188 738.492188 L 945.742188 703.523438 C 945.742188 699.101562 941.921875 695.660156 937.523438 696.128906 Z M 562.476562 696.128906 C 558.085938 695.660156 554.257812 699.101562 554.257812 703.523438 L 554.257812 738.492188 C 554.257812 742.605469 557.589844 745.933594 561.695312 745.933594 L 642.476562 745.933594 C 646.582031 745.933594 649.917969 742.605469 649.917969 738.492188 L 649.917969 712.082031 C 649.917969 708.277344 647.050781 705.089844 643.261719 704.6875 Z M 585.652344 362.867188 C 568.3125 362.867188 554.246094 377.109375 554.246094 394.671875 L 554.246094 591.046875 C 554.246094 597.980469 555.839844 604.832031 558.914062 611.054688 L 573.152344 639.902344 C 575.613281 644.894531 580.695312 648.054688 586.269531 648.054688 L 913.660156 648.054688 C 919.257812 648.054688 924.34375 644.867188 926.796875 639.855469 L 941.027344 610.726562 C 944.042969 604.5625 945.605469 597.78125 945.617188 590.921875 L 945.730469 394.679688 L 945.742188 394.671875 C 945.742188 377.109375 931.6875 362.867188 914.339844 362.867188 Z M 646.203125 306.027344 C 645.824219 306.027344 645.503906 306.308594 645.503906 306.660156 L 645.503906 323.191406 C 645.503906 332.679688 654.070312 340.371094 664.636719 340.371094 L 835.363281 340.371094 L 835.363281 340.378906 C 845.929688 340.378906 854.496094 332.691406 854.496094 323.203125 L 854.496094 306.660156 C 854.496094 306.308594 854.175781 306.027344 853.792969 306.027344 Z M 573.78125 288.847656 L 926.21875 288.847656 C 959.761719 288.847656 986.953125 316.378906 986.953125 350.359375 L 986.953125 475.652344 L 1008.058594 475.652344 L 1008.058594 446.65625 C 1008.058594 437.707031 1015.214844 430.453125 1024.050781 430.453125 L 1059.753906 430.453125 C 1068.582031 430.453125 1075.75 437.707031 1075.75 446.65625 L 1075.75 565.273438 C 1075.75 574.222656 1068.59375 581.472656 1059.753906 581.472656 L 1024.050781 581.472656 C 1015.226562 581.472656 1008.058594 574.222656 1008.058594 565.273438 L 1008.058594 510.429688 L 986.953125 510.429688 L 986.953125 806.199219 C 986.953125 811.058594 983.058594 814.996094 978.265625 814.996094 L 521.734375 814.996094 C 516.933594 814.996094 513.046875 811.058594 513.046875 806.199219 L 513.046875 510.429688 L 492.425781 510.429688 L 492.425781 565.15625 C 492.425781 574.171875 485.207031 581.484375 476.316406 581.484375 L 440.355469 581.484375 C 431.464844 581.484375 424.246094 574.179688 424.246094 565.15625 L 424.246094 446.773438 C 424.246094 437.753906 431.464844 430.445312 440.355469 430.445312 L 476.316406 430.445312 C 485.207031 430.445312 492.425781 437.746094 492.425781 446.773438 L 492.425781 475.652344 L 513.046875 475.652344 L 513.046875 350.359375 C 513.046875 316.378906 540.234375 288.847656 573.78125 288.847656 Z M 573.78125 288.847656 " fill-opacity="1" fill-rule="evenodd"/></svg>